{
.appVersion = "1141";
customParameters = (
{
name = glyphOrder;
value = (
space,
nbspace,
A,
B,
C,
D,
E,
F,
G,
H,
I,
J,
K,
L,
M,
N,
O,
P,
Q,
R,
S,
T,
U,
V,
W,
X,
Y,
Z,
a,
b,
c,
d,
e,
f,
g,
h,
i,
j,
k,
l,
m,
n,
o,
p,
q,
r,
s,
t,
u,
v,
w,
x,
y,
z,
Agrave,
Aacute,
Acircumflex,
Atilde,
Adieresis,
Aring,
Amacron,
Abreve,
Aogonek,
Aringacute,
Adblgrave,
Ainvertedbreve,
Adotbelow,
Ahookabove,
Acircumflexacute,
Acircumflexgrave,
Acircumflexhookabove,
Acircumflextilde,
Acircumflexdotbelow,
Abreveacute,
Abrevegrave,
Abrevehookabove,
Abrevetilde,
Abrevedotbelow,
Ccedilla,
Cacute,
Ccircumflex,
Cdotaccent,
Ccaron,
Dcaron,
Egrave,
Eacute,
Ecircumflex,
Edieresis,
Emacron,
Ebreve,
Edotaccent,
Eogonek,
Ecaron,
Edblgrave,
Einvertedbreve,
Edotbelow,
Ehookabove,
Etilde,
Ecircumflexacute,
Ecircumflexgrave,
Ecircumflexhookabove,
Ecircumflextilde,
Ecircumflexdotbelow,
Gcircumflex,
Gbreve,
Gdotaccent,
Gcommaaccent,
Gcaron,
Hcircumflex,
Igrave,
Iacute,
Icircumflex,
Idieresis,
Itilde,
Imacron,
Ibreve,
Iogonek,
Idotaccent,
Idblgrave,
Iinvertedbreve,
Ihookabove,
Idotbelow,
Jcircumflex,
Kcommaaccent,
Lacute,
Lcommaaccent,
Lcaron,
Ntilde,
Nacute,
Ncommaaccent,
Ncaron,
Ograve,
Oacute,
Ocircumflex,
Otilde,
Odieresis,
Omacron,
Obreve,
Ohungarumlaut,
Ohorn,
Oogonek,
Odblgrave,
Oinvertedbreve,
Odieresismacron,
Otildemacron,
Odotaccentmacron,
Odotbelow,
Ohookabove,
Ocircumflexacute,
Ocircumflexgrave,
Ocircumflexhookabove,
Ocircumflextilde,
Ocircumflexdotbelow,
Ohornacute,
Ohorngrave,
Ohornhookabove,
Ohorntilde,
Ohorndotbelow,
Racute,
Rcommaaccent,
Rcaron,
Rdblgrave,
Rinvertedbreve,
Sacute,
Scircumflex,
Scedilla,
Scaron,
Scommaaccent,
Tcedilla,
Tcaron,
Tcommaaccent,
Ugrave,
Uacute,
Ucircumflex,
Udieresis,
Utilde,
Umacron,
Ubreve,
Uring,
Uhungarumlaut,
Uogonek,
Uhorn,
Udblgrave,
Uinvertedbreve,
Udotbelow,
Uhornacute,
Uhorngrave,
Uhornhookabove,
Uhorntilde,
Uhorndotbelow,
Wcircumflex,
Wgrave,
Wacute,
Wdieresis,
Yacute,
Ycircumflex,
Ydieresis,
Ymacron,
Ygrave,
Ydotbelow,
Yhookabove,
Ytilde,
Zacute,

glyphs = (
{
color = (82,173,105,1);
glyphname = A;
lastChange = "2019-05-04 15:51:20 +0000";
layers = (
{
layerId = "BD4CBFBD-470E-43A2-AFCF-3289E9F05BB1";
paths = (
{
closed = 1;
nodes = (
"21 100 LINE",
"239 135 LINE",
"468 540 LINE",
"999 1508 LINE",
"1121 1508 LINE",
"1580 609 LINE",
"1829 135 LINE",
"2037 100 LINE",
"2035 0 LINE",
"1408 0 LINE",
"1410 100 LINE",
"1616 135 LINE",
"1417 538 LINE",
"1028 1295 LINE",
"606 503 LINE",
"421 135 LINE",
"627 100 LINE",
"625 0 LINE",
"19 0 LINE"
);
},
{
closed = 1;
nodes = (
"1529 602 LINE",
"1558 473 LINE",
"1033 473 LINE",
"1035 586 LINE"
);
},
{
closed = 1;
nodes = (
"554 601 LINE",
"1035 586 LINE",
"1033 473 LINE",
"510 473 LINE"
);
}
);
width = 2056;
}
);
unicode = 0041;
changeCount = 1;
},
{
color = (82,173,105,1);
glyphname = B;
lastChange = "2019-05-04 15:51:20 +0000";
layers = (
{
layerId = "BD4CBFBD-470E-43A2-AFCF-3289E9F05BB1";
paths = (
{
closed = 1;
nodes = (
"130 100 LINE",
"378 135 LINE",
"380 754 LINE",
"378 1352 LINE",
"130 1386 LINE",
"130 1500 LINE",
"1087 1500 LINE SMOOTH",
"1384 1500 OFFCURVE",
"1670 1315 OFFCURVE",
"1670 1172 QCURVE SMOOTH",
"1670 1037 OFFCURVE",
"1492 854 OFFCURVE",
"1335 830 QCURVE",
"1335 823 LINE",
"1527 794 OFFCURVE",
"1787 604 OFFCURVE",
"1787 433 QCURVE SMOOTH",
"1787 246 OFFCURVE",
"1433 0 OFFCURVE",
"1110 0 QCURVE SMOOTH",
"130 0 LINE"
);
},
{
closed = 1;
nodes = (
"582 115 LINE",
"1081 115 LINE SMOOTH",
"1342 115 OFFCURVE",
"1588 271 OFFCURVE",
"1588 440 QCURVE SMOOTH",
"1588 584 OFFCURVE",
"1374 738 OFFCURVE",
"1174 738 QCURVE SMOOTH",
"569 738 LINE",
"556 724 LINE",
"556 135 LINE"
);
},
{
closed = 1;
nodes = (
"567 852 LINE",
"1066 852 LINE SMOOTH",
"1265 852 OFFCURVE",
"1468 991 OFFCURVE",
"1468 1129 QCURVE SMOOTH",
"1468 1255 OFFCURVE",
"1270 1370 OFFCURVE",
"1080 1370 QCURVE SMOOTH",
"586 1370 LINE",
"559 1351 LINE",
"555 866 LINE"
);
}
);
width = 1989;
}
);
unicode = 0042;
changeCount = 1;
},
{
color = (82,173,105,1);
glyphname = C;
lastChange = "2019-05-04 15:51:20 +0000";
layers = (
{
layerId = "BD4CBFBD-470E-43A2-AFCF-3289E9F05BB1";
paths = (
{
closed = 1;
nodes = (
"100 1079 OFFCURVE",
"660 1520 OFFCURVE",
"1146 1520 QCURVE SMOOTH",
"1328 1520 OFFCURVE",
"1610 1458 OFFCURVE",
"1691 1412 QCURVE",
"1734 1500 LINE",
"1845 1500 LINE",
"1845 1031 LINE",
"1726 1031 LINE",
"1669 1184 LINE SMOOTH",
"1634 1277 OFFCURVE",
"1352 1392 OFFCURVE",
"1143 1392 QCURVE SMOOTH",
"761 1392 OFFCURVE",
"285 1061 OFFCURVE",
"287 740 QCURVE SMOOTH",
"290 442 OFFCURVE",
"701 106 OFFCURVE",
"1114 106 QCURVE SMOOTH",
"1384 106 OFFCURVE",
"1767 235 OFFCURVE",
"1860 328 QCURVE",
"1929 219 LINE",
"1783 91 OFFCURVE",
"1356 -30 OFFCURVE",
"1111 -30 QCURVE SMOOTH",
"608 -30 OFFCURVE",
"100 371 OFFCURVE",
"100 700 QCURVE SMOOTH"
);
}
);
width = 1932;
}
);
unicode = 0043;
changeCount = 1;
},
{
color = (63,206,255,1);
glyphname = D;
lastChange = "2019-05-04 15:51:20 +0000";
layers = (
{
layerId = "BD4CBFBD-470E-43A2-AFCF-3289E9F05BB1";
paths = (
{
closed = 1;
nodes = (
"130 100 LINE",
"378 135 LINE",
"380 754 LINE",
"378 1352 LINE",
"130 1386 LINE",
"130 1500 LINE",
"1113 1500 LINE SMOOTH",
"1534 1500 OFFCURVE",
"2015 1102 OFFCURVE",
"2015 777 QCURVE SMOOTH",
"2015 426 OFFCURVE",
"1515 -9 OFFCURVE",
"1068 -6 QCURVE SMOOTH",
"130 0 LINE"
);
},
{
closed = 1;
nodes = (
"603 110 OFFCURVE",
"895 101 OFFCURVE",
"1023 101 QCURVE SMOOTH",
"1394 101 OFFCURVE",
"1802 430 OFFCURVE",
"1802 757 QCURVE SMOOTH",
"1802 1078 OFFCURVE",
"1398 1381 OFFCURVE",
"974 1381 QCURVE SMOOTH",
"869 1381 OFFCURVE",
"605 1369 OFFCURVE",
"559 1364 QCURVE",
"556 750 LINE",
"559 116 LINE"
);
}
);
width = 2111;
}
);
unicode = 0044;
changeCount = 1;
},
{
color = (82,173,105,1);
glyphname = E;
lastChange = "2019-05-04 15:51:20 +0000";
layers = (
{
layerId = "BD4CBFBD-470E-43A2-AFCF-3289E9F05BB1";
paths = (
{
closed = 1;
nodes = (
"130 100 LINE",
"378 135 LINE",
"380 754 LINE",
"378 1352 LINE",
"130 1385 LINE",
"130 1500 LINE",
"1622 1500 LINE",
"1622 1152 LINE",
"1496 1152 LINE",
"1449 1382 LINE",
"590 1382 LINE",
"562 1362 LINE",
"559 783 LINE",
"562 139 LINE",
"592 115 LINE",
"1533 115 LINE",
"1624 398 LINE",
"1750 398 LINE",
"1707 0 LINE",
"130 0 LINE"
);
},
{
closed = 1;
nodes = (
"481 842 LINE",
"1275 847 LINE",
"1321 1004 LINE",
"1428 1004 LINE",
"1428 568 LINE",
"1321 568 LINE",
"1275 725 LINE",
"481 729 LINE"
);
}
);
width = 1821;
}
);
unicode = 0045;
changeCount = 1;
},
{
color = (82,173,105,1);
glyphname = F;
lastChange = "2019-05-04 15:51:20 +0000";
layers = (
{
layerId = "BD4CBFBD-470E-43A2-AFCF-3289E9F05BB1";
paths = (
{
closed = 1;
nodes = (
"130 100 LINE",
"378 135 LINE",
"380 760 LINE",
"378 1352 LINE",
"130 1385 LINE",
"130 1500 LINE",
"1667 1500 LINE",
"1667 1142 LINE",
"1542 1142 LINE",
"1493 1382 LINE",
"591 1382 LINE",
"562 1362 LINE",
"559 760 LINE",
"561 135 LINE",
"789 100 LINE",
"789 0 LINE",
"130 0 LINE"
);
},
{
closed = 1;
nodes = (
"471 816 LINE",
"1368 821 LINE",
"1413 988 LINE",
"1521 988 LINE",
"1521 522 LINE",
"1413 522 LINE",
"1368 699 LINE",
"471 704 LINE"
);
}
);
width = 1736;
}
);
unicode = 0046;
changeCount = 1;
},
{
color = (82,173,105,1);
glyphname = G;
lastChange = "2019-05-04 15:51:20 +0000";
layers = (
{
layerId = "BD4CBFBD-470E-43A2-AFCF-3289E9F05BB1";
paths = (
{
closed = 1;
nodes = (
"100 1068 OFFCURVE",
"630 1520 OFFCURVE",
"1146 1520 QCURVE SMOOTH",
"1328 1520 OFFCURVE",
"1610 1458 OFFCURVE",
"1691 1412 QCURVE",
"1734 1500 LINE",
"1845 1500 LINE",
"1845 1031 LINE",
"1726 1031 LINE",
"1669 1184 LINE SMOOTH",
"1634 1277 OFFCURVE",
"1352 1392 OFFCURVE",
"1143 1392 QCURVE SMOOTH",
"747 1392 OFFCURVE",
"287 1057 OFFCURVE",
"287 768 QCURVE SMOOTH",
"287 446 OFFCURVE",
"708 101 OFFCURVE",
"1110 101 QCURVE SMOOTH",
"1324 101 OFFCURVE",
"1664 169 OFFCURVE",
"1763 226 QCURVE",
"1763 523 LINE",
"1485 558 LINE",
"1485 658 LINE",
"2136 658 LINE",
"2136 558 LINE",
"1953 523 LINE",
"1953 199 LINE",
"1846 103 OFFCURVE",
"1380 -30 OFFCURVE",
"1107 -30 QCURVE SMOOTH",
"619 -30 OFFCURVE",
"100 366 OFFCURVE",
"100 744 QCURVE SMOOTH"
);
}
);
width = 2147;
}
);
unicode = 0047;
changeCount = 1;
},
{
color = (63,206,255,1);
glyphname = H;
lastChange = "2019-05-04 15:51:20 +0000";
layers = (
{
layerId = "BD4CBFBD-470E-43A2-AFCF-3289E9F05BB1";
paths = (
{
closed = 1;
nodes = (
"130 100 LINE",
"378 135 LINE",
"380 754 LINE",
"378 1352 LINE",
"130 1386 LINE",
"130 1500 LINE",
"807 1500 LINE",
"807 1386 LINE",
"562 1352 LINE",
"560 754 LINE",
"562 135 LINE",
"807 100 LINE",
"807 0 LINE",
"130 0 LINE"
);
},
{
closed = 1;
nodes = (
"468 847 LINE",
"1157 839 LINE",
"1827 847 LINE",
"1827 715 LINE",
"1157 715 LINE",
"468 715 LINE"
);
},
{
closed = 1;
nodes = (
"1499 100 LINE",
"1744 135 LINE",
"1746 754 LINE",
"1744 1352 LINE",
"1499 1386 LINE",
"1499 1500 LINE",
"2176 1500 LINE",
"2176 1386 LINE",
"1928 1352 LINE",
"1926 754 LINE",
"1928 135 LINE",
"2176 100 LINE",
"2176 0 LINE",
"1499 0 LINE"
);
}
);
width = 2306;
}
);
unicode = 0048;
changeCount = 1;
},
{
color = (82,173,105,1);
glyphname = I;
lastChange = "2019-05-04 15:51:20 +0000";
layers = (
{
layerId = "BD4CBFBD-470E-43A2-AFCF-3289E9F05BB1";
paths = (
{
closed = 1;
nodes = (
"140 100 LINE",
"388 135 LINE",
"390 754 LINE",
"388 1352 LINE",
"140 1386 LINE",
"140 1500 LINE",
"820 1500 LINE",
"820 1386 LINE",
"572 1352 LINE",
"570 754 LINE",
"572 135 LINE",
"820 100 LINE",
"820 0 LINE",
"140 0 LINE"
);
}
);
width = 960;
}
);
unicode = 0049;
changeCount = 1;
},
{
color = (82,173,105,1);
glyphname = J;
lastChange = "2019-05-04 15:51:20 +0000";
layers = (
{
layerId = "BD4CBFBD-470E-43A2-AFCF-3289E9F05BB1";
paths = (
{
closed = 1;
nodes = (
"35 -129 LINE",
"62 -130 OFFCURVE",
"172 -127 OFFCURVE",
"210 -123 QCURVE SMOOTH",
"304 -113 OFFCURVE",
"382 -32 OFFCURVE",
"382 62 QCURVE SMOOTH",
"380 834 LINE",
"378 1352 LINE",
"130 1386 LINE",
"130 1500 LINE",
"810 1500 LINE",
"810 1386 LINE",
"562 1352 LINE",
"560 834 LINE",
"572 139 LINE SMOOTH",
"576 -79 OFFCURVE",
"393 -250 OFFCURVE",
"230 -257 QCURVE SMOOTH",
"171 -260 OFFCURVE",
"55 -256 OFFCURVE",
"35 -254 QCURVE"
);
}
);
width = 940;
}
);
unicode = 004A;
changeCount = 1;
},
{
color = (82,173,105,1);
glyphname = K;
lastChange = "2019-05-04 15:51:20 +0000";
layers = (
{
layerId = "BD4CBFBD-470E-43A2-AFCF-3289E9F05BB1";
paths = (
{
closed = 1;
nodes = (
"130 100 LINE",
"378 135 LINE",
"380 754 LINE",
"378 1352 LINE",
"130 1386 LINE",
"130 1500 LINE",
"807 1500 LINE",
"807 1386 LINE",
"562 1352 LINE",
"560 754 LINE",
"562 135 LINE",
"807 100 LINE",
"807 0 LINE",
"130 0 LINE"
);
},
{
closed = 1;
nodes = (
"478 629 LINE",
"1421 1352 LINE",
"1217 1386 LINE",
"1217 1500 LINE",
"1872 1500 LINE",
"1872 1386 LINE",
"1644 1352 LINE",
"940 839 LINE",
"888 799 LINE",
"478 481 LINE"
);
},
{
closed = 1;
nodes = (
"953 934 LINE",
"1777 135 LINE",
"1986 100 LINE",
"1986 0 LINE",
"1293 0 LINE",
"1293 100 LINE",
"1517 135 LINE",
"819 811 LINE"
);
}
);
width = 1954;
}
);
unicode = 004B;
changeCount = 1;
},
{
color = (82,173,105,1);
glyphname = L;
lastChange = "2019-05-04 15:51:20 +0000";
layers = (
{
layerId = "BD4CBFBD-470E-43A2-AFCF-3289E9F05BB1";
paths = (
{
closed = 1;
nodes = (
"130 100 LINE",
"378 134 LINE",
"380 754 LINE",
"378 1352 LINE",
"130 1385 LINE",
"130 1500 LINE",
"813 1500 LINE",
"813 1386 LINE",
"562 1352 LINE",
"560 754 LINE",
"562 139 LINE",
"592 115 LINE",
"1335 115 LINE",
"1421 418 LINE",
"1553 418 LINE",
"1502 0 LINE",
"130 0 LINE"
);
}
);
width = 1602;
}
);
unicode = 004C;
changeCount = 1;
},
{
color = (82,173,105,1);
glyphname = M;
lastChange = "2019-05-04 15:51:20 +0000";
layers = (
{
layerId = "BD4CBFBD-470E-43A2-AFCF-3289E9F05BB1";
paths = (
{
closed = 1;
nodes = (
"130 100 LINE",
"379 135 LINE",
"381 754 LINE",
"379 1352 LINE",
"130 1386 LINE",
"130 1500 LINE",
"648 1500 LINE",
"1010 810 LINE",
"1333 214 LINE",
"1665 803 LINE",
"2046 1500 LINE",
"2549 1500 LINE",
"2549 1386 LINE",
"2301 1352 LINE",
"2299 754 LINE",
"2301 135 LINE",
"2549 100 LINE",
"2549 0 LINE",
"1864 0 LINE",
"1864 100 LINE",
"2116 135 LINE",
"2118 754 LINE",
"2116 1333 LINE",
"1785 750 LINE",
"1376 -8 LINE",
"1242 -8 LINE",
"847 741 LINE",
"524 1334 LINE",
"522 754 LINE",
"524 135 LINE",
"756 100 LINE",
"756 0 LINE",
"130 0 LINE"
);
}
);
width = 2679;
}
);
unicode = 004D;
changeCount = 1;
},
{
color = (82,173,105,1);
glyphname = N;
lastChange = "2019-05-04 15:51:20 +0000";
layers = (
{
layerId = "BD4CBFBD-470E-43A2-AFCF-3289E9F05BB1";
paths = (
{
closed = 1;
nodes = (
"130 100 LINE",
"377 135 LINE",
"379 754 LINE",
"377 1352 LINE",
"130 1386 LINE",
"130 1500 LINE",
"595 1500 LINE",
"1204 838 LINE",
"1732 276 LINE",
"1734 754 LINE",
"1732 1352 LINE",
"1467 1386 LINE",
"1467 1500 LINE",
"2124 1500 LINE",
"2124 1386 LINE",
"1877 1352 LINE",
"1875 754 LINE",
"1871 0 LINE",
"1737 0 LINE",
"1069 737 LINE",
"522 1304 LINE",
"520 754 LINE",
"522 135 LINE",
"740 100 LINE",
"740 0 LINE",
"130 0 LINE"
);
}
);
width = 2224;
}
);
unicode = 004E;
changeCount = 1;
},
{
color = (63,206,255,1);
glyphname = O;
lastChange = "2019-05-04 15:51:20 +0000";
layers = (
{
layerId = "BD4CBFBD-470E-43A2-AFCF-3289E9F05BB1";
paths = (
{
closed = 1;
nodes = (
"96 1068 OFFCURVE",
"648 1520 OFFCURVE",
"1090 1520 QCURVE SMOOTH",
"1532 1520 OFFCURVE",
"2085 1097 OFFCURVE",
"2085 752 QCURVE SMOOTH",
"2085 423 OFFCURVE",
"1538 -31 OFFCURVE",
"1095 -31 QCURVE SMOOTH",
"664 -31 OFFCURVE",
"96 396 OFFCURVE",
"96 737 QCURVE SMOOTH"
);
},
{
closed = 1;
nodes = (
"287 478 OFFCURVE",
"733 101 OFFCURVE",
"1083 101 QCURVE SMOOTH",
"1464 101 OFFCURVE",
"1873 436 OFFCURVE",
"1873 745 QCURVE SMOOTH",
"1873 1020 OFFCURVE",
"1437 1380 OFFCURVE",
"1083 1380 QCURVE SMOOTH",
"701 1380 OFFCURVE",
"287 1053 OFFCURVE",
"287 771 QCURVE SMOOTH"
);
}
);
width = 2181;
}
);
unicode = 004F;
changeCount = 1;
},
{
color = (82,173,105,1);
glyphname = P;
lastChange = "2019-05-04 15:51:20 +0000";
layers = (
{
layerId = "BD4CBFBD-470E-43A2-AFCF-3289E9F05BB1";
paths = (
{
closed = 1;
nodes = (
"130 100 LINE",
"378 136 LINE",
"380 754 LINE",
"378 1352 LINE",
"130 1386 LINE",
"130 1500 LINE",
"1010 1500 LINE SMOOTH",
"1279 1500 OFFCURVE",
"1564 1284 OFFCURVE",
"1564 1072 QCURVE SMOOTH",
"1564 855 OFFCURVE",
"1240 592 OFFCURVE",
"920 592 QCURVE SMOOTH",
"811 592 OFFCURVE",
"521 613 OFFCURVE",
"474 621 QCURVE",
"483 734 LINE",
"542 721 OFFCURVE",
"810 712 OFFCURVE",
"912 712 QCURVE SMOOTH",
"1156 712 OFFCURVE",
"1399 899 OFFCURVE",
"1399 1072 QCURVE SMOOTH",
"1399 1227 OFFCURVE",
"1179 1370 OFFCURVE",
"989 1370 QCURVE SMOOTH",
"586 1370 LINE",
"559 1351 LINE",
"554 764 LINE",
"556 135 LINE",
"814 100 LINE",
"814 0 LINE",
"130 0 LINE"
);
}
);
width = 1659;
}
);
unicode = 0050;
changeCount = 1;
},
{
color = (82,173,105,1);
glyphname = Q;
lastChange = "2019-05-04 15:51:20 +0000";
layers = (
{
layerId = "BD4CBFBD-470E-43A2-AFCF-3289E9F05BB1";
paths = (
{
closed = 1;
nodes = (
"96 1068 OFFCURVE",
"648 1520 OFFCURVE",
"1090 1520 QCURVE SMOOTH",
"1532 1520 OFFCURVE",
"2085 1097 OFFCURVE",
"2085 752 QCURVE SMOOTH",
"2085 423 OFFCURVE",
"1538 -31 OFFCURVE",
"1095 -31 QCURVE SMOOTH",
"664 -31 OFFCURVE",
"96 396 OFFCURVE",
"96 737 QCURVE SMOOTH"
);
},
{
closed = 1;
nodes = (
"287 478 OFFCURVE",
"733 101 OFFCURVE",
"1083 101 QCURVE SMOOTH",
"1464 101 OFFCURVE",
"1873 436 OFFCURVE",
"1873 745 QCURVE SMOOTH",
"1873 1020 OFFCURVE",
"1437 1380 OFFCURVE",
"1083 1380 QCURVE SMOOTH",
"701 1380 OFFCURVE",
"287 1053 OFFCURVE",
"287 771 QCURVE SMOOTH"
);
},
{
closed = 1;
nodes = (
"317 -234 LINE",
"393 -148 OFFCURVE",
"591 -66 OFFCURVE",
"700 -60 QCURVE",
"920 352 LINE",
"1047 285 LINE",
"850 -87 LINE",
"1696 -274 LINE",
"1776 -274 OFFCURVE",
"1898 -186 OFFCURVE",
"1942 -132 QCURVE",
"2042 -194 LINE",
"1976 -298 OFFCURVE",
"1804 -429 OFFCURVE",
"1628 -429 QCURVE",
"699 -214 LINE",
"618 -214 OFFCURVE",
"463 -256 OFFCURVE",
"388 -308 QCURVE"
);
}
);
width = 2181;
}
);
unicode = 0051;
changeCount = 1;
},
{
color = (82,173,105,1);
glyphname = R;
lastChange = "2019-05-04 15:51:20 +0000";
layers = (
{
layerId = "BD4CBFBD-470E-43A2-AFCF-3289E9F05BB1";
paths = (
{
closed = 1;
nodes = (
"130 100 LINE",
"378 136 LINE",
"380 794 LINE",
"378 1352 LINE",
"130 1386 LINE",
"130 1500 LINE",
"1073 1500 LINE SMOOTH",
"1295 1500 OFFCURVE",
"1539 1288 OFFCURVE",
"1539 1119 QCURVE SMOOTH",
"1539 936 OFFCURVE",
"1279 696 OFFCURVE",
"1111 696 QCURVE SMOOTH",
"1043 696 OFFCURVE",
"525 705 OFFCURVE",
"468 710 QCURVE",
"468 815 LINE",
"1044 815 LINE SMOOTH",
"1200 815 OFFCURVE",
"1342 985 OFFCURVE",
"1342 1117 QCURVE SMOOTH",
"1342 1233 OFFCURVE",
"1209 1370 OFFCURVE",
"1062 1370 QCURVE SMOOTH",
"586 1370 LINE",
"559 1351 LINE",
"554 764 LINE",
"556 136 LINE",
"814 100 LINE",
"814 0 LINE",
"130 0 LINE"
);
},
{
closed = 1;
nodes = (
"1159 785 LINE",
"1487 315 LINE SMOOTH",
"1584 175 OFFCURVE",
"1697 101 OFFCURVE",
"1804 100 QCURVE",
"1804 0 LINE",
"1509 0 LINE",
"1480 20 LINE",
"979 746 LINE"
);
}
);
width = 1781;
}
);
unicode = 0052;
changeCount = 1;
},
{
color = (82,173,105,1);
glyphname = S;
lastChange = "2019-05-04 15:51:20 +0000";
layers = (
{
layerId = "BD4CBFBD-470E-43A2-AFCF-3289E9F05BB1";
paths = (
{
closed = 1;
nodes = (
"113 484 LINE",
"245 484 LINE",
"273 379 LINE SMOOTH",
"312 234 OFFCURVE",
"642 102 OFFCURVE",
"842 102 QCURVE SMOOTH",
"1084 102 OFFCURVE",
"1317 259 OFFCURVE",
"1317 385 QCURVE SMOOTH",
"1317 511 OFFCURVE",
"1121 645 OFFCURVE",
"735 725 QCURVE SMOOTH",
"441 786 OFFCURVE",
"180 975 OFFCURVE",
"180 1154 QCURVE SMOOTH",
"180 1317 OFFCURVE",
"497 1520 OFFCURVE",
"774 1520 QCURVE SMOOTH",
"922 1520 OFFCURVE",
"1127 1460 OFFCURVE",
"1199 1421 QCURVE",
"1228 1487 LINE",
"1344 1487 LINE",
"1344 1051 LINE",
"1214 1051 LINE",
"1180 1203 LINE SMOOTH",
"1161 1289 OFFCURVE",
"934 1386 OFFCURVE",
"770 1386 QCURVE SMOOTH",
"566 1386 OFFCURVE",
"354 1270 OFFCURVE",
"354 1172 QCURVE SMOOTH",
"354 1064 OFFCURVE",
"528 955 OFFCURVE",
"877 877 QCURVE SMOOTH",
"1213 802 OFFCURVE",
"1495 602 OFFCURVE",
"1495 418 QCURVE SMOOTH",
"1495 225 OFFCURVE",
"1150 -27 OFFCURVE",
"842 -27 QCURVE SMOOTH",
"661 -27 OFFCURVE",
"377 54 OFFCURVE",
"294 113 QCURVE",
"229 0 LINE",
"113 0 LINE"
);
}
);
width = 1583;
}
);
unicode = 0053;
changeCount = 1;
},
{
color = (82,173,105,1);
glyphname = T;
lastChange = "2019-05-04 15:51:20 +0000";
layers = (
{
layerId = "BD4CBFBD-470E-43A2-AFCF-3289E9F05BB1";
paths = (
{
closed = 1;
nodes = (
"80 1500 LINE",
"1728 1500 LINE",
"1728 1052 LINE",
"1598 1052 LINE",
"1563 1382 LINE",
"1013 1382 LINE",
"994 1362 LINE",
"992 754 LINE",
"994 136 LINE",
"1253 100 LINE",
"1253 0 LINE",
"555 0 LINE",
"555 100 LINE",
"814 136 LINE",
"816 754 LINE",
"814 1362 LINE",
"799 1382 LINE",
"245 1382 LINE",
"210 1052 LINE",
"80 1052 LINE"
);
}
);
width = 1808;
}
);
unicode = 0054;
changeCount = 1;
},
{
color = (82,173,105,1);
glyphname = U;
lastChange = "2019-05-04 15:51:20 +0000";
layers = (
{
layerId = "BD4CBFBD-470E-43A2-AFCF-3289E9F05BB1";
paths = (
{
closed = 1;
nodes = (
"100 1500 LINE",
"776 1500 LINE",
"776 1386 LINE",
"534 1352 LINE",
"529 864 LINE",
"533 574 LINE SMOOTH",
"536 373 OFFCURVE",
"778 114 OFFCURVE",
"1118 114 QCURVE SMOOTH",
"1459 114 OFFCURVE",
"1721 370 OFFCURVE",
"1723 594 QCURVE SMOOTH",
"1725 864 LINE",
"1723 1352 LINE",
"1465 1386 LINE",
"1465 1500 LINE",
"2106 1500 LINE",
"2106 1386 LINE",
"1868 1352 LINE",
"1866 864 LINE",
"1869 593 LINE SMOOTH",
"1872 332 OFFCURVE",
"1528 -31 OFFCURVE",
"1109 -31 QCURVE SMOOTH",
"690 -31 OFFCURVE",
"346 313 OFFCURVE",
"348 581 QCURVE SMOOTH",
"350 864 LINE",
"348 1352 LINE",
"100 1386 LINE"
);
}
);
width = 2206;
}
);
unicode = 0055;
changeCount = 1;
},
{
color = (82,173,105,1);
glyphname = V;
lastChange = "2019-05-04 15:51:20 +0000";
layers = (
{
layerId = "BD4CBFBD-470E-43A2-AFCF-3289E9F05BB1";
paths = (
{
closed = 1;
nodes = (
"22 1500 LINE",
"649 1500 LINE",
"649 1384 LINE",
"443 1350 LINE",
"707 859 LINE",
"1071 205 LINE",
"1391 829 LINE",
"1645 1350 LINE",
"1432 1384 LINE",
"1430 1500 LINE",
"2037 1500 LINE",
"2038 1384 LINE",
"1820 1350 LINE",
"1527 792 LINE",
"1108 -8 LINE",
"986 -8 LINE",
"546 788 LINE",
"230 1350 LINE",
"22 1384 LINE"
);
}
);
width = 2058;
}
);
unicode = 0056;
changeCount = 1;
},
{
color = (82,173,105,1);
glyphname = W;
lastChange = "2019-05-04 15:51:20 +0000";
layers = (
{
layerId = "BD4CBFBD-470E-43A2-AFCF-3289E9F05BB1";
paths = (
{
closed = 1;
nodes = (
"20 1500 LINE",
"704 1500 LINE",
"704 1386 LINE",
"452 1352 LINE",
"708 801 LINE",
"986 228 LINE",
"1178 673 LINE",
"1386 1169 LINE",
"1463 1004 LINE",
"1300 624 LINE",
"1031 -8 LINE",
"904 -8 LINE",
"546 740 LINE",
"248 1352 LINE",
"20 1386 LINE"
);
},
{
closed = 1;
nodes = (
"986 1500 LINE",
"1641 1500 LINE",
"1641 1386 LINE",
"1412 1353 LINE",
"1659 794 LINE",
"1925 232 LINE",
"2164 803 LINE",
"2381 1352 LINE",
"2128 1386 LINE",
"2128 1500 LINE",
"2805 1500 LINE",
"2805 1386 LINE",
"2554 1352 LINE",
"2294 760 LINE",
"1968 -8 LINE",
"1834 -8 LINE",
"1498 735 LINE",
"1215 1352 LINE",
"986 1386 LINE"
);
}
);
width = 2825;
}
);
unicode = 0057;
changeCount = 1;
},
{
color = (82,173,105,1);
glyphname = X;
lastChange = "2019-05-04 15:51:20 +0000";
layers = (
{
layerId = "BD4CBFBD-470E-43A2-AFCF-3289E9F05BB1";
paths = (
{
closed = 1;
nodes = (
"0 100 LINE",
"245 135 LINE",
"935 843 LINE",
"949 843 LINE",
"1418 1360 LINE",
"1180 1386 LINE",
"1180 1500 LINE",
"1868 1500 LINE",
"1868 1386 LINE",
"1619 1355 LINE",
"1035 744 LINE",
"1021 744 LINE",
"451 135 LINE",
"694 100 LINE",
"694 0 LINE",
"0 0 LINE"
);
},
{
closed = 1;
nodes = (
"100 1500 LINE",
"828 1500 LINE",
"828 1386 LINE",
"575 1353 LINE",
"1041 851 LINE",
"1723 135 LINE",
"1968 100 LINE",
"1968 0 LINE",
"1207 0 LINE",
"1207 100 LINE",
"1469 135 LINE",
"903 743 LINE",
"331 1355 LINE",
"100 1386 LINE"
);
}
);
width = 1968;
}
);
unicode = 0058;
changeCount = 1;
},
{
color = (82,173,105,1);
glyphname = Y;
lastChange = "2019-05-04 15:51:20 +0000";
layers = (
{
layerId = "BD4CBFBD-470E-43A2-AFCF-3289E9F05BB1";
paths = (
{
closed = 1;
nodes = (
"20 1500 LINE",
"672 1500 LINE",
"672 1386 LINE",
"461 1357 LINE",
"701 1057 LINE",
"955 756 LINE",
"1221 1078 LINE",
"1434 1358 LINE",
"1217 1386 LINE",
"1217 1500 LINE",
"1826 1500 LINE",
"1826 1386 LINE",
"1618 1359 LINE",
"1322 1011 LINE",
"1013 632 LINE",
"1015 135 LINE",
"1233 100 LINE",
"1233 0 LINE",
"614 0 LINE",
"614 100 LINE",
"835 135 LINE",
"837 627 LINE",
"546 976 LINE",
"222 1360 LINE",
"20 1386 LINE"
);
}
);
width = 1846;
}
);
unicode = 0059;
changeCount = 1;
},
{
color = (82,173,105,1);
glyphname = Z;
lastChange = "2019-05-04 15:51:20 +0000";
layers = (
{
layerId = "BD4CBFBD-470E-43A2-AFCF-3289E9F05BB1";
paths = (
{
closed = 1;
nodes = (
"73 84 LINE",
"1312 1374 LINE",
"1303 1382 LINE",
"309 1382 LINE",
"245 1058 LINE",
"130 1058 LINE",
"130 1500 LINE",
"1581 1500 LINE",
"1581 1409 LINE",
"344 121 LINE",
"352 115 LINE",
"1414 115 LINE",
"1504 398 LINE",
"1630 398 LINE",
"1587 0 LINE",
"100 0 LINE"
);
}
);
width = 1697;
}
);
unicode = 005A;
changeCount = 1;
},
{
color = (82,173,105,1);
glyphname = a;
lastChange = "2019-05-04 15:51:20 +0000";
layers = (
{
layerId = "BD4CBFBD-470E-43A2-AFCF-3289E9F05BB1";
paths = (
{
closed = 1;
nodes = (
"157 403 OFFCURVE",
"636 586 OFFCURVE",
"1146 621 QCURVE",
"1159 531 LINE",
"855 502 OFFCURVE",
"346 383 OFFCURVE",
"349 256 QCURVE SMOOTH",
"351 168 OFFCURVE",
"507 106 OFFCURVE",
"589 106 QCURVE SMOOTH",
"764 106 OFFCURVE",
"1054 200 OFFCURVE",
"1111 251 QCURVE",
"1114 617 LINE SMOOTH",
"1115 794 OFFCURVE",
"895 910 OFFCURVE",
"762 910 QCURVE SMOOTH",
"636 910 OFFCURVE",
"465 868 OFFCURVE",
"420 836 QCURVE",
"448 819 OFFCURVE",
"467 777 OFFCURVE",
"467 751 QCURVE SMOOTH",
"467 710 OFFCURVE",
"409 657 OFFCURVE",
"357 657 QCURVE SMOOTH",
"306 657 OFFCURVE",
"244 715 OFFCURVE",
"244 780 QCURVE SMOOTH",
"244 877 OFFCURVE",
"528 1027 OFFCURVE",
"777 1027 QCURVE SMOOTH",
"1021 1027 OFFCURVE",
"1282 836 OFFCURVE",
"1282 607 QCURVE SMOOTH",
"1282 119 LINE",
"1494 84 LINE",
"1494 0 LINE",
"1202 0 LINE",
"1130 60 LINE",
"1111 149 LINE",
"1046 84 OFFCURVE",
"746 -16 OFFCURVE",
"595 -16 QCURVE SMOOTH",
"359 -16 OFFCURVE",
"157 119 OFFCURVE",
"157 247 QCURVE SMOOTH"
);
}
);
width = 1576;
}
);
unicode = 0061;
changeCount = 1;
},
{
color = (82,173,105,1);
glyphname = b;
lastChange = "2019-05-04 15:51:20 +0000";
layers = (
{
layerId = "BD4CBFBD-470E-43A2-AFCF-3289E9F05BB1";
paths = (
{
closed = 1;
nodes = (
"289 427 LINE",
"284 1376 LINE",
"83 1406 LINE",
"83 1500 LINE",
"399 1534 LINE",
"431 1534 LINE",
"461 1500 LINE",
"459 848 LINE",
"535 925 OFFCURVE",
"794 1020 OFFCURVE",
"992 1020 QCURVE SMOOTH",
"1250 1020 OFFCURVE",
"1605 737 OFFCURVE",
"1605 526 QCURVE",
"1605 299 OFFCURVE",
"1232 -26 OFFCURVE",
"917 -26 QCURVE SMOOTH",
"763 -26 OFFCURVE",
"523 53 OFFCURVE",
"455 97 QCURVE",
"350 0 LINE",
"284 0 LINE"
);
},
{
closed = 1;
nodes = (
"455 259 LINE",
"512 194 OFFCURVE",
"761 91 OFFCURVE",
"929 91 QCURVE SMOOTH",
"1158 91 OFFCURVE",
"1421 327 OFFCURVE",
"1421 508 QCURVE SMOOTH",
"1421 674 OFFCURVE",
"1159 897 OFFCURVE",
"938 897 QCURVE SMOOTH",
"772 897 OFFCURVE",
"530 789 OFFCURVE",
"457 716 QCURVE",
"453 430 LINE"
);
}
);
width = 1696;
}
);
unicode = 0062;
changeCount = 1;
},
{
color = (82,173,105,1);
glyphname = c;
lastChange = "2019-05-04 15:51:20 +0000";
layers = (
{
layerId = "BD4CBFBD-470E-43A2-AFCF-3289E9F05BB1";
paths = (
{
closed = 1;
nodes = (
"91 708 OFFCURVE",
"471 1027 OFFCURVE",
"773 1027 QCURVE SMOOTH",
"918 1027 OFFCURVE",
"1137 981 OFFCURVE",
"1179 957 QCURVE",
"1227 1019 LINE",
"1320 990 LINE",
"1343 664 LINE",
"1236 647 LINE",
"1209 715 LINE SMOOTH",
"1172 808 OFFCURVE",
"954 916 OFFCURVE",
"774 916 QCURVE SMOOTH",
"555 916 OFFCURVE",
"268 705 OFFCURVE",
"268 511 QCURVE SMOOTH",
"268 329 OFFCURVE",
"542 90 OFFCURVE",
"793 90 QCURVE SMOOTH",
"968 90 OFFCURVE",
"1265 179 OFFCURVE",
"1342 240 QCURVE",
"1394 160 LINE",
"1321 86 OFFCURVE",
"985 -30 OFFCURVE",
"765 -30 QCURVE SMOOTH",
"473 -30 OFFCURVE",
"91 260 OFFCURVE",
"91 497 QCURVE SMOOTH"
);
}
);
width = 1455;
}
);
unicode = 0063;
changeCount = 1;
},
{
color = (82,173,105,1);
glyphname = d;
lastChange = "2019-05-04 15:51:20 +0000";
layers = (
{
layerId = "BD4CBFBD-470E-43A2-AFCF-3289E9F05BB1";
paths = (
{
closed = 1;
nodes = (
"90 722 OFFCURVE",
"467 1020 OFFCURVE",
"803 1020 QCURVE SMOOTH",
"915 1020 OFFCURVE",
"1165 975 OFFCURVE",
"1234 939 QCURVE",
"1231 1376 LINE",
"997 1406 LINE",
"997 1500 LINE",
"1337 1534 LINE",
"1380 1534 LINE",
"1410 1500 LINE",
"1405 538 LINE",
"1408 119 LINE",
"1627 84 LINE",
"1627 0 LINE",
"1285 0 LINE",
"1246 50 LINE",
"1233 149 LINE",
"1166 86 OFFCURVE",
"882 -19 OFFCURVE",
"710 -19 QCURVE SMOOTH",
"434 -19 OFFCURVE",
"90 254 OFFCURVE",
"90 478 QCURVE SMOOTH"
);
},
{
closed = 1;
nodes = (
"268 310 OFFCURVE",
"518 102 OFFCURVE",
"732 102 QCURVE SMOOTH",
"919 102 OFFCURVE",
"1175 202 OFFCURVE",
"1231 262 QCURVE",
"1237 524 LINE",
"1237 795 LINE",
"1181 850 OFFCURVE",
"930 917 OFFCURVE",
"800 917 QCURVE SMOOTH",
"538 917 OFFCURVE",
"268 668 OFFCURVE",
"268 493 QCURVE SMOOTH"
);
}
);
width = 1709;
}
);
unicode = 0064;
changeCount = 1;
},
{
color = (82,173,105,1);
glyphname = e;
lastChange = "2019-05-04 15:51:20 +0000";
layers = (
{
layerId = "BD4CBFBD-470E-43A2-AFCF-3289E9F05BB1";
paths = (
{
closed = 1;
nodes = (
"91 717 OFFCURVE",
"477 1030 OFFCURVE",
"760 1030 QCURVE SMOOTH",
"1007 1030 OFFCURVE",
"1364 793 OFFCURVE",
"1392 588 QCURVE",
"1392 528 LINE",
"224 528 LINE",
"224 624 LINE",
"1207 624 LINE",
"1182 763 OFFCURVE",
"906 916 OFFCURVE",
"749 916 QCURVE SMOOTH",
"556 916 OFFCURVE",
"262 700 OFFCURVE",
"263 520 QCURVE SMOOTH",
"265 319 OFFCURVE",
"546 91 OFFCURVE",
"774 91 QCURVE SMOOTH",
"954 91 OFFCURVE",
"1206 154 OFFCURVE",
"1292 208 QCURVE",
"1340 128 LINE",
"1274 65 OFFCURVE",
"945 -30 OFFCURVE",
"762 -30 QCURVE SMOOTH",
"476 -30 OFFCURVE",
"91 249 OFFCURVE",
"91 500 QCURVE SMOOTH"
);
}
);
width = 1470;
}
);
unicode = 0065;
changeCount = 1;
},
{
color = (82,173,105,1);
glyphname = f;
lastChange = "2019-05-04 15:51:20 +0000";
layers = (
{
layerId = "BD4CBFBD-470E-43A2-AFCF-3289E9F05BB1";
paths = (
{
closed = 1;
nodes = (
"160 84 LINE",
"357 119 LINE",
"364 527 LINE",
"361 868 LINE",
"143 873 LINE",
"143 966 LINE",
"363 984 LINE",
"367 1204 LINE SMOOTH",
"370 1354 OFFCURVE",
"557 1518 OFFCURVE",
"700 1518 QCURVE SMOOTH",
"761 1518 OFFCURVE",
"871 1493 OFFCURVE",
"899 1481 QCURVE SMOOTH",
"929 1468 LINE",
"913 1352 LINE",
"884 1363 LINE SMOOTH",
"849 1376 OFFCURVE",
"772 1391 OFFCURVE",
"734 1391 QCURVE SMOOTH",
"630 1391 OFFCURVE",
"522 1291 OFFCURVE",
"523 1179 QCURVE SMOOTH",
"525 985 LINE",
"862 985 LINE",
"862 874 LINE",
"525 874 LINE",
"527 527 LINE",
"536 119 LINE",
"764 84 LINE",
"764 0 LINE",
"160 0 LINE"
);
}
);
width = 922;
}
);
unicode = 0066;
changeCount = 1;
},
{
color = (82,173,105,1);
glyphname = g;
lastChange = "2019-05-04 15:51:20 +0000";
layers = (
{
layerId = "BD4CBFBD-470E-43A2-AFCF-3289E9F05BB1";
paths = (
{
closed = 1;
nodes = (
"88 -179 OFFCURVE",
"239 -61 OFFCURVE",
"347 -37 QCURVE",
"466 -74 LINE",
"379 -97 OFFCURVE",
"277 -178 OFFCURVE",
"277 -237 QCURVE SMOOTH",
"277 -321 OFFCURVE",
"543 -413 OFFCURVE",
"834 -413 QCURVE SMOOTH",
"1056 -413 OFFCURVE",
"1349 -309 OFFCURVE",
"1349 -233 QCURVE SMOOTH",
"1349 -160 OFFCURVE",
"1162 -106 OFFCURVE",
"857 -104 QCURVE SMOOTH",
"542 -102 OFFCURVE",
"200 -23 OFFCURVE",
"200 106 QCURVE SMOOTH",
"200 168 OFFCURVE",
"354 296 OFFCURVE",
"484 345 QCURVE",
"551 282 LINE",
"458 256 OFFCURVE",
"352 183 OFFCURVE",
"352 144 QCURVE SMOOTH",
"352 90 OFFCURVE",
"538 44 OFFCURVE",
"864 44 QCURVE SMOOTH",
"1250 44 OFFCURVE",
"1522 -69 OFFCURVE",
"1522 -189 QCURVE SMOOTH",
"1522 -330 OFFCURVE",
"1171 -518 OFFCURVE",
"791 -518 QCURVE SMOOTH",
"428 -518 OFFCURVE",
"88 -378 OFFCURVE",
"88 -264 QCURVE SMOOTH"
);
},
{
closed = 1;
nodes = (
"203 800 OFFCURVE",
"519 1022 OFFCURVE",
"775 1022 QCURVE SMOOTH",
"1033 1022 OFFCURVE",
"1352 816 OFFCURVE",
"1352 634 QCURVE SMOOTH",
"1352 463 OFFCURVE",
"1032 222 OFFCURVE",
"777 222 QCURVE SMOOTH",
"520 222 OFFCURVE",
"203 444 OFFCURVE",
"203 629 QCURVE SMOOTH"
);
},
{
closed = 1;
nodes = (
"378 474 OFFCURVE",
"593 328 OFFCURVE",
"775 328 QCURVE SMOOTH",
"934 328 OFFCURVE",
"1177 471 OFFCURVE",
"1177 628 QCURVE SMOOTH",
"1177 757 OFFCURVE",
"949 914 OFFCURVE",
"778 914 QCURVE SMOOTH",
"600 914 OFFCURVE",
"378 763 OFFCURVE",
"378 629 QCURVE SMOOTH"
);
},
{
closed = 1;
nodes = (
"908 1000 LINE",
"1557 1000 LINE",
"1557 865 LINE",
"929 925 LINE"
);
}
);
width = 1595;
}
);
unicode = 0067;
changeCount = 1;
},
{
color = (82,173,105,1);
glyphname = h;
lastChange = "2019-05-04 15:51:20 +0000";
layers = (
{
layerId = "BD4CBFBD-470E-43A2-AFCF-3289E9F05BB1";
paths = (
{
closed = 1;
nodes = (
"120 84 LINE",
"318 119 LINE",
"320 527 LINE",
"318 1376 LINE",
"123 1406 LINE",
"123 1500 LINE",
"429 1534 LINE",
"461 1534 LINE",
"491 1500 LINE",
"491 784 LINE",
"582 877 OFFCURVE",
"882 1021 OFFCURVE",
"1044 1021 QCURVE SMOOTH",
"1291 1021 OFFCURVE",
"1536 834 OFFCURVE",
"1536 670 QCURVE SMOOTH",
"1536 618 OFFCURVE",
"1532 559 OFFCURVE",
"1532 527 QCURVE SMOOTH",
"1532 119 LINE",
"1740 84 LINE",
"1740 0 LINE",
"1141 0 LINE",
"1141 84 LINE",
"1359 119 LINE",
"1363 527 LINE",
"1363 620 LINE SMOOTH",
"1363 752 OFFCURVE",
"1194 877 OFFCURVE",
"1013 877 QCURVE SMOOTH",
"853 877 OFFCURVE",
"572 734 OFFCURVE",
"491 649 QCURVE",
"491 527 LINE",
"493 119 LINE",
"691 84 LINE",
"691 0 LINE",
"120 0 LINE"
);
}
);
width = 1826;
}
);
unicode = 0068;
changeCount = 1;
},
{
color = (82,173,105,1);
glyphname = i;
lastChange = "2019-05-04 15:51:20 +0000";
layers = (
{
layerId = "BD4CBFBD-470E-43A2-AFCF-3289E9F05BB1";
paths = (
{
closed = 1;
nodes = (
"131 84 LINE",
"329 119 LINE",
"331 527 LINE",
"324 842 LINE",
"126 872 LINE",
"126 966 LINE",
"434 1000 LINE",
"481 1000 LINE",
"504 961 LINE",
"497 527 LINE",
"499 119 LINE",
"697 84 LINE",
"697 0 LINE",
"131 0 LINE"
);
},
{
closed = 1;
nodes = (
"263 1396 OFFCURVE",
"328 1460 OFFCURVE",
"389 1460 QCURVE SMOOTH",
"446 1460 OFFCURVE",
"515 1392 OFFCURVE",
"515 1337 QCURVE SMOOTH",
"515 1278 OFFCURVE",
"450 1214 OFFCURVE",
"389 1214 QCURVE SMOOTH",
"332 1214 OFFCURVE",
"263 1282 OFFCURVE",
"263 1337 QCURVE SMOOTH"
);
}
);
width = 780;
}
);
unicode = 0069;
changeCount = 1;
},
{
color = (82,173,105,1);
glyphname = j;
lastChange = "2019-05-04 15:51:20 +0000";
layers = (
{
layerId = "BD4CBFBD-470E-43A2-AFCF-3289E9F05BB1";
paths = (
{
closed = 1;
nodes = (
"69 -343 LINE",
"228 -340 OFFCURVE",
"332 -254 OFFCURVE",
"332 -132 QCURVE SMOOTH",
"330 527 LINE",
"324 842 LINE",
"126 872 LINE",
"126 966 LINE",
"434 1000 LINE",
"481 1000 LINE",
"504 961 LINE",
"498 527 LINE",
"500 -114 LINE SMOOTH",
"501 -293 OFFCURVE",
"309 -482 OFFCURVE",
"69 -471 QCURVE"
);
},
{
closed = 1;
nodes = (
"263 1396 OFFCURVE",
"328 1460 OFFCURVE",
"389 1460 QCURVE SMOOTH",
"446 1460 OFFCURVE",
"515 1392 OFFCURVE",
"515 1337 QCURVE SMOOTH",
"515 1278 OFFCURVE",
"450 1214 OFFCURVE",
"389 1214 QCURVE SMOOTH",
"332 1214 OFFCURVE",
"263 1282 OFFCURVE",
"263 1337 QCURVE SMOOTH"
);
}
);
width = 782;
}
);
unicode = 006A;
changeCount = 1;
},
{
color = (82,173,105,1);
glyphname = k;
lastChange = "2019-05-04 15:51:20 +0000";
layers = (
{
layerId = "BD4CBFBD-470E-43A2-AFCF-3289E9F05BB1";
paths = (
{
closed = 1;
nodes = (
"120 84 LINE",
"318 119 LINE",
"320 527 LINE",
"318 1376 LINE",
"123 1406 LINE",
"123 1500 LINE",
"429 1534 LINE",
"461 1534 LINE",
"491 1500 LINE",
"491 527 LINE",
"493 119 LINE",
"691 84 LINE",
"691 0 LINE",
"120 0 LINE"
);
},
{
closed = 1;
nodes = (
"447 529 LINE",
"1018 880 LINE",
"871 910 LINE",
"871 1000 LINE",
"1427 1000 LINE",
"1427 910 LINE",
"1219 875 LINE",
"455 420 LINE"
);
},
{
closed = 1;
nodes = (
"788 678 LINE",
"1354 119 LINE",
"1522 84 LINE",
"1522 0 LINE",
"1113 0 LINE",
"1101 79 LINE",
"1130 111 LINE",
"652 589 LINE"
);
}
);
width = 1530;
}
);
unicode = 006B;
changeCount = 1;
},
{
color = (82,173,105,1);
glyphname = l;
lastChange = "2019-05-04 15:51:20 +0000";
layers = (
{
layerId = "BD4CBFBD-470E-43A2-AFCF-3289E9F05BB1";
paths = (
{
closed = 1;
nodes = (
"123 84 LINE",
"325 119 LINE",
"327 527 LINE",
"325 1376 LINE",
"99 1406 LINE",
"99 1500 LINE",
"435 1534 LINE",
"467 1534 LINE",
"495 1502 LINE",
"493 527 LINE",
"495 119 LINE",
"693 84 LINE",
"693 0 LINE",
"123 0 LINE"
);
}
);
width = 780;
}
);
unicode = 006C;
changeCount = 1;
},
{
color = (82,173,105,1);
glyphname = m;
lastChange = "2019-05-04 15:51:20 +0000";
layers = (
{
layerId = "BD4CBFBD-470E-43A2-AFCF-3289E9F05BB1";
paths = (
{
closed = 1;
nodes = (
"120 84 LINE",
"318 119 LINE",
"320 527 LINE",
"318 842 LINE",
"110 872 LINE",
"110 968 LINE",
"428 1000 LINE",
"468 973 LINE",
"493 784 LINE",
"604 893 OFFCURVE",
"872 1021 OFFCURVE",
"1024 1021 QCURVE SMOOTH",
"1220 1021 OFFCURVE",
"1442 891 OFFCURVE",
"1473 775 QCURVE",
"1591 896 OFFCURVE",
"1865 1021 OFFCURVE",
"2014 1021 QCURVE SMOOTH",
"2251 1021 OFFCURVE",
"2476 834 OFFCURVE",
"2476 670 QCURVE SMOOTH",
"2476 618 OFFCURVE",
"2471 559 OFFCURVE",
"2472 527 QCURVE SMOOTH",
"2472 119 LINE",
"2720 84 LINE",
"2720 0 LINE",
"2081 0 LINE",
"2081 84 LINE",
"2299 119 LINE",
"2303 527 LINE",
"2303 620 LINE SMOOTH",
"2303 752 OFFCURVE",
"2154 877 OFFCURVE",
"1973 877 QCURVE SMOOTH",
"1825 877 OFFCURVE",
"1567 738 OFFCURVE",
"1486 654 QCURVE",
"1485 610 OFFCURVE",
"1481 556 OFFCURVE",
"1482 527 QCURVE SMOOTH",
"1482 119 LINE",
"1730 84 LINE",
"1730 0 LINE",
"1091 0 LINE",
"1091 84 LINE",
"1309 119 LINE",
"1313 527 LINE",
"1313 620 LINE SMOOTH",
"1313 752 OFFCURVE",
"1164 877 OFFCURVE",
"983 877 QCURVE SMOOTH",
"833 877 OFFCURVE",
"572 734 OFFCURVE",
"491 649 QCURVE",
"491 527 LINE",
"493 119 LINE",
"691 84 LINE",
"691 0 LINE",
"120 0 LINE"
);
}
);
width = 2806;
}
);
unicode = 006D;
changeCount = 1;
},
{
color = (63,206,255,1);
glyphname = n;
lastChange = "2019-05-04 15:51:20 +0000";
layers = (
{
layerId = "BD4CBFBD-470E-43A2-AFCF-3289E9F05BB1";
paths = (
{
closed = 1;
nodes = (
"120 84 LINE",
"318 119 LINE",
"320 527 LINE",
"318 842 LINE",
"110 872 LINE",
"110 968 LINE",
"428 1000 LINE",
"468 973 LINE",
"493 784 LINE",
"584 877 OFFCURVE",
"882 1021 OFFCURVE",
"1044 1021 QCURVE SMOOTH",
"1291 1021 OFFCURVE",
"1536 834 OFFCURVE",
"1536 670 QCURVE SMOOTH",
"1536 618 OFFCURVE",
"1532 559 OFFCURVE",
"1532 527 QCURVE SMOOTH",
"1532 119 LINE",
"1740 84 LINE",
"1740 0 LINE",
"1141 0 LINE",
"1141 84 LINE",
"1359 119 LINE",
"1363 527 LINE",
"1363 620 LINE SMOOTH",
"1363 752 OFFCURVE",
"1194 877 OFFCURVE",
"1013 877 QCURVE SMOOTH",
"853 877 OFFCURVE",
"572 734 OFFCURVE",
"491 649 QCURVE",
"491 527 LINE",
"493 119 LINE",
"691 84 LINE",
"691 0 LINE",
"120 0 LINE"
);
}
);
width = 1826;
}
);
unicode = 006E;
changeCount = 1;
},
{
color = (63,206,255,1);
glyphname = o;
lastChange = "2019-05-04 15:51:20 +0000";
layers = (
{
layerId = "BD4CBFBD-470E-43A2-AFCF-3289E9F05BB1";
paths = (
{
closed = 1;
nodes = (
"90 717 OFFCURVE",
"490 1031 OFFCURVE",
"798 1031 QCURVE SMOOTH",
"1108 1031 OFFCURVE",
"1512 737 OFFCURVE",
"1512 506 QCURVE SMOOTH",
"1512 290 OFFCURVE",
"1115 -31 OFFCURVE",
"806 -31 QCURVE SMOOTH",
"497 -31 OFFCURVE",
"90 267 OFFCURVE",
"90 500 QCURVE SMOOTH"
);
},
{
closed = 1;
nodes = (
"269 339 OFFCURVE",
"561 78 OFFCURVE",
"797 78 QCURVE SMOOTH",
"1050 78 OFFCURVE",
"1329 317 OFFCURVE",
"1329 506 QCURVE SMOOTH",
"1329 680 OFFCURVE",
"1037 916 OFFCURVE",
"800 916 QCURVE SMOOTH",
"544 916 OFFCURVE",
"266 700 OFFCURVE",
"267 520 QCURVE SMOOTH"
);
}
);
width = 1602;
}
);
unicode = 006F;
changeCount = 1;
},
{
color = (63,206,255,1);
glyphname = p;
lastChange = "2019-05-04 15:51:20 +0000";
layers = (
{
layerId = "BD4CBFBD-470E-43A2-AFCF-3289E9F05BB1";
paths = (
{
closed = 1;
nodes = (
"114 -400 LINE",
"317 -365 LINE",
"319 427 LINE",
"317 842 LINE",
"109 872 LINE",
"109 966 LINE",
"420 1000 LINE",
"455 973 LINE",
"481 841 LINE",
"557 918 OFFCURVE",
"824 1020 OFFCURVE",
"1022 1020 QCURVE SMOOTH",
"1280 1020 OFFCURVE",
"1635 737 OFFCURVE",
"1635 526 QCURVE",
"1635 299 OFFCURVE",
"1262 -26 OFFCURVE",
"947 -26 QCURVE SMOOTH",
"793 -26 OFFCURVE",
"553 53 OFFCURVE",
"485 97 QCURVE",
"487 -365 LINE",
"719 -400 LINE",
"719 -480 LINE",
"114 -480 LINE"
);
},
{
closed = 1;
nodes = (
"542 194 OFFCURVE",
"791 91 OFFCURVE",
"959 91 QCURVE SMOOTH",
"1188 91 OFFCURVE",
"1451 327 OFFCURVE",
"1451 508 QCURVE SMOOTH",
"1451 674 OFFCURVE",
"1189 897 OFFCURVE",
"968 897 QCURVE SMOOTH",
"802 897 OFFCURVE",
"560 789 OFFCURVE",
"487 716 QCURVE",
"483 430 LINE",
"485 259 LINE"
);
}
);
width = 1726;
}
);
unicode = 0070;
changeCount = 1;
},
{
color = (82,173,105,1);
glyphname = q;
lastChange = "2019-05-04 15:51:20 +0000";
layers = (
{
layerId = "BD4CBFBD-470E-43A2-AFCF-3289E9F05BB1";
paths = (
{
closed = 1;
nodes = (
"90 722 OFFCURVE",
"467 1020 OFFCURVE",
"803 1020 QCURVE SMOOTH",
"937 1020 OFFCURVE",
"1181 969 OFFCURVE",
"1256 933 QCURVE",
"1336 1010 LINE",
"1614 975 LINE",
"1614 882 LINE",
"1405 848 LINE",
"1397 428 LINE",
"1399 -365 LINE",
"1602 -400 LINE",
"1602 -480 LINE",
"993 -480 LINE",
"993 -400 LINE",
"1228 -365 LINE",
"1233 149 LINE",
"1166 86 OFFCURVE",
"882 -19 OFFCURVE",
"710 -19 QCURVE SMOOTH",
"434 -19 OFFCURVE",
"90 254 OFFCURVE",
"90 478 QCURVE SMOOTH"
);
},
{
closed = 1;
nodes = (
"268 310 OFFCURVE",
"518 102 OFFCURVE",
"732 102 QCURVE SMOOTH",
"919 102 OFFCURVE",
"1175 202 OFFCURVE",
"1231 262 QCURVE",
"1237 795 LINE",
"1181 850 OFFCURVE",
"930 917 OFFCURVE",
"800 917 QCURVE SMOOTH",
"538 917 OFFCURVE",
"268 668 OFFCURVE",
"268 493 QCURVE SMOOTH"
);
}
);
width = 1682;
}
);
unicode = 0071;
changeCount = 1;
},
{
color = (82,173,105,1);
glyphname = r;
lastChange = "2019-05-04 15:51:20 +0000";
layers = (
{
anchors = (
{
name = bottom;
position = "{310, 0}";
}
);
layerId = "BD4CBFBD-470E-43A2-AFCF-3289E9F05BB1";
paths = (
{
closed = 1;
nodes = (
"120 84 LINE",
"318 119 LINE",
"320 507 LINE",
"318 842 LINE",
"110 872 LINE",
"110 968 LINE",
"428 1000 LINE",
"468 973 LINE",
"488 820 LINE",
"600 902 OFFCURVE",
"881 1000 OFFCURVE",
"1058 1000 QCURVE SMOOTH",
"1163 1000 LINE",
"1163 720 LINE",
"1042 720 LINE",
"994 861 LINE",
"866 861 OFFCURVE",
"582 772 OFFCURVE",
"491 695 QCURVE",
"491 507 LINE",
"493 119 LINE",
"711 84 LINE",
"711 0 LINE",
"120 0 LINE"
);
}
);
width = 1196;
}
);
unicode = 0072;
changeCount = 1;
},
{
color = (82,173,105,1);
glyphname = s;
lastChange = "2019-05-04 15:51:20 +0000";
layers = (
{
layerId = "BD4CBFBD-470E-43A2-AFCF-3289E9F05BB1";
paths = (
{
closed = 1;
nodes = (
"132 339 LINE",
"252 339 LINE",
"267 280 LINE SMOOTH",
"289 194 OFFCURVE",
"541 78 OFFCURVE",
"702 78 QCURVE SMOOTH",
"874 78 OFFCURVE",
"1077 167 OFFCURVE",
"1077 260 QCURVE SMOOTH",
"1077 344 OFFCURVE",
"858 422 OFFCURVE",
"628 467 QCURVE SMOOTH",
"381 515 OFFCURVE",
"184 650 OFFCURVE",
"184 769 QCURVE SMOOTH",
"184 889 OFFCURVE",
"440 1031 OFFCURVE",
"655 1031 QCURVE SMOOTH",
"788 1031 OFFCURVE",
"973 989 OFFCURVE",
"1028 960 QCURVE",
"1051 1000 LINE",
"1164 1000 LINE",
"1164 704 LINE",
"1044 704 LINE",
"1020 791 LINE SMOOTH",
"1004 849 OFFCURVE",
"775 920 OFFCURVE",
"660 920 QCURVE SMOOTH",
"517 920 OFFCURVE",
"357 849 OFFCURVE",
"357 790 QCURVE SMOOTH",
"357 718 OFFCURVE",
"529 645 OFFCURVE",
"748 601 QCURVE SMOOTH",
"1005 550 OFFCURVE",
"1253 422 OFFCURVE",
"1253 277 QCURVE SMOOTH",
"1253 140 OFFCURVE",
"956 -30 OFFCURVE",
"716 -30 QCURVE SMOOTH",
"581 -30 OFFCURVE",
"360 29 OFFCURVE",
"284 73 QCURVE",
"229 0 LINE",
"132 0 LINE"
);
}
);
width = 1390;
}
);
unicode = 0073;
changeCount = 1;
},
{
color = (82,173,105,1);
glyphname = t;
lastChange = "2019-05-04 15:51:20 +0000";
layers = (
{
layerId = "BD4CBFBD-470E-43A2-AFCF-3289E9F05BB1";
paths = (
{
closed = 1;
nodes = (
"110 948 LINE",
"228 976 OFFCURVE",
"373 1101 OFFCURVE",
"408 1200 QCURVE",
"455 1200 LINE",
"488 1160 LINE",
"483 985 LINE",
"824 985 LINE",
"824 874 LINE",
"481 874 LINE",
"471 527 LINE",
"475 251 LINE SMOOTH",
"476 166 OFFCURVE",
"575 106 OFFCURVE",
"688 114 QCURVE SMOOTH",
"841 124 LINE",
"841 39 LINE",
"508 -8 LINE",
"413 -8 OFFCURVE",
"303 93 OFFCURVE",
"303 183 QCURVE SMOOTH",
"303 527 LINE",
"303 862 LINE",
"110 874 LINE"
);
}
);
width = 940;
}
);
unicode = 0074;
changeCount = 1;
},
{
color = (82,173,105,1);
glyphname = u;
lastChange = "2019-05-04 15:51:20 +0000";
layers = (
{
layerId = "BD4CBFBD-470E-43A2-AFCF-3289E9F05BB1";
paths = (
{
closed = 1;
nodes = (
"71 966 LINE",
"372 1000 LINE",
"421 1000 LINE",
"456 964 LINE",
"453 523 LINE",
"453 338 LINE SMOOTH",
"453 238 OFFCURVE",
"649 113 OFFCURVE",
"829 113 QCURVE SMOOTH",
"938 113 OFFCURVE",
"1220 180 OFFCURVE",
"1323 265 QCURVE",
"1324 473 LINE",
"1322 842 LINE",
"1118 872 LINE",
"1118 966 LINE",
"1414 1000 LINE",
"1463 1000 LINE",
"1498 964 LINE",
"1495 473 LINE",
"1498 148 LINE",
"1705 118 LINE",
"1705 34 LINE",
"1388 0 LINE",
"1347 27 LINE",
"1323 147 LINE",
"1243 72 OFFCURVE",
"924 -21 OFFCURVE",
"781 -21 QCURVE SMOOTH",
"518 -21 OFFCURVE",
"278 178 OFFCURVE",
"278 308 QCURVE SMOOTH",
"278 380 OFFCURVE",
"286 498 OFFCURVE",
"285 523 QCURVE SMOOTH",
"278 842 LINE",
"71 872 LINE"
);
}
);
width = 1792;
}
);
unicode = 0075;
changeCount = 1;
},
{
color = (82,173,105,1);
glyphname = v;
lastChange = "2019-05-04 15:51:20 +0000";
layers = (
{
layerId = "BD4CBFBD-470E-43A2-AFCF-3289E9F05BB1";
paths = (
{
closed = 1;
nodes = (
"10 1000 LINE",
"564 1000 LINE",
"564 910 LINE",
"377 873 LINE",
"568 535 LINE",
"803 147 LINE",
"1022 538 LINE",
"1202 880 LINE",
"1010 910 LINE",
"1010 1000 LINE",
"1552 1000 LINE",
"1552 910 LINE",
"1355 875 LINE",
"1138 497 LINE",
"868 -8 LINE",
"697 -8 LINE",
"416 481 LINE",
"175 875 LINE",
"10 910 LINE"
);
}
);
width = 1562;
}
);
unicode = 0076;
changeCount = 1;
},
{
color = (82,173,105,1);
glyphname = w;
lastChange = "2019-05-04 15:51:20 +0000";
layers = (
{
layerId = "BD4CBFBD-470E-43A2-AFCF-3289E9F05BB1";
paths = (
{
closed = 1;
nodes = (
"10 1000 LINE",
"564 1000 LINE",
"564 910 LINE",
"377 873 LINE",
"551 522 LINE",
"751 156 LINE",
"920 474 LINE",
"1095 835 LINE",
"1200 738 LINE",
"1028 415 LINE",
"811 -8 LINE",
"646 -8 LINE",
"395 477 LINE",
"175 875 LINE",
"10 910 LINE"
);
},
{
closed = 1;
nodes = (
"804 1000 LINE",
"1368 1000 LINE",
"1368 910 LINE",
"1171 873 LINE",
"1370 475 LINE",
"1541 154 LINE",
"1732 531 LINE",
"1893 880 LINE",
"1701 910 LINE",
"1701 1000 LINE",
"2249 1000 LINE",
"2249 910 LINE",
"2042 875 LINE",
"1847 489 LINE",
"1605 -8 LINE",
"1439 -8 LINE",
"1213 432 LINE",
"969 875 LINE",
"804 910 LINE"
);
}
);
width = 2259;
}
);
unicode = 0077;
changeCount = 1;
},
{
color = (82,173,105,1);
glyphname = x;
lastChange = "2019-05-04 15:51:20 +0000";
layers = (
{
layerId = "BD4CBFBD-470E-43A2-AFCF-3289E9F05BB1";
paths = (
{
closed = 1;
nodes = (
"57 84 LINE",
"280 119 LINE",
"726 539 LINE",
"745 557 LINE",
"1068 880 LINE",
"877 910 LINE",
"877 1000 LINE",
"1460 1000 LINE",
"1459 910 LINE",
"1252 875 LINE",
"825 479 LINE",
"815 470 LINE",
"464 114 LINE",
"641 84 LINE",
"641 0 LINE",
"57 0 LINE"
);
},
{
closed = 1;
nodes = (
"79 1000 LINE",
"671 1000 LINE",
"671 910 LINE",
"497 873 LINE",
"820 556 LINE",
"1298 119 LINE",
"1497 84 LINE",
"1496 0 LINE",
"890 0 LINE",
"890 84 LINE",
"1064 120 LINE",
"714 453 LINE",
"264 875 LINE",
"79 910 LINE"
);
}
);
width = 1520;
}
);
unicode = 0078;
changeCount = 1;
},
{
color = (82,173,105,1);
glyphname = y;
lastChange = "2019-05-04 15:51:20 +0000";
layers = (
{
layerId = "BD4CBFBD-470E-43A2-AFCF-3289E9F05BB1";
paths = (
{
closed = 1;
nodes = (
"10 1000 LINE",
"564 1000 LINE",
"564 910 LINE",
"377 873 LINE",
"568 535 LINE",
"803 147 LINE",
"1022 538 LINE",
"1202 880 LINE",
"1010 910 LINE",
"1010 1000 LINE",
"1552 1000 LINE",
"1552 910 LINE",
"1355 875 LINE",
"1138 497 LINE",
"731 -267 LINE SMOOTH",
"662 -397 OFFCURVE",
"473 -492 OFFCURVE",
"349 -492 QCURVE",
"127 -460 LINE",
"127 -370 LINE",
"269 -370 LINE SMOOTH",
"344 -370 OFFCURVE",
"547 -308 OFFCURVE",
"609 -195 QCURVE SMOOTH",
"704 -21 LINE",
"688 8 LINE",
"416 481 LINE",
"175 875 LINE",
"10 910 LINE"
);
}
);
width = 1562;
}
);
unicode = 0079;
changeCount = 1;
},
{
color = (82,173,105,1);
glyphname = z;
lastChange = "2019-05-04 15:51:20 +0000";
layers = (
{
layerId = "BD4CBFBD-470E-43A2-AFCF-3289E9F05BB1";
paths = (
{
closed = 1;
nodes = (
"122 90 LINE",
"976 884 LINE",
"300 884 LINE",
"263 710 LINE",
"150 710 LINE",
"150 1000 LINE",
"1235 1000 LINE",
"1235 911 LINE",
"367 116 LINE",
"1101 116 LINE",
"1138 290 LINE",
"1251 290 LINE",
"1251 0 LINE",
"122 0 LINE"
);
}
);
width = 1350;
}
);
unicode = 007A;
changeCount = 1;
},
{
glyphname = Aringacute;
layers = (
{
components = (
{
name = A;
}
);
layerId = "BD4CBFBD-470E-43A2-AFCF-3289E9F05BB1";
paths = (
{
closed = 1;
nodes = (
"530 1833 OFFCURVE",
"652 1950 OFFCURVE",
"747 1950 QCURVE SMOOTH",
"842 1950 OFFCURVE",
"964 1833 OFFCURVE",
"964 1742 QCURVE SMOOTH",
"964 1651 OFFCURVE",
"842 1534 OFFCURVE",
"747 1534 QCURVE SMOOTH",
"652 1534 OFFCURVE",
"530 1651 OFFCURVE",
"530 1742 QCURVE SMOOTH"
);
},
{
closed = 1;
nodes = (
"644 1696 OFFCURVE",
"700 1639 OFFCURVE",
"747 1639 QCURVE SMOOTH",
"797 1639 OFFCURVE",
"850 1692 OFFCURVE",
"850 1742 QCURVE SMOOTH",
"850 1788 OFFCURVE",
"794 1845 OFFCURVE",
"747 1845 QCURVE SMOOTH",
"697 1845 OFFCURVE",
"644 1792 OFFCURVE",
"644 1742 QCURVE SMOOTH"
);
},
{
closed = 1;
nodes = (
"987 2089 OFFCURVE",
"939 2056 OFFCURVE",
"890 2043 QCURVE SMOOTH",
"558 1954 LINE",
"511 2052 LINE",
"756 2179 LINE SMOOTH",
"802 2203 OFFCURVE",
"893 2244 OFFCURVE",
"928 2235 QCURVE SMOOTH",
"961 2226 OFFCURVE",
"1009 2168 OFFCURVE",
"999 2134 QCURVE SMOOTH"
);
}
);
width = 1506;
}
);
unicode = 01FA;
},
{
glyphname = Acircumflexacute;
layers = (
{
components = (
{
name = A;
}
);
layerId = "BD4CBFBD-470E-43A2-AFCF-3289E9F05BB1";
paths = (
{
closed = 1;
nodes = (
"787 1871 OFFCURVE",
"826 1845 OFFCURVE",
"863 1808 QCURVE SMOOTH",
"1066 1605 LINE",
"988 1532 LINE",
"753 1707 LINE",
"518 1532 LINE",
"440 1605 LINE",
"643 1808 LINE SMOOTH",
"688 1853 OFFCURVE",
"719 1871 OFFCURVE",
"753 1871 QCURVE SMOOTH"
);
},
{
closed = 1;
nodes = (
"987 2049 OFFCURVE",
"939 2016 OFFCURVE",
"890 2003 QCURVE SMOOTH",
"558 1914 LINE",
"511 2012 LINE",
"756 2139 LINE SMOOTH",
"802 2163 OFFCURVE",
"893 2204 OFFCURVE",
"928 2195 QCURVE SMOOTH",
"961 2186 OFFCURVE",
"1009 2128 OFFCURVE",
"999 2094 QCURVE SMOOTH"
);
}
);
width = 1506;
}
);
unicode = 1EA4;
},
{
glyphname = Acircumflexgrave;
layers = (
{
components = (
{
name = A;
}
);
layerId = "BD4CBFBD-470E-43A2-AFCF-3289E9F05BB1";
paths = (
{
closed = 1;
nodes = (
"787 1871 OFFCURVE",
"826 1845 OFFCURVE",
"863 1808 QCURVE SMOOTH",
"1066 1605 LINE",
"988 1532 LINE",
"753 1707 LINE",
"518 1532 LINE",
"440 1605 LINE",
"643 1808 LINE SMOOTH",
"688 1853 OFFCURVE",
"719 1871 OFFCURVE",
"753 1871 QCURVE SMOOTH"
);
},
{
closed = 1;
nodes = (
"511 2128 OFFCURVE",
"559 2186 OFFCURVE",
"592 2195 QCURVE SMOOTH",
"627 2204 OFFCURVE",
"718 2163 OFFCURVE",
"764 2139 QCURVE SMOOTH",
"1009 2012 LINE",
"962 1914 LINE",
"630 2003 LINE SMOOTH",
"581 2016 OFFCURVE",
"533 2049 OFFCURVE",
"521 2094 QCURVE SMOOTH"
);
}
);
width = 1506;
}
);
unicode = 1EA6;
},
{
glyphname = Acircumflexhookabove;
layers = (
{
components = (
{
name = A;
}
);
layerId = "BD4CBFBD-470E-43A2-AFCF-3289E9F05BB1";
paths = (
{
closed = 1;
nodes = (
"787 1920 OFFCURVE",
"830 1887 OFFCURVE",
"863 1847 QCURVE SMOOTH",
"1049 1622 LINE",
"988 1531 LINE",
"753 1746 LINE",
"518 1531 LINE",
"440 1604 LINE",
"643 1847 LINE SMOOTH",
"684 1896 OFFCURVE",
"719 1920 OFFCURVE",
"753 1920 QCURVE SMOOTH"
);
},
{
closed = 1;
nodes = (
"1092 1557 LINE",
"1160 1652 LINE",
"1176 1645 OFFCURVE",
"1226 1638 OFFCURVE",
"1247 1638 QCURVE SMOOTH",
"1299 1638 OFFCURVE",
"1343 1683 OFFCURVE",
"1343 1728 QCURVE SMOOTH",
"1343 1772 OFFCURVE",
"1272 1824 OFFCURVE",
"1228 1824 QCURVE SMOOTH",
"1164 1824 OFFCURVE",
"1102 1812 OFFCURVE",
"1050 1800 QCURVE",
"998 1909 LINE",
"1080 1937 OFFCURVE",
"1174 1948 OFFCURVE",
"1241 1948 QCURVE SMOOTH",
"1361 1948 OFFCURVE",
"1506 1834 OFFCURVE",
"1506 1729 QCURVE SMOOTH",
"1506 1637 OFFCURVE",
"1395 1521 OFFCURVE",
"1319 1521 QCURVE SMOOTH",
"1289 1521 OFFCURVE",
"1231 1530 OFFCURVE",
"1215 1534 QCURVE",
"1215 1449 LINE",
"1092 1449 LINE"
);
}
);
width = 1506;
}
);
unicode = 1EA8;
},
{
glyphname = Acircumflextilde;
layers = (
{
components = (
{
name = A;
}
);
layerId = "BD4CBFBD-470E-43A2-AFCF-3289E9F05BB1";
paths = (
{
closed = 1;
nodes = (
"787 1871 OFFCURVE",
"826 1845 OFFCURVE",
"863 1808 QCURVE SMOOTH",
"1066 1605 LINE",
"988 1532 LINE",
"753 1707 LINE",
"518 1532 LINE",
"440 1605 LINE",
"643 1808 LINE SMOOTH",
"688 1853 OFFCURVE",
"719 1871 OFFCURVE",
"753 1871 QCURVE SMOOTH"
);
},
{
closed = 1;
nodes = (
"429 2049 OFFCURVE",
"569 2154 OFFCURVE",
"640 2154 QCURVE SMOOTH",
"683 2154 OFFCURVE",
"758 2126 OFFCURVE",
"797 2100 QCURVE SMOOTH",
"825 2083 OFFCURVE",
"916 2031 OFFCURVE",
"959 2031 QCURVE SMOOTH",
"1001 2031 OFFCURVE",
"1080 2084 OFFCURVE",
"1093 2104 QCURVE",
"1157 2025 LINE",
"1129 1966 OFFCURVE",
"1000 1884 OFFCURVE",
"942 1884 QCURVE SMOOTH",
"892 1884 OFFCURVE",
"793 1929 OFFCURVE",
"764 1949 QCURVE SMOOTH",
"730 1972 OFFCURVE",
"653 2007 OFFCURVE",
"623 2007 QCURVE SMOOTH",
"573 2007 OFFCURVE",
"494 1957 OFFCURVE",
"470 1924 QCURVE",
"400 2003 LINE"
);
}
);
width = 1506;
}
);
unicode = 1EAA;
},
{
glyphname = Abreveacute;
layers = (
{
components = (
{
name = A;
}
);
layerId = "BD4CBFBD-470E-43A2-AFCF-3289E9F05BB1";
paths = (
{
closed = 1;
nodes = (
"1097 1818 LINE",
"1094 1755 OFFCURVE",
"883 1581 OFFCURVE",
"754 1581 QCURVE SMOOTH",
"625 1581 OFFCURVE",
"421 1735 OFFCURVE",
"413 1815 QCURVE",
"495 1872 LINE",
"513 1845 OFFCURVE",
"658 1739 OFFCURVE",
"755 1737 QCURVE SMOOTH",
"855 1739 OFFCURVE",
"1002 1847 OFFCURVE",
"1019 1871 QCURVE"
);
},
{
closed = 1;
nodes = (
"987 2049 OFFCURVE",
"939 2016 OFFCURVE",
"890 2003 QCURVE SMOOTH",
"558 1914 LINE",
"511 2012 LINE",
"756 2139 LINE SMOOTH",
"802 2163 OFFCURVE",
"893 2204 OFFCURVE",
"928 2195 QCURVE SMOOTH",
"961 2186 OFFCURVE",
"1009 2128 OFFCURVE",
"999 2094 QCURVE SMOOTH"
);
}
);
width = 1506;
}
);
unicode = 1EAE;
},
{
glyphname = Abrevegrave;
layers = (
{
components = (
{
name = A;
}
);
layerId = "BD4CBFBD-470E-43A2-AFCF-3289E9F05BB1";
paths = (
{
closed = 1;
nodes = (
"1097 1818 LINE",
"1085 1753 OFFCURVE",
"883 1581 OFFCURVE",
"754 1581 QCURVE SMOOTH",
"625 1581 OFFCURVE",
"421 1735 OFFCURVE",
"413 1815 QCURVE",
"495 1872 LINE",
"513 1845 OFFCURVE",
"658 1739 OFFCURVE",
"755 1737 QCURVE SMOOTH",
"855 1739 OFFCURVE",
"1002 1847 OFFCURVE",
"1019 1871 QCURVE"
);
},
{
closed = 1;
nodes = (
"491 2118 OFFCURVE",
"539 2176 OFFCURVE",
"572 2185 QCURVE SMOOTH",
"607 2194 OFFCURVE",
"698 2153 OFFCURVE",
"744 2129 QCURVE SMOOTH",
"989 2002 LINE",
"942 1904 LINE",
"610 1993 LINE SMOOTH",
"561 2006 OFFCURVE",
"513 2039 OFFCURVE",
"501 2084 QCURVE SMOOTH"
);
}
);
width = 1506;
}
);
unicode = 1EB0;
},
{
glyphname = Abrevehookabove;
layers = (
{
components = (
{
name = A;
}
);
layerId = "BD4CBFBD-470E-43A2-AFCF-3289E9F05BB1";
paths = (
{
closed = 1;
nodes = (
"1097 1818 LINE",
"1085 1753 OFFCURVE",
"883 1581 OFFCURVE",
"754 1581 QCURVE SMOOTH",
"625 1581 OFFCURVE",
"421 1735 OFFCURVE",
"413 1815 QCURVE",
"495 1872 LINE",
"513 1845 OFFCURVE",
"658 1739 OFFCURVE",
"755 1737 QCURVE SMOOTH",
"855 1739 OFFCURVE",
"1002 1847 OFFCURVE",
"1019 1871 QCURVE"
);
},
{
closed = 1;
nodes = (
"622 1958 LINE",
"690 2053 LINE",
"706 2046 OFFCURVE",
"756 2039 OFFCURVE",
"777 2039 QCURVE SMOOTH",
"829 2039 OFFCURVE",
"873 2084 OFFCURVE",
"873 2129 QCURVE SMOOTH",
"873 2173 OFFCURVE",
"802 2225 OFFCURVE",
"758 2225 QCURVE SMOOTH",
"694 2225 OFFCURVE",
"575 2202 OFFCURVE",
"537 2184 QCURVE",
"485 2293 LINE",
"545 2328 OFFCURVE",
"704 2349 OFFCURVE",
"771 2349 QCURVE SMOOTH",
"891 2349 OFFCURVE",
"1036 2235 OFFCURVE",
"1036 2130 QCURVE SMOOTH",
"1036 2038 OFFCURVE",
"926 1922 OFFCURVE",
"849 1922 QCURVE SMOOTH",
"819 1922 OFFCURVE",
"761 1931 OFFCURVE",
"745 1935 QCURVE",
"745 1847 LINE",
"622 1847 LINE"
);
}
);
width = 1506;
}
);
unicode = 1EB2;
},
{
glyphname = Abrevetilde;
layers = (
{
components = (
{
name = A;
}
);
layerId = "BD4CBFBD-470E-43A2-AFCF-3289E9F05BB1";
paths = (
{
closed = 1;
nodes = (
"1097 1818 LINE",
"1085 1753 OFFCURVE",
"883 1581 OFFCURVE",
"754 1581 QCURVE SMOOTH",
"625 1581 OFFCURVE",
"421 1735 OFFCURVE",
"413 1815 QCURVE",
"495 1872 LINE",
"513 1845 OFFCURVE",
"658 1739 OFFCURVE",
"755 1737 QCURVE SMOOTH",
"855 1739 OFFCURVE",
"1002 1847 OFFCURVE",
"1019 1871 QCURVE"
);
},
{
closed = 1;
nodes = (
"406 2079 OFFCURVE",
"546 2184 OFFCURVE",
"617 2184 QCURVE SMOOTH",
"660 2184 OFFCURVE",
"735 2156 OFFCURVE",
"774 2130 QCURVE SMOOTH",
"802 2113 OFFCURVE",
"893 2061 OFFCURVE",
"936 2061 QCURVE SMOOTH",
"978 2061 OFFCURVE",
"1057 2114 OFFCURVE",
"1081 2151 QCURVE",
"1145 2072 LINE",
"1106 1996 OFFCURVE",
"977 1914 OFFCURVE",
"919 1914 QCURVE SMOOTH",
"869 1914 OFFCURVE",
"770 1959 OFFCURVE",
"741 1979 QCURVE SMOOTH",
"707 2002 OFFCURVE",
"630 2037 OFFCURVE",
"600 2037 QCURVE SMOOTH",
"550 2037 OFFCURVE",
"460 1965 OFFCURVE",
"441 1937 QCURVE",
"371 2016 LINE"
);
}
);
width = 1506;
}
);
unicode = 1EB4;
},
{
glyphname = Ecircumflexacute;
layers = (
{
components = (
{
name = E;
}
);
layerId = "BD4CBFBD-470E-43A2-AFCF-3289E9F05BB1";
paths = (
{
closed = 1;
nodes = (
"714 1891 OFFCURVE",
"753 1865 OFFCURVE",
"790 1828 QCURVE SMOOTH",
"993 1625 LINE",
"915 1552 LINE",
"680 1727 LINE",
"445 1552 LINE",
"367 1625 LINE",
"570 1828 LINE SMOOTH",
"615 1873 OFFCURVE",
"646 1891 OFFCURVE",
"680 1891 QCURVE SMOOTH"
);
},
{
closed = 1;
nodes = (
"914 2069 OFFCURVE",
"866 2036 OFFCURVE",
"817 2023 QCURVE SMOOTH",
"485 1934 LINE",
"438 2032 LINE",
"683 2159 LINE SMOOTH",
"729 2183 OFFCURVE",
"820 2224 OFFCURVE",
"855 2215 QCURVE SMOOTH",
"888 2206 OFFCURVE",
"936 2148 OFFCURVE",
"926 2114 QCURVE SMOOTH"
);
}
);
width = 1260;
}
);
unicode = 1EBE;
},
{
glyphname = Ecircumflexgrave;
layers = (
{
components = (
{
name = E;
}
);
layerId = "BD4CBFBD-470E-43A2-AFCF-3289E9F05BB1";
paths = (
{
closed = 1;
nodes = (
"727 1891 OFFCURVE",
"766 1865 OFFCURVE",
"803 1828 QCURVE SMOOTH",
"1006 1625 LINE",
"928 1552 LINE",
"693 1727 LINE",
"458 1552 LINE",
"380 1625 LINE",
"583 1828 LINE SMOOTH",
"628 1873 OFFCURVE",
"659 1891 OFFCURVE",
"693 1891 QCURVE SMOOTH"
);
},
{
closed = 1;
nodes = (
"451 2148 OFFCURVE",
"499 2206 OFFCURVE",
"532 2215 QCURVE SMOOTH",
"567 2224 OFFCURVE",
"658 2183 OFFCURVE",
"704 2159 QCURVE SMOOTH",
"949 2032 LINE",
"902 1934 LINE",
"570 2023 LINE SMOOTH",
"521 2036 OFFCURVE",
"473 2069 OFFCURVE",
"461 2114 QCURVE SMOOTH"
);
}
);
width = 1260;
}
);
unicode = 1EC0;
},
{
glyphname = Ecircumflexhookabove;
layers = (
{
components = (
{
name = E;
}
);
layerId = "BD4CBFBD-470E-43A2-AFCF-3289E9F05BB1";
paths = (
{
closed = 1;
nodes = (
"707 1942 OFFCURVE",
"750 1909 OFFCURVE",
"783 1869 QCURVE SMOOTH",
"969 1644 LINE",
"908 1553 LINE",
"673 1768 LINE",
"438 1553 LINE",
"360 1626 LINE",
"563 1869 LINE SMOOTH",
"604 1918 OFFCURVE",
"639 1942 OFFCURVE",
"673 1942 QCURVE SMOOTH"
);
},
{
closed = 1;
nodes = (
"1012 1579 LINE",
"1080 1674 LINE",
"1096 1667 OFFCURVE",
"1146 1660 OFFCURVE",
"1167 1660 QCURVE SMOOTH",
"1219 1660 OFFCURVE",
"1263 1705 OFFCURVE",
"1263 1750 QCURVE SMOOTH",
"1263 1794 OFFCURVE",
"1192 1846 OFFCURVE",
"1148 1846 QCURVE SMOOTH",
"1084 1846 OFFCURVE",
"1022 1834 OFFCURVE",
"970 1822 QCURVE",
"918 1931 LINE",
"1000 1959 OFFCURVE",
"1094 1970 OFFCURVE",
"1161 1970 QCURVE SMOOTH",
"1281 1970 OFFCURVE",
"1426 1856 OFFCURVE",
"1426 1751 QCURVE SMOOTH",
"1426 1659 OFFCURVE",
"1315 1543 OFFCURVE",
"1239 1543 QCURVE SMOOTH",
"1209 1543 OFFCURVE",
"1151 1552 OFFCURVE",
"1135 1556 QCURVE",
"1135 1471 LINE",
"1012 1471 LINE"
);
}
);
width = 1260;
}
);
unicode = 1EC2;
},
{
glyphname = Ecircumflextilde;
layers = (
{
components = (
{
name = E;
}
);
layerId = "BD4CBFBD-470E-43A2-AFCF-3289E9F05BB1";
paths = (
{
closed = 1;
nodes = (
"722 1891 OFFCURVE",
"761 1865 OFFCURVE",
"798 1828 QCURVE SMOOTH",
"1001 1625 LINE",
"923 1552 LINE",
"688 1727 LINE",
"453 1552 LINE",
"375 1625 LINE",
"578 1828 LINE SMOOTH",
"623 1873 OFFCURVE",
"654 1891 OFFCURVE",
"688 1891 QCURVE SMOOTH"
);
},
{
closed = 1;
nodes = (
"364 2069 OFFCURVE",
"504 2174 OFFCURVE",
"575 2174 QCURVE SMOOTH",
"618 2174 OFFCURVE",
"693 2146 OFFCURVE",
"732 2120 QCURVE SMOOTH",
"760 2103 OFFCURVE",
"851 2051 OFFCURVE",
"894 2051 QCURVE SMOOTH",
"936 2051 OFFCURVE",
"1015 2104 OFFCURVE",
"1028 2124 QCURVE",
"1092 2045 LINE",
"1064 1986 OFFCURVE",
"935 1904 OFFCURVE",
"877 1904 QCURVE SMOOTH",
"827 1904 OFFCURVE",
"728 1949 OFFCURVE",
"699 1969 QCURVE SMOOTH",
"665 1992 OFFCURVE",
"588 2027 OFFCURVE",
"558 2027 QCURVE SMOOTH",
"508 2027 OFFCURVE",
"429 1977 OFFCURVE",
"405 1944 QCURVE",
"335 2023 LINE"
);
}
);
width = 1260;
}
);
unicode = 1EC4;
},
{
color = (255,164,160,1);
glyphname = Lcaron;
lastChange = "2019-05-04 15:51:20 +0000";
layers = (
{
components = (
{
name = L;
}
);
layerId = "BD4CBFBD-470E-43A2-AFCF-3289E9F05BB1";
paths = (
{
closed = 1;
nodes = (
"906 1286 LINE SMOOTH",
"921 1356 OFFCURVE",
"976 1426 OFFCURVE",
"1016 1426 QCURVE SMOOTH",
"1056 1426 OFFCURVE",
"1106 1386 OFFCURVE",
"1106 1346 QCURVE SMOOTH",
"1106 1306 OFFCURVE",
"1084 1240 OFFCURVE",
"1062 1196 QCURVE SMOOTH",
"916 906 LINE",
"828 934 LINE"
);
}
);
width = 1264;
}
);
unicode = 013D;
changeCount = 1;
},
{
glyphname = Odieresismacron;
layers = (
{
components = (
{
name = O;
}
);
layerId = "BD4CBFBD-470E-43A2-AFCF-3289E9F05BB1";
paths = (
{
closed = 1;
nodes = (
"536 2058 LINE",
"1128 2058 LINE",
"1128 1921 LINE",
"536 1921 LINE"
);
},
{
closed = 1;
nodes = (
"486 1772 OFFCURVE",
"546 1831 OFFCURVE",
"602 1831 QCURVE SMOOTH",
"655 1831 OFFCURVE",
"718 1768 OFFCURVE",
"718 1717 QCURVE SMOOTH",
"718 1663 OFFCURVE",
"659 1604 OFFCURVE",
"602 1604 QCURVE SMOOTH",
"549 1604 OFFCURVE",
"486 1666 OFFCURVE",
"486 1717 QCURVE SMOOTH"
);
},
{
closed = 1;
nodes = (
"946 1772 OFFCURVE",
"1006 1831 OFFCURVE",
"1062 1831 QCURVE SMOOTH",
"1115 1831 OFFCURVE",
"1178 1768 OFFCURVE",
"1178 1717 QCURVE SMOOTH",
"1178 1663 OFFCURVE",
"1119 1604 OFFCURVE",
"1062 1604 QCURVE SMOOTH",
"1009 1604 OFFCURVE",
"946 1666 OFFCURVE",
"946 1717 QCURVE SMOOTH"
);
}
);
width = 1664;
}
);
unicode = 022A;
},
{
glyphname = Otildemacron;
layers = (
{
components = (
{
name = O;
}
);
layerId = "BD4CBFBD-470E-43A2-AFCF-3289E9F05BB1";
paths = (
{
closed = 1;
nodes = (
"480 1759 OFFCURVE",
"620 1864 OFFCURVE",
"691 1864 QCURVE SMOOTH",
"734 1864 OFFCURVE",
"809 1836 OFFCURVE",
"848 1810 QCURVE SMOOTH",
"876 1793 OFFCURVE",
"967 1741 OFFCURVE",
"1010 1741 QCURVE SMOOTH",
"1052 1741 OFFCURVE",
"1131 1794 OFFCURVE",
"1143 1808 QCURVE",
"1207 1729 LINE",
"1180 1676 OFFCURVE",
"1051 1594 OFFCURVE",
"993 1594 QCURVE SMOOTH",
"943 1594 OFFCURVE",
"844 1639 OFFCURVE",
"815 1659 QCURVE SMOOTH",
"781 1682 OFFCURVE",
"704 1717 OFFCURVE",
"674 1717 QCURVE SMOOTH",
"624 1717 OFFCURVE",
"534 1645 OFFCURVE",
"524 1637 QCURVE",
"454 1716 LINE"
);
},
{
closed = 1;
nodes = (
"531 2068 LINE",
"1123 2068 LINE",
"1123 1931 LINE",
"531 1931 LINE"
);
}
);
width = 1664;
}
);
unicode = 022C;
},
{
glyphname = Odotaccentmacron;
layers = (
{
components = (
{
name = O;
}
);
layerId = "BD4CBFBD-470E-43A2-AFCF-3289E9F05BB1";
paths = (
{
closed = 1;
nodes = (
"536 2068 LINE",
"1128 2068 LINE",
"1128 1931 LINE",
"536 1931 LINE"
);
},
{
closed = 1;
nodes = (
"711 1779 OFFCURVE",
"773 1840 OFFCURVE",
"832 1840 QCURVE SMOOTH",
"887 1840 OFFCURVE",
"953 1775 OFFCURVE",
"953 1722 QCURVE SMOOTH",
"953 1665 OFFCURVE",
"891 1604 OFFCURVE",
"832 1604 QCURVE SMOOTH",
"777 1604 OFFCURVE",
"711 1669 OFFCURVE",
"711 1722 QCURVE SMOOTH"
);
}
);
width = 1664;
}
);
unicode = 0230;
},
{
glyphname = Ocircumflexacute;
layers = (
{
components = (
{
name = O;
}
);
layerId = "BD4CBFBD-470E-43A2-AFCF-3289E9F05BB1";
paths = (
{
closed = 1;
nodes = (
"866 1891 OFFCURVE",
"905 1865 OFFCURVE",
"942 1828 QCURVE SMOOTH",
"1145 1625 LINE",
"1067 1552 LINE",
"832 1727 LINE",
"597 1552 LINE",
"519 1625 LINE",
"722 1828 LINE SMOOTH",
"767 1873 OFFCURVE",
"798 1891 OFFCURVE",
"832 1891 QCURVE SMOOTH"
);
},
{
closed = 1;
nodes = (
"1066 2069 OFFCURVE",
"1018 2036 OFFCURVE",
"969 2023 QCURVE SMOOTH",
"637 1934 LINE",
"590 2032 LINE",
"835 2159 LINE SMOOTH",
"881 2183 OFFCURVE",
"972 2224 OFFCURVE",
"1007 2215 QCURVE SMOOTH",
"1040 2206 OFFCURVE",
"1088 2148 OFFCURVE",
"1078 2114 QCURVE SMOOTH"
);
}
);
width = 1664;
}
);
unicode = 1ED0;
},
{
glyphname = Ocircumflexgrave;
layers = (
{
components = (
{
name = O;
}
);
layerId = "BD4CBFBD-470E-43A2-AFCF-3289E9F05BB1";
paths = (
{
closed = 1;
nodes = (
"866 1891 OFFCURVE",
"905 1865 OFFCURVE",
"942 1828 QCURVE SMOOTH",
"1145 1625 LINE",
"1067 1552 LINE",
"832 1727 LINE",
"597 1552 LINE",
"519 1625 LINE",
"722 1828 LINE SMOOTH",
"767 1873 OFFCURVE",
"798 1891 OFFCURVE",
"832 1891 QCURVE SMOOTH"
);
},
{
closed = 1;
nodes = (
"590 2148 OFFCURVE",
"638 2206 OFFCURVE",
"671 2215 QCURVE SMOOTH",
"706 2224 OFFCURVE",
"797 2183 OFFCURVE",
"843 2159 QCURVE SMOOTH",
"1088 2032 LINE",
"1041 1934 LINE",
"709 2023 LINE SMOOTH",
"660 2036 OFFCURVE",
"612 2069 OFFCURVE",
"600 2114 QCURVE SMOOTH"
);
}
);
width = 1664;
}
);
unicode = 1ED2;
},
{
glyphname = Ocircumflexhookabove;
layers = (
{
components = (
{
name = O;
}
);
layerId = "BD4CBFBD-470E-43A2-AFCF-3289E9F05BB1";
paths = (
{
closed = 1;
nodes = (
"867 1941 OFFCURVE",
"910 1908 OFFCURVE",
"943 1868 QCURVE SMOOTH",
"1129 1643 LINE",
"1068 1552 LINE",
"833 1767 LINE",
"598 1552 LINE",
"520 1625 LINE",
"723 1868 LINE SMOOTH",
"764 1917 OFFCURVE",
"799 1941 OFFCURVE",
"833 1941 QCURVE SMOOTH"
);
},
{
closed = 1;
nodes = (
"1172 1578 LINE",
"1240 1673 LINE",
"1256 1666 OFFCURVE",
"1306 1659 OFFCURVE",
"1327 1659 QCURVE SMOOTH",
"1379 1659 OFFCURVE",
"1423 1704 OFFCURVE",
"1423 1749 QCURVE SMOOTH",
"1423 1793 OFFCURVE",
"1352 1845 OFFCURVE",
"1308 1845 QCURVE SMOOTH",
"1244 1845 OFFCURVE",
"1182 1833 OFFCURVE",
"1130 1821 QCURVE",
"1078 1930 LINE",
"1160 1958 OFFCURVE",
"1254 1969 OFFCURVE",
"1321 1969 QCURVE SMOOTH",
"1441 1969 OFFCURVE",
"1586 1855 OFFCURVE",
"1586 1750 QCURVE SMOOTH",
"1586 1658 OFFCURVE",
"1475 1542 OFFCURVE",
"1399 1542 QCURVE SMOOTH",
"1369 1542 OFFCURVE",
"1311 1551 OFFCURVE",
"1295 1555 QCURVE",
"1295 1470 LINE",
"1172 1470 LINE"
);
}
);
width = 1664;
}
);
unicode = 1ED4;
},
{
glyphname = Ocircumflextilde;
layers = (
{
components = (
{
name = O;
}
);
layerId = "BD4CBFBD-470E-43A2-AFCF-3289E9F05BB1";
paths = (
{
closed = 1;
nodes = (
"866 1891 OFFCURVE",
"905 1865 OFFCURVE",
"942 1828 QCURVE SMOOTH",
"1145 1625 LINE",
"1067 1552 LINE",
"832 1727 LINE",
"597 1552 LINE",
"519 1625 LINE",
"722 1828 LINE SMOOTH",
"767 1873 OFFCURVE",
"798 1891 OFFCURVE",
"832 1891 QCURVE SMOOTH"
);
},
{
closed = 1;
nodes = (
"508 2069 OFFCURVE",
"648 2174 OFFCURVE",
"719 2174 QCURVE SMOOTH",
"762 2174 OFFCURVE",
"837 2146 OFFCURVE",
"876 2120 QCURVE SMOOTH",
"904 2103 OFFCURVE",
"995 2051 OFFCURVE",
"1038 2051 QCURVE SMOOTH",
"1080 2051 OFFCURVE",
"1159 2104 OFFCURVE",
"1172 2124 QCURVE",
"1236 2045 LINE",
"1208 1986 OFFCURVE",
"1079 1904 OFFCURVE",
"1021 1904 QCURVE SMOOTH",
"971 1904 OFFCURVE",
"872 1949 OFFCURVE",
"843 1969 QCURVE SMOOTH",
"809 1992 OFFCURVE",
"732 2027 OFFCURVE",
"702 2027 QCURVE SMOOTH",
"652 2027 OFFCURVE",
"573 1977 OFFCURVE",
"549 1944 QCURVE",
"479 2023 LINE"
);
}
);
width = 1664;
}
);
unicode = 1ED6;
},
{
glyphname = AE;
layers = (
{
layerId = "BD4CBFBD-470E-43A2-AFCF-3289E9F05BB1";
paths = (
{
closed = 1;
nodes = (
"11 100 LINE",
"239 135 LINE",
"570 549 LINE",
"1214 1367 LINE",
"1037 1386 LINE",
"1037 1500 LINE",
"2602 1500 LINE",
"2602 1152 LINE",
"2476 1152 LINE",
"2429 1382 LINE",
"1570 1382 LINE",
"1542 1362 LINE",
"1539 783 LINE",
"1542 139 LINE",
"1572 115 LINE",
"2513 115 LINE",
"2604 398 LINE",
"2730 398 LINE",
"2687 0 LINE",
"1130 0 LINE",
"1130 100 LINE",
"1361 135 LINE",
"1363 783 LINE",
"1361 1298 LINE",
"1337 1324 LINE",
"712 505 LINE",
"429 130 LINE",
"627 100 LINE",
"627 0 LINE",
"11 0 LINE"
);
},
{
closed = 1;
nodes = (
"740 587 LINE",
"1122 577 LINE",
"1122 468 LINE",
"674 468 LINE"
);
},
{
closed = 1;
nodes = (
"1466 588 LINE",
"1466 468 LINE",
"1122 468 LINE",
"1122 577 LINE"
);
},
{
closed = 1;
nodes = (
"1461 842 LINE",
"2255 847 LINE",
"2301 1004 LINE",
"2408 1004 LINE",
"2408 568 LINE",
"2301 568 LINE",
"2255 725 LINE",
"1463 718 LINE"
);
}
);
width = 2801;
}
);
unicode = 00C6;
userData = {
public.markColor = "0.3216,0.6784,0.4118,1";
};
},
{
glyphname = Thorn;
layers = (
{
layerId = "BD4CBFBD-470E-43A2-AFCF-3289E9F05BB1";
paths = (
{
closed = 1;
nodes = (
"130 100 LINE",
"378 136 LINE",
"380 754 LINE",
"378 1352 LINE",
"130 1386 LINE",
"130 1500 LINE",
"793 1500 LINE",
"793 1385 LINE",
"556 1352 LINE",
"556 1220 LINE",
"1010 1220 LINE SMOOTH",
"1279 1220 OFFCURVE",
"1564 1004 OFFCURVE",
"1564 792 QCURVE SMOOTH",
"1564 575 OFFCURVE",
"1240 312 OFFCURVE",
"920 312 QCURVE SMOOTH",
"811 312 OFFCURVE",
"521 333 OFFCURVE",
"474 341 QCURVE",
"483 454 LINE",
"542 441 OFFCURVE",
"810 432 OFFCURVE",
"912 432 QCURVE SMOOTH",
"1156 432 OFFCURVE",
"1399 619 OFFCURVE",
"1399 792 QCURVE SMOOTH",
"1399 947 OFFCURVE",
"1179 1090 OFFCURVE",
"989 1090 QCURVE SMOOTH",
"557 1090 LINE",
"554 614 LINE",
"556 135 LINE",
"814 100 LINE",
"814 0 LINE",
"130 0 LINE"
);
}
);
width = 1659;
}
);
unicode = 00DE;
userData = {
public.markColor = "0.3216,0.6784,0.4118,1";
};
},
{
glyphname = OE;
layers = (
{
layerId = "BD4CBFBD-470E-43A2-AFCF-3289E9F05BB1";
paths = (
{
closed = 1;
nodes = (
"95 1068 OFFCURVE",
"598 1518 OFFCURVE",
"1037 1518 QCURVE SMOOTH",
"1098 1518 OFFCURVE",
"1455 1500 OFFCURVE",
"1515 1500 QCURVE",
"2704 1500 LINE",
"2704 1152 LINE",
"2578 1152 LINE",
"2531 1382 LINE",
"1672 1382 LINE",
"1644 1362 LINE",
"1641 783 LINE",
"1644 139 LINE",
"1674 115 LINE",
"2615 115 LINE",
"2706 398 LINE",
"2832 398 LINE",
"2789 0 LINE",
"1565 0 LINE",
"1502 0 OFFCURVE",
"1126 -26 OFFCURVE",
"1041 -26 QCURVE SMOOTH",
"608 -26 OFFCURVE",
"95 396 OFFCURVE",
"95 737 QCURVE SMOOTH"
);
},
{
closed = 1;
nodes = (
"286 478 OFFCURVE",
"699 100 OFFCURVE",
"1039 100 QCURVE SMOOTH",
"1256 100 OFFCURVE",
"1407 122 OFFCURVE",
"1465 135 QCURVE",
"1467 783 LINE",
"1465 1360 LINE",
"1427 1366 OFFCURVE",
"1175 1388 OFFCURVE",
"1039 1388 QCURVE SMOOTH",
"679 1388 OFFCURVE",
"286 1053 OFFCURVE",
"286 771 QCURVE SMOOTH"
);
},
{
closed = 1;
nodes = (
"1563 842 LINE",
"2357 847 LINE",
"2403 1004 LINE",
"2510 1004 LINE",
"2510 568 LINE",
"2403 568 LINE",
"2357 725 LINE",
"1563 729 LINE"
);
}
);
width = 2903;
}
);
unicode = 0152;
userData = {
public.markColor = "0.3216,0.6784,0.4118,1";
};
},
{
glyphname = Schwa;
layers = (
{
layerId = "BD4CBFBD-470E-43A2-AFCF-3289E9F05BB1";
paths = (
{
closed = 1;
nodes = (
"246 1399 OFFCURVE",
"673 1520 OFFCURVE",
"918 1520 QCURVE SMOOTH",
"1421 1520 OFFCURVE",
"1929 1119 OFFCURVE",
"1929 790 QCURVE SMOOTH",
"1929 411 OFFCURVE",
"1449 -30 OFFCURVE",
"963 -30 QCURVE SMOOTH",
"537 -30 OFFCURVE",
"117 291 OFFCURVE",
"117 628 QCURVE SMOOTH",
"117 686 LINE",
"1804 686 LINE",
"1804 554 LINE",
"988 562 LINE",
"295 556 LINE",
"295 546 LINE SMOOTH",
"295 330 OFFCURVE",
"658 98 OFFCURVE",
"966 98 QCURVE SMOOTH",
"1348 98 OFFCURVE",
"1744 429 OFFCURVE",
"1742 750 QCURVE SMOOTH",
"1739 1048 OFFCURVE",
"1328 1384 OFFCURVE",
"915 1384 QCURVE SMOOTH",
"645 1384 OFFCURVE",
"262 1255 OFFCURVE",
"169 1162 QCURVE",
"100 1271 LINE"
);
}
);
width = 2025;
}
);
unicode = 018F;
userData = {
public.markColor = "0.3216,0.6784,0.4118,1";
};
},
{
glyphname = Germandbls;
layers = (
{
layerId = "BD4CBFBD-470E-43A2-AFCF-3289E9F05BB1";
paths = (
{
closed = 1;
nodes = (
"295 1072 LINE SMOOTH",
"293 1315 OFFCURVE",
"595 1524 OFFCURVE",
"866 1524 QCURVE SMOOTH",
"1022 1524 OFFCURVE",
"1230 1506 OFFCURVE",
"1352 1500 QCURVE",
"1355 1386 LINE",
"1198 1386 OFFCURVE",
"1009 1269 OFFCURVE",
"1009 1171 QCURVE SMOOTH",
"1009 1081 OFFCURVE",
"1160 953 OFFCURVE",
"1427 876 QCURVE SMOOTH",
"1713 794 OFFCURVE",
"1960 582 OFFCURVE",
"1960 417 QCURVE SMOOTH",
"1960 224 OFFCURVE",
"1645 -26 OFFCURVE",
"1387 -26 QCURVE SMOOTH",
"1206 -26 OFFCURVE",
"986 46 OFFCURVE",
"894 113 QCURVE",
"829 0 LINE",
"713 0 LINE",
"713 484 LINE",
"845 484 LINE",
"873 379 LINE SMOOTH",
"911 235 OFFCURVE",
"1174 102 OFFCURVE",
"1349 102 QCURVE SMOOTH",
"1568 102 OFFCURVE",
"1780 254 OFFCURVE",
"1780 375 QCURVE SMOOTH",
"1780 511 OFFCURVE",
"1594 650 OFFCURVE",
"1320 725 QCURVE SMOOTH",
"1064 795 OFFCURVE",
"835 975 OFFCURVE",
"835 1134 QCURVE SMOOTH",
"835 1209 OFFCURVE",
"904 1335 OFFCURVE",
"965 1382 QCURVE",
"834 1382 LINE SMOOTH",
"654 1382 OFFCURVE",
"479 1227 OFFCURVE",
"477 1019 QCURVE SMOOTH",
"474 760 LINE",
"477 -365 LINE",
"768 -400 LINE",
"768 -500 LINE",
"46 -500 LINE",
"46 -400 LINE",
"295 -365 LINE",
"298 760 LINE"
);
}
);
width = 2048;
}
);
unicode = 1E9E;
userData = {
public.markColor = "0.3216,0.6784,0.4118,1";
};
},
{
glyphname = aringacute;
layers = (
{
components = (
{
name = a;
}
);
layerId = "BD4CBFBD-470E-43A2-AFCF-3289E9F05BB1";
paths = (
{
closed = 1;
nodes = (
"283 1393 OFFCURVE",
"415 1520 OFFCURVE",
"510 1520 QCURVE SMOOTH",
"605 1520 OFFCURVE",
"737 1393 OFFCURVE",
"737 1302 QCURVE SMOOTH",
"737 1211 OFFCURVE",
"605 1084 OFFCURVE",
"510 1084 QCURVE SMOOTH",
"415 1084 OFFCURVE",
"283 1211 OFFCURVE",
"283 1302 QCURVE SMOOTH"
);
},
{
closed = 1;
nodes = (
"407 1256 OFFCURVE",
"463 1199 OFFCURVE",
"510 1199 QCURVE SMOOTH",
"560 1199 OFFCURVE",
"613 1252 OFFCURVE",
"613 1302 QCURVE SMOOTH",
"613 1348 OFFCURVE",
"557 1405 OFFCURVE",
"510 1405 QCURVE SMOOTH",
"460 1405 OFFCURVE",
"407 1352 OFFCURVE",
"407 1302 QCURVE SMOOTH"
);
},
{
closed = 1;
nodes = (
"735 1709 OFFCURVE",
"687 1676 OFFCURVE",
"642 1657 QCURVE SMOOTH",
"332 1529 LINE",
"275 1618 LINE",
"499 1782 LINE SMOOTH",
"540 1812 OFFCURVE",
"631 1856 OFFCURVE",
"667 1848 QCURVE SMOOTH",
"701 1841 OFFCURVE",
"752 1790 OFFCURVE",
"745 1755 QCURVE SMOOTH"
);
}
);
width = 1076;
}
);
unicode = 01FB;
},
{
glyphname = acircumflexacute;
layers = (
{
components = (
{
name = a;
}
);
layerId = "BD4CBFBD-470E-43A2-AFCF-3289E9F05BB1";
paths = (
{
closed = 1;
nodes = (
"550 1451 OFFCURVE",
"592 1417 OFFCURVE",
"626 1378 QCURVE SMOOTH",
"829 1145 LINE",
"751 1072 LINE",
"514 1275 LINE",
"281 1072 LINE",
"203 1145 LINE",
"406 1378 LINE SMOOTH",
"448 1426 OFFCURVE",
"482 1451 OFFCURVE",
"516 1451 QCURVE SMOOTH"
);
},
{
closed = 1;
nodes = (
"745 1675 OFFCURVE",
"698 1641 OFFCURVE",
"652 1620 QCURVE SMOOTH",
"317 1472 LINE",
"258 1560 LINE",
"506 1745 LINE SMOOTH",
"547 1775 OFFCURVE",
"637 1821 OFFCURVE",
"674 1815 QCURVE SMOOTH",
"707 1809 OFFCURVE",
"759 1755 OFFCURVE",
"753 1721 QCURVE SMOOTH"
);
}
);
width = 1076;
}
);
unicode = 1EA5;
},
{
glyphname = acircumflexgrave;
layers = (
{
components = (
{
name = a;
}
);
layerId = "BD4CBFBD-470E-43A2-AFCF-3289E9F05BB1";
paths = (
{
closed = 1;
nodes = (
"540 1451 OFFCURVE",
"582 1417 OFFCURVE",
"616 1378 QCURVE SMOOTH",
"819 1145 LINE",
"741 1072 LINE",
"504 1275 LINE",
"271 1072 LINE",
"193 1145 LINE",
"396 1378 LINE SMOOTH",
"438 1426 OFFCURVE",
"472 1451 OFFCURVE",
"506 1451 QCURVE SMOOTH"
);
},
{
closed = 1;
nodes = (
"248 1757 OFFCURVE",
"301 1810 OFFCURVE",
"334 1816 QCURVE SMOOTH",
"370 1822 OFFCURVE",
"460 1776 OFFCURVE",
"501 1746 QCURVE SMOOTH",
"750 1560 LINE",
"690 1472 LINE",
"355 1621 LINE SMOOTH",
"310 1642 OFFCURVE",
"263 1676 OFFCURVE",
"255 1722 QCURVE SMOOTH"
);
}
);
width = 1076;
}
);
unicode = 1EA7;
},
{
glyphname = acircumflexhookabove;
layers = (
{
components = (
{
name = a;
}
);
layerId = "BD4CBFBD-470E-43A2-AFCF-3289E9F05BB1";
paths = (
{
closed = 1;
nodes = (
"835 1098 LINE",
"903 1193 LINE",
"919 1186 OFFCURVE",
"969 1179 OFFCURVE",
"990 1179 QCURVE SMOOTH",
"1042 1179 OFFCURVE",
"1086 1224 OFFCURVE",
"1086 1269 QCURVE SMOOTH",
"1086 1313 OFFCURVE",
"1015 1365 OFFCURVE",
"971 1365 QCURVE SMOOTH",
"907 1365 OFFCURVE",
"788 1342 OFFCURVE",
"750 1324 QCURVE",
"698 1433 LINE",
"758 1468 OFFCURVE",
"917 1489 OFFCURVE",
"984 1489 QCURVE SMOOTH",
"1104 1489 OFFCURVE",
"1249 1375 OFFCURVE",
"1249 1270 QCURVE SMOOTH",
"1249 1178 OFFCURVE",
"1138 1062 OFFCURVE",
"1062 1062 QCURVE SMOOTH",
"1032 1062 OFFCURVE",
"974 1071 OFFCURVE",
"958 1075 QCURVE",
"958 957 LINE",
"835 957 LINE"
);
},
{
closed = 1;
nodes = (
"500 1481 OFFCURVE",
"545 1450 OFFCURVE",
"576 1408 QCURVE SMOOTH",
"779 1165 LINE",
"701 1092 LINE",
"466 1307 LINE",
"231 1092 LINE",
"153 1165 LINE",
"356 1408 LINE SMOOTH",
"397 1457 OFFCURVE",
"432 1481 OFFCURVE",
"466 1481 QCURVE SMOOTH"
);
}
);
width = 1076;
}
);
unicode = 1EA9;
},
{
glyphname = acircumflextilde;
layers = (
{
components = (
{
name = a;
}
);
layerId = "BD4CBFBD-470E-43A2-AFCF-3289E9F05BB1";
paths = (
{
closed = 1;
nodes = (
"154 1659 OFFCURVE",
"294 1764 OFFCURVE",
"365 1764 QCURVE SMOOTH",
"408 1764 OFFCURVE",
"483 1736 OFFCURVE",
"522 1710 QCURVE SMOOTH",
"550 1693 OFFCURVE",
"641 1641 OFFCURVE",
"684 1641 QCURVE SMOOTH",
"726 1641 OFFCURVE",
"805 1694 OFFCURVE",
"829 1731 QCURVE",
"893 1652 LINE",
"854 1576 OFFCURVE",
"725 1494 OFFCURVE",
"667 1494 QCURVE SMOOTH",
"617 1494 OFFCURVE",
"518 1539 OFFCURVE",
"489 1559 QCURVE SMOOTH",
"455 1582 OFFCURVE",
"378 1617 OFFCURVE",
"348 1617 QCURVE SMOOTH",
"298 1617 OFFCURVE",
"208 1545 OFFCURVE",
"189 1517 QCURVE",
"119 1596 LINE"
);
},
{
closed = 1;
nodes = (
"535 1461 OFFCURVE",
"580 1430 OFFCURVE",
"611 1388 QCURVE SMOOTH",
"814 1145 LINE",
"736 1072 LINE",
"501 1287 LINE",
"266 1072 LINE",
"188 1145 LINE",
"391 1388 LINE SMOOTH",
"432 1437 OFFCURVE",
"467 1461 OFFCURVE",
"501 1461 QCURVE SMOOTH"
);
}
);
width = 1076;
}
);
unicode = 1EAB;
},
{
glyphname = abreveacute;
layers = (
{
components = (
{
name = a;
}
);
layerId = "BD4CBFBD-470E-43A2-AFCF-3289E9F05BB1";
paths = (
{
closed = 1;
nodes = (
"765 1656 OFFCURVE",
"718 1622 OFFCURVE",
"673 1601 QCURVE SMOOTH",
"337 1452 LINE",
"278 1540 LINE",
"526 1726 LINE SMOOTH",
"567 1756 OFFCURVE",
"657 1802 OFFCURVE",
"694 1796 QCURVE SMOOTH",
"727 1790 OFFCURVE",
"779 1737 OFFCURVE",
"773 1702 QCURVE SMOOTH"
);
},
{
closed = 1;
nodes = (
"870 1378 LINE",
"857 1285 OFFCURVE",
"646 1111 OFFCURVE",
"517 1111 QCURVE SMOOTH",
"388 1111 OFFCURVE",
"184 1265 OFFCURVE",
"162 1375 QCURVE",
"244 1432 LINE",
"276 1375 OFFCURVE",
"421 1269 OFFCURVE",
"518 1267 QCURVE SMOOTH",
"618 1269 OFFCURVE",
"765 1377 OFFCURVE",
"792 1431 QCURVE"
);
}
);
width = 1076;
}
);
unicode = 1EAF;
},
{
glyphname = abrevegrave;
layers = (
{
components = (
{
name = a;
}
);
layerId = "BD4CBFBD-470E-43A2-AFCF-3289E9F05BB1";
paths = (
{
closed = 1;
nodes = (
"270 1737 OFFCURVE",
"322 1790 OFFCURVE",
"356 1796 QCURVE SMOOTH",
"392 1802 OFFCURVE",
"482 1756 OFFCURVE",
"523 1726 QCURVE SMOOTH",
"771 1540 LINE",
"712 1452 LINE",
"377 1602 LINE SMOOTH",
"332 1622 OFFCURVE",
"285 1656 OFFCURVE",
"276 1702 QCURVE SMOOTH"
);
},
{
closed = 1;
nodes = (
"870 1378 LINE",
"857 1285 OFFCURVE",
"646 1111 OFFCURVE",
"517 1111 QCURVE SMOOTH",
"388 1111 OFFCURVE",
"184 1265 OFFCURVE",
"162 1375 QCURVE",
"244 1432 LINE",
"276 1375 OFFCURVE",
"421 1269 OFFCURVE",
"518 1267 QCURVE SMOOTH",
"618 1269 OFFCURVE",
"765 1377 OFFCURVE",
"792 1431 QCURVE"
);
}
);
width = 1076;
}
);
unicode = 1EB1;
},
{
glyphname = abrevehookabove;
layers = (
{
components = (
{
name = a;
}
);
layerId = "BD4CBFBD-470E-43A2-AFCF-3289E9F05BB1";
paths = (
{
closed = 1;
nodes = (
"867 1359 LINE",
"835 1255 OFFCURVE",
"636 1101 OFFCURVE",
"507 1101 QCURVE SMOOTH",
"378 1101 OFFCURVE",
"167 1251 OFFCURVE",
"140 1356 QCURVE",
"232 1420 LINE",
"264 1363 OFFCURVE",
"411 1249 OFFCURVE",
"508 1247 QCURVE SMOOTH",
"608 1249 OFFCURVE",
"757 1365 OFFCURVE",
"784 1419 QCURVE"
);
},
{
closed = 1;
nodes = (
"375 1448 LINE",
"443 1540 LINE",
"459 1534 OFFCURVE",
"509 1529 OFFCURVE",
"530 1529 QCURVE SMOOTH",
"582 1529 OFFCURVE",
"626 1559 OFFCURVE",
"626 1594 QCURVE SMOOTH",
"626 1633 OFFCURVE",
"563 1666 OFFCURVE",
"506 1666 QCURVE SMOOTH",
"447 1666 OFFCURVE",
"328 1645 OFFCURVE",
"290 1633 QCURVE",
"238 1747 LINE",
"298 1780 OFFCURVE",
"457 1800 OFFCURVE",
"524 1800 QCURVE SMOOTH",
"644 1800 OFFCURVE",
"789 1696 OFFCURVE",
"789 1595 QCURVE SMOOTH",
"789 1509 OFFCURVE",
"678 1403 OFFCURVE",
"602 1403 QCURVE SMOOTH",
"572 1403 OFFCURVE",
"514 1411 OFFCURVE",
"498 1415 QCURVE",
"498 1357 LINE",
"375 1357 LINE"
);
}
);
width = 1076;
}
);
unicode = 1EB3;
},
{
glyphname = abrevetilde;
layers = (
{
components = (
{
name = a;
}
);
layerId = "BD4CBFBD-470E-43A2-AFCF-3289E9F05BB1";
paths = (
{
closed = 1;
nodes = (
"164 1649 OFFCURVE",
"304 1754 OFFCURVE",
"375 1754 QCURVE SMOOTH",
"418 1754 OFFCURVE",
"493 1726 OFFCURVE",
"532 1700 QCURVE SMOOTH",
"560 1683 OFFCURVE",
"651 1631 OFFCURVE",
"694 1631 QCURVE SMOOTH",
"736 1631 OFFCURVE",
"815 1684 OFFCURVE",
"839 1721 QCURVE",
"903 1642 LINE",
"864 1566 OFFCURVE",
"735 1484 OFFCURVE",
"677 1484 QCURVE SMOOTH",
"627 1484 OFFCURVE",
"528 1529 OFFCURVE",
"499 1549 QCURVE SMOOTH",
"465 1572 OFFCURVE",
"388 1607 OFFCURVE",
"358 1607 QCURVE SMOOTH",
"308 1607 OFFCURVE",
"218 1535 OFFCURVE",
"199 1507 QCURVE",
"129 1586 LINE"
);
},
{
closed = 1;
nodes = (
"865 1378 LINE",
"852 1285 OFFCURVE",
"641 1111 OFFCURVE",
"512 1111 QCURVE SMOOTH",
"383 1111 OFFCURVE",
"179 1265 OFFCURVE",
"157 1375 QCURVE",
"239 1432 LINE",
"271 1375 OFFCURVE",
"416 1269 OFFCURVE",
"513 1267 QCURVE SMOOTH",
"613 1269 OFFCURVE",
"760 1377 OFFCURVE",
"787 1431 QCURVE"
);
}
);
width = 1076;
}
);
unicode = 1EB5;
},
{
glyphname = ecircumflexacute;
layers = (
{
components = (
{
name = e;
}
);
layerId = "BD4CBFBD-470E-43A2-AFCF-3289E9F05BB1";
paths = (
{
closed = 1;
nodes = (
"577 1444 OFFCURVE",
"619 1410 OFFCURVE",
"653 1371 QCURVE SMOOTH",
"856 1138 LINE",
"778 1065 LINE",
"541 1268 LINE",
"308 1065 LINE",
"230 1138 LINE",
"433 1371 LINE SMOOTH",
"475 1419 OFFCURVE",
"509 1444 OFFCURVE",
"543 1444 QCURVE SMOOTH"
);
},
{
closed = 1;
nodes = (
"771 1668 OFFCURVE",
"724 1634 OFFCURVE",
"679 1614 QCURVE SMOOTH",
"343 1465 LINE",
"284 1553 LINE",
"533 1738 LINE SMOOTH",
"574 1768 OFFCURVE",
"664 1815 OFFCURVE",
"700 1808 QCURVE SMOOTH",
"734 1802 OFFCURVE",
"786 1749 OFFCURVE",
"780 1714 QCURVE SMOOTH"
);
}
);
width = 1006;
}
);
unicode = 1EBF;
},
{
glyphname = ecircumflexgrave;
layers = (
{
components = (
{
name = e;
}
);
layerId = "BD4CBFBD-470E-43A2-AFCF-3289E9F05BB1";
paths = (
{
closed = 1;
nodes = (
"559 1451 OFFCURVE",
"601 1417 OFFCURVE",
"635 1378 QCURVE SMOOTH",
"838 1145 LINE",
"760 1072 LINE",
"523 1275 LINE",
"290 1072 LINE",
"212 1145 LINE",
"415 1378 LINE SMOOTH",
"457 1426 OFFCURVE",
"491 1451 OFFCURVE",
"525 1451 QCURVE SMOOTH"
);
},
{
closed = 1;
nodes = (
"267 1757 OFFCURVE",
"319 1810 OFFCURVE",
"353 1816 QCURVE SMOOTH",
"389 1823 OFFCURVE",
"479 1776 OFFCURVE",
"520 1746 QCURVE SMOOTH",
"768 1560 LINE",
"709 1472 LINE",
"374 1622 LINE SMOOTH",
"328 1642 OFFCURVE",
"282 1676 OFFCURVE",
"273 1722 QCURVE SMOOTH"
);
}
);
width = 1006;
}
);
unicode = 1EC1;
},
{
glyphname = ecircumflexhookabove;
layers = (
{
components = (
{
name = e;
}
);
layerId = "BD4CBFBD-470E-43A2-AFCF-3289E9F05BB1";
paths = (
{
closed = 1;
nodes = (
"537 1481 OFFCURVE",
"582 1450 OFFCURVE",
"613 1408 QCURVE SMOOTH",
"816 1165 LINE",
"738 1092 LINE",
"503 1307 LINE",
"268 1092 LINE",
"190 1165 LINE",
"393 1408 LINE SMOOTH",
"434 1457 OFFCURVE",
"469 1481 OFFCURVE",
"503 1481 QCURVE SMOOTH"
);
},
{
closed = 1;
nodes = (
"872 1098 LINE",
"940 1193 LINE",
"956 1186 OFFCURVE",
"1006 1179 OFFCURVE",
"1027 1179 QCURVE SMOOTH",
"1079 1179 OFFCURVE",
"1123 1224 OFFCURVE",
"1123 1269 QCURVE SMOOTH",
"1123 1313 OFFCURVE",
"1052 1365 OFFCURVE",
"1008 1365 QCURVE SMOOTH",
"944 1365 OFFCURVE",
"825 1342 OFFCURVE",
"787 1324 QCURVE",
"735 1433 LINE",
"795 1468 OFFCURVE",
"954 1489 OFFCURVE",
"1021 1489 QCURVE SMOOTH",
"1141 1489 OFFCURVE",
"1286 1375 OFFCURVE",
"1286 1270 QCURVE SMOOTH",
"1286 1178 OFFCURVE",
"1175 1062 OFFCURVE",
"1099 1062 QCURVE SMOOTH",
"1069 1062 OFFCURVE",
"1011 1071 OFFCURVE",
"995 1075 QCURVE",
"995 957 LINE",
"872 957 LINE"
);
}
);
width = 1006;
}
);
unicode = 1EC3;
},
{
glyphname = ecircumflextilde;
layers = (
{
components = (
{
name = e;
}
);
layerId = "BD4CBFBD-470E-43A2-AFCF-3289E9F05BB1";
paths = (
{
closed = 1;
nodes = (
"562 1451 OFFCURVE",
"607 1420 OFFCURVE",
"638 1378 QCURVE SMOOTH",
"841 1135 LINE",
"763 1062 LINE",
"528 1277 LINE",
"293 1062 LINE",
"215 1135 LINE",
"418 1378 LINE SMOOTH",
"459 1427 OFFCURVE",
"494 1451 OFFCURVE",
"528 1451 QCURVE SMOOTH"
);
},
{
closed = 1;
nodes = (
"181 1649 OFFCURVE",
"321 1754 OFFCURVE",
"392 1754 QCURVE SMOOTH",
"435 1754 OFFCURVE",
"510 1726 OFFCURVE",
"549 1700 QCURVE SMOOTH",
"577 1683 OFFCURVE",
"668 1631 OFFCURVE",
"711 1631 QCURVE SMOOTH",
"753 1631 OFFCURVE",
"832 1684 OFFCURVE",
"856 1721 QCURVE",
"920 1642 LINE",
"881 1566 OFFCURVE",
"752 1484 OFFCURVE",
"694 1484 QCURVE SMOOTH",
"644 1484 OFFCURVE",
"545 1529 OFFCURVE",
"516 1549 QCURVE SMOOTH",
"482 1572 OFFCURVE",
"405 1607 OFFCURVE",
"375 1607 QCURVE SMOOTH",
"325 1607 OFFCURVE",
"235 1535 OFFCURVE",
"216 1507 QCURVE",
"146 1586 LINE"
);
}
);
width = 1006;
}
);
unicode = 1EC5;
},
{
glyphname = gcommaaccent;
layers = (
{
components = (
{
name = g;
}
);
layerId = "BD4CBFBD-470E-43A2-AFCF-3289E9F05BB1";
paths = (
{
closed = 1;
nodes = (
"600 1507 OFFCURVE",
"531 1404 OFFCURVE",
"524 1360 QCURVE",
"590 1352 OFFCURVE",
"651 1299 OFFCURVE",
"651 1248 QCURVE SMOOTH",
"651 1201 OFFCURVE",
"585 1128 OFFCURVE",
"527 1128 QCURVE SMOOTH",
"472 1128 OFFCURVE",
"385 1205 OFFCURVE",
"385 1279 QCURVE SMOOTH",
"385 1364 OFFCURVE",
"516 1563 OFFCURVE",
"590 1624 QCURVE",
"649 1566 LINE"
);
}
);
width = 1048;
}
);
unicode = 0123;
},
{
glyphname = odieresismacron;
layers = (
{
components = (
{
name = o;
}
);
layerId = "BD4CBFBD-470E-43A2-AFCF-3289E9F05BB1";
paths = (
{
closed = 1;
nodes = (
"288 1608 LINE",
"880 1608 LINE",
"880 1471 LINE",
"288 1471 LINE"
);
},
{
closed = 1;
nodes = (
"698 1292 OFFCURVE",
"758 1351 OFFCURVE",
"814 1351 QCURVE SMOOTH",
"867 1351 OFFCURVE",
"930 1288 OFFCURVE",
"930 1237 QCURVE SMOOTH",
"930 1183 OFFCURVE",
"871 1124 OFFCURVE",
"814 1124 QCURVE SMOOTH",
"761 1124 OFFCURVE",
"698 1186 OFFCURVE",
"698 1237 QCURVE SMOOTH"
);
},
{
closed = 1;
nodes = (
"238 1292 OFFCURVE",
"298 1351 OFFCURVE",
"354 1351 QCURVE SMOOTH",
"407 1351 OFFCURVE",
"470 1288 OFFCURVE",
"470 1237 QCURVE SMOOTH",
"470 1183 OFFCURVE",
"411 1124 OFFCURVE",
"354 1124 QCURVE SMOOTH",
"301 1124 OFFCURVE",
"238 1186 OFFCURVE",
"238 1237 QCURVE SMOOTH"
);
}
);
width = 1168;
}
);
unicode = 022B;
},
{
glyphname = otildemacron;
layers = (
{
components = (
{
name = o;
}
);
layerId = "BD4CBFBD-470E-43A2-AFCF-3289E9F05BB1";
paths = (
{
closed = 1;
nodes = (
"273 1598 LINE",
"865 1598 LINE",
"865 1461 LINE",
"273 1461 LINE"
);
},
{
closed = 1;
nodes = (
"217 1279 OFFCURVE",
"357 1384 OFFCURVE",
"428 1384 QCURVE SMOOTH",
"471 1384 OFFCURVE",
"546 1356 OFFCURVE",
"585 1330 QCURVE SMOOTH",
"613 1313 OFFCURVE",
"704 1261 OFFCURVE",
"747 1261 QCURVE SMOOTH",
"789 1261 OFFCURVE",
"868 1314 OFFCURVE",
"892 1351 QCURVE",
"956 1272 LINE",
"917 1196 OFFCURVE",
"788 1114 OFFCURVE",
"730 1114 QCURVE SMOOTH",
"680 1114 OFFCURVE",
"581 1159 OFFCURVE",
"552 1179 QCURVE SMOOTH",
"518 1202 OFFCURVE",
"441 1237 OFFCURVE",
"411 1237 QCURVE SMOOTH",
"361 1237 OFFCURVE",
"271 1165 OFFCURVE",
"252 1137 QCURVE",
"182 1216 LINE"
);
}
);
width = 1168;
}
);
unicode = 022D;
},
{
glyphname = odotaccentmacron;
layers = (
{
components = (
{
name = o;
}
);
layerId = "BD4CBFBD-470E-43A2-AFCF-3289E9F05BB1";
paths = (
{
closed = 1;
nodes = (
"288 1608 LINE",
"880 1608 LINE",
"880 1471 LINE",
"288 1471 LINE"
);
},
{
closed = 1;
nodes = (
"463 1293 OFFCURVE",
"525 1354 OFFCURVE",
"584 1354 QCURVE SMOOTH",
"639 1354 OFFCURVE",
"705 1289 OFFCURVE",
"705 1236 QCURVE SMOOTH",
"705 1179 OFFCURVE",
"643 1118 OFFCURVE",
"584 1118 QCURVE SMOOTH",
"529 1118 OFFCURVE",
"463 1183 OFFCURVE",
"463 1236 QCURVE SMOOTH"
);
}
);
width = 1168;
}
);
unicode = 0231;
},
{
glyphname = ocircumflexacute;
layers = (
{
components = (
{
name = o;
}
);
layerId = "BD4CBFBD-470E-43A2-AFCF-3289E9F05BB1";
paths = (
{
closed = 1;
nodes = (
"618 1471 OFFCURVE",
"660 1437 OFFCURVE",
"694 1398 QCURVE SMOOTH",
"897 1165 LINE",
"819 1092 LINE",
"582 1295 LINE",
"349 1092 LINE",
"271 1165 LINE",
"474 1398 LINE SMOOTH",
"516 1446 OFFCURVE",
"550 1471 OFFCURVE",
"584 1471 QCURVE SMOOTH"
);
},
{
closed = 1;
nodes = (
"813 1695 OFFCURVE",
"766 1661 OFFCURVE",
"721 1641 QCURVE SMOOTH",
"385 1492 LINE",
"326 1581 LINE",
"575 1766 LINE SMOOTH",
"616 1796 OFFCURVE",
"706 1842 OFFCURVE",
"742 1835 QCURVE SMOOTH",
"776 1829 OFFCURVE",
"828 1776 OFFCURVE",
"822 1741 QCURVE SMOOTH"
);
}
);
width = 1168;
}
);
unicode = 1ED1;
},
{
glyphname = ocircumflexgrave;
layers = (
{
components = (
{
name = o;
}
);
layerId = "BD4CBFBD-470E-43A2-AFCF-3289E9F05BB1";
paths = (
{
closed = 1;
nodes = (
"618 1471 OFFCURVE",
"660 1437 OFFCURVE",
"694 1398 QCURVE SMOOTH",
"897 1165 LINE",
"819 1092 LINE",
"582 1295 LINE",
"349 1092 LINE",
"271 1165 LINE",
"474 1398 LINE SMOOTH",
"516 1446 OFFCURVE",
"550 1471 OFFCURVE",
"584 1471 QCURVE SMOOTH"
);
},
{
closed = 1;
nodes = (
"325 1777 OFFCURVE",
"378 1830 OFFCURVE",
"411 1836 QCURVE SMOOTH",
"448 1842 OFFCURVE",
"537 1796 OFFCURVE",
"578 1766 QCURVE SMOOTH",
"827 1580 LINE",
"768 1492 LINE",
"432 1641 LINE SMOOTH",
"387 1662 OFFCURVE",
"340 1696 OFFCURVE",
"332 1742 QCURVE SMOOTH"
);
}
);
width = 1168;
}
);
unicode = 1ED3;
},
{
glyphname = ocircumflexhookabove;
layers = (
{
components = (
{
name = o;
}
);
layerId = "BD4CBFBD-470E-43A2-AFCF-3289E9F05BB1";
paths = (
{
closed = 1;
nodes = (
"618 1481 OFFCURVE",
"663 1450 OFFCURVE",
"694 1408 QCURVE SMOOTH",
"897 1165 LINE",
"819 1092 LINE",
"584 1307 LINE",
"349 1092 LINE",
"271 1165 LINE",
"474 1408 LINE SMOOTH",
"515 1457 OFFCURVE",
"550 1481 OFFCURVE",
"584 1481 QCURVE SMOOTH"
);
},
{
closed = 1;
nodes = (
"953 1098 LINE",
"1021 1193 LINE",
"1037 1186 OFFCURVE",
"1087 1179 OFFCURVE",
"1108 1179 QCURVE SMOOTH",
"1160 1179 OFFCURVE",
"1204 1224 OFFCURVE",
"1204 1269 QCURVE SMOOTH",
"1204 1313 OFFCURVE",
"1133 1365 OFFCURVE",
"1089 1365 QCURVE SMOOTH",
"1025 1365 OFFCURVE",
"906 1342 OFFCURVE",
"868 1324 QCURVE",
"816 1433 LINE",
"876 1468 OFFCURVE",
"1035 1489 OFFCURVE",
"1102 1489 QCURVE SMOOTH",
"1222 1489 OFFCURVE",
"1367 1375 OFFCURVE",
"1367 1270 QCURVE SMOOTH",
"1367 1178 OFFCURVE",
"1256 1062 OFFCURVE",
"1180 1062 QCURVE SMOOTH",
"1150 1062 OFFCURVE",
"1092 1071 OFFCURVE",
"1076 1075 QCURVE",
"1076 957 LINE",
"953 957 LINE"
);
}
);
width = 1168;
}
);
unicode = 1ED5;
},
{
glyphname = ocircumflextilde;
layers = (
{
components = (
{
name = o;
}
);
layerId = "BD4CBFBD-470E-43A2-AFCF-3289E9F05BB1";
paths = (
{
closed = 1;
nodes = (
"232 1679 OFFCURVE",
"372 1784 OFFCURVE",
"443 1784 QCURVE SMOOTH",
"486 1784 OFFCURVE",
"561 1756 OFFCURVE",
"600 1730 QCURVE SMOOTH",
"628 1713 OFFCURVE",
"719 1661 OFFCURVE",
"762 1661 QCURVE SMOOTH",
"804 1661 OFFCURVE",
"883 1714 OFFCURVE",
"907 1751 QCURVE",
"971 1672 LINE",
"932 1596 OFFCURVE",
"803 1514 OFFCURVE",
"745 1514 QCURVE SMOOTH",
"695 1514 OFFCURVE",
"596 1559 OFFCURVE",
"567 1579 QCURVE SMOOTH",
"533 1602 OFFCURVE",
"456 1637 OFFCURVE",
"426 1637 QCURVE SMOOTH",
"376 1637 OFFCURVE",
"286 1565 OFFCURVE",
"267 1537 QCURVE",
"197 1616 LINE"
);
},
{
closed = 1;
nodes = (
"613 1481 OFFCURVE",
"658 1450 OFFCURVE",
"689 1408 QCURVE SMOOTH",
"892 1165 LINE",
"814 1092 LINE",
"579 1307 LINE",
"344 1092 LINE",
"266 1165 LINE",
"469 1408 LINE SMOOTH",
"510 1457 OFFCURVE",
"545 1481 OFFCURVE",
"579 1481 QCURVE SMOOTH"
);
}
);
width = 1168;
}
);
unicode = 1ED7;
},
{
glyphname = germandbls;
layers = (
{
layerId = "BD4CBFBD-470E-43A2-AFCF-3289E9F05BB1";
paths = (
{
closed = 1;
nodes = (
"1475 1110 OFFCURVE",
"1282 984 OFFCURVE",
"1149 946 QCURVE SMOOTH",
"1082 927 OFFCURVE",
"942 857 OFFCURVE",
"942 798 QCURVE SMOOTH",
"942 736 OFFCURVE",
"1121 662 OFFCURVE",
"1271 633 QCURVE SMOOTH",
"1528 582 OFFCURVE",
"1776 444 OFFCURVE",
"1776 299 QCURVE SMOOTH",
"1776 162 OFFCURVE",
"1479 -18 OFFCURVE",
"1239 -18 QCURVE SMOOTH",
"1104 -18 OFFCURVE",
"903 41 OFFCURVE",
"827 85 QCURVE",
"772 12 LINE",
"675 12 LINE",
"675 351 LINE",
"795 351 LINE",
"810 292 LINE SMOOTH",
"832 206 OFFCURVE",
"1064 90 OFFCURVE",
"1235 90 QCURVE SMOOTH",
"1407 90 OFFCURVE",
"1600 189 OFFCURVE",
"1600 282 QCURVE SMOOTH",
"1600 366 OFFCURVE",
"1380 449 OFFCURVE",
"1151 499 QCURVE SMOOTH",
"908 552 OFFCURVE",
"775 670 OFFCURVE",
"775 779 QCURVE SMOOTH",
"775 876 OFFCURVE",
"924 995 OFFCURVE",
"1076 1039 QCURVE SMOOTH",
"1190 1072 OFFCURVE",
"1319 1158 OFFCURVE",
"1319 1233 QCURVE SMOOTH",
"1319 1316 OFFCURVE",
"1132 1405 OFFCURVE",
"964 1405 QCURVE SMOOTH",
"754 1405 OFFCURVE",
"512 1244 OFFCURVE",
"515 1069 QCURVE",
"515 527 LINE",
"523 45 LINE",
"483 0 LINE",
"117 0 LINE",
"117 84 LINE",
"342 119 LINE",
"345 527 LINE",
"349 1084 LINE SMOOTH",
"350 1267 OFFCURVE",
"675 1518 OFFCURVE",
"971 1518 QCURVE SMOOTH",
"1186 1518 OFFCURVE",
"1475 1375 OFFCURVE",
"1475 1242 QCURVE SMOOTH"
);
}
);
width = 1865;
}
);
unicode = 00DF;
userData = {
public.markColor = "0.3216,0.6784,0.4118,1";
};
},
{
glyphname = ae;
layers = (
{
layerId = "BD4CBFBD-470E-43A2-AFCF-3289E9F05BB1";
paths = (
{
closed = 1;
nodes = (
"157 396 OFFCURVE",
"636 586 OFFCURVE",
"1146 621 QCURVE",
"1159 531 LINE",
"807 502 OFFCURVE",
"346 383 OFFCURVE",
"349 256 QCURVE SMOOTH",
"351 168 OFFCURVE",
"508 96 OFFCURVE",
"634 96 QCURVE SMOOTH",
"791 96 OFFCURVE",
"1058 191 OFFCURVE",
"1156 278 QCURVE",
"1132 327 OFFCURVE",
"1112 447 OFFCURVE",
"1113 535 QCURVE SMOOTH",
"1114 617 LINE SMOOTH",
"1116 794 OFFCURVE",
"895 910 OFFCURVE",
"762 910 QCURVE SMOOTH",
"636 910 OFFCURVE",
"465 868 OFFCURVE",
"420 836 QCURVE",
"448 819 OFFCURVE",
"467 777 OFFCURVE",
"467 751 QCURVE SMOOTH",
"467 710 OFFCURVE",
"409 657 OFFCURVE",
"357 657 QCURVE SMOOTH",
"306 657 OFFCURVE",
"244 715 OFFCURVE",
"244 780 QCURVE SMOOTH",
"244 877 OFFCURVE",
"528 1027 OFFCURVE",
"777 1027 QCURVE SMOOTH",
"950 1027 OFFCURVE",
"1184 933 OFFCURVE",
"1238 826 QCURVE",
"1246 826 LINE",
"1337 918 OFFCURVE",
"1612 1030 OFFCURVE",
"1776 1030 QCURVE SMOOTH",
"2023 1030 OFFCURVE",
"2380 793 OFFCURVE",
"2408 588 QCURVE",
"2408 528 LINE",
"1240 528 LINE",
"1240 624 LINE",
"2223 624 LINE",
"2198 763 OFFCURVE",
"1922 916 OFFCURVE",
"1765 916 QCURVE SMOOTH",
"1572 916 OFFCURVE",
"1274 700 OFFCURVE",
"1275 520 QCURVE SMOOTH",
"1277 319 OFFCURVE",
"1562 91 OFFCURVE",
"1790 91 QCURVE SMOOTH",
"1970 91 OFFCURVE",
"2222 154 OFFCURVE",
"2308 208 QCURVE",
"2356 128 LINE",
"2290 65 OFFCURVE",
"1961 -30 OFFCURVE",
"1778 -30 QCURVE SMOOTH",
"1596 -30 OFFCURVE",
"1290 80 OFFCURVE",
"1203 187 QCURVE",
"1083 87 OFFCURVE",
"797 -23 OFFCURVE",
"595 -23 QCURVE SMOOTH",
"359 -23 OFFCURVE",
"157 112 OFFCURVE",
"157 240 QCURVE SMOOTH"
);
}
);
width = 2486;
}
);
unicode = 00E6;
userData = {
public.markColor = "0.3216,0.6784,0.4118,1";
};
},
{
glyphname = eth;
layers = (
{
layerId = "BD4CBFBD-470E-43A2-AFCF-3289E9F05BB1";
paths = (
{
closed = 1;
nodes = (
"91 707 OFFCURVE",
"464 1004 OFFCURVE",
"789 1004 QCURVE SMOOTH",
"1115 1004 OFFCURVE",
"1490 721 OFFCURVE",
"1512 496 QCURVE",
"1349 496 LINE",
"1349 670 OFFCURVE",
"1022 888 OFFCURVE",
"789 888 QCURVE SMOOTH",
"560 888 OFFCURVE",
"266 690 OFFCURVE",
"267 510 QCURVE SMOOTH",
"268 329 OFFCURVE",
"558 81 OFFCURVE",
"786 81 QCURVE SMOOTH",
"1027 81 OFFCURVE",
"1358 333 OFFCURVE",
"1358 621 QCURVE SMOOTH",
"1358 981 OFFCURVE",
"811 1387 OFFCURVE",
"394 1486 QCURVE",
"444 1584 LINE",
"984 1474 OFFCURVE",
"1525 952 OFFCURVE",
"1525 624 QCURVE SMOOTH",
"1525 325 OFFCURVE",
"1133 -30 OFFCURVE",
"783 -30 QCURVE SMOOTH",
"500 -30 OFFCURVE",
"91 257 OFFCURVE",
"91 490 QCURVE SMOOTH"
);
},
{
closed = 1;
nodes = (
"1232 1534 LINE",
"1292 1440 LINE",
"640 1120 LINE",
"579 1214 LINE"
);
}
);
width = 1615;
}
);
unicode = 00F0;
userData = {
public.markColor = "0.3216,0.6784,0.4118,1";
};
},
{
glyphname = thorn;
layers = (
{
layerId = "BD4CBFBD-470E-43A2-AFCF-3289E9F05BB1";
paths = (
{
closed = 1;
nodes = (
"114 -400 LINE",
"317 -365 LINE",
"319 427 LINE",
"317 1376 LINE",
"87 1406 LINE",
"87 1500 LINE",
"423 1534 LINE",
"455 1534 LINE",
"482 1503 LINE",
"481 841 LINE",
"557 918 OFFCURVE",
"824 1020 OFFCURVE",
"1022 1020 QCURVE SMOOTH",
"1280 1020 OFFCURVE",
"1635 737 OFFCURVE",
"1635 526 QCURVE",
"1635 299 OFFCURVE",
"1262 -26 OFFCURVE",
"947 -26 QCURVE SMOOTH",
"793 -26 OFFCURVE",
"553 53 OFFCURVE",
"485 97 QCURVE",
"487 -365 LINE",
"719 -400 LINE",
"719 -480 LINE",
"114 -480 LINE"
);
},
{
closed = 1;
nodes = (
"542 194 OFFCURVE",
"791 91 OFFCURVE",
"959 91 QCURVE SMOOTH",
"1188 91 OFFCURVE",
"1451 327 OFFCURVE",
"1451 508 QCURVE SMOOTH",
"1451 674 OFFCURVE",
"1189 897 OFFCURVE",
"968 897 QCURVE SMOOTH",
"802 897 OFFCURVE",
"557 789 OFFCURVE",
"484 716 QCURVE",
"482 470 LINE",
"485 259 LINE"
);
}
);
width = 1726;
}
);
unicode = 00FE;
userData = {
public.markColor = "0.3216,0.6784,0.4118,1";
};
},
{
glyphname = idotless;
layers = (
{
layerId = "BD4CBFBD-470E-43A2-AFCF-3289E9F05BB1";
paths = (
{
closed = 1;
nodes = (
"131 84 LINE",
"329 119 LINE",
"331 527 LINE",
"324 842 LINE",
"126 872 LINE",
"126 966 LINE",
"434 1000 LINE",
"481 1000 LINE",
"504 961 LINE",
"497 527 LINE",
"499 119 LINE",
"697 84 LINE",
"697 0 LINE",
"131 0 LINE"
);
}
);
width = 780;
}
);
unicode = 0131;
userData = {
public.markColor = "0.3216,0.6784,0.4118,1";
};
},
{
glyphname = jdotless;
layers = (
{
layerId = "BD4CBFBD-470E-43A2-AFCF-3289E9F05BB1";
paths = (
{
closed = 1;
nodes = (
"69 -343 LINE",
"228 -340 OFFCURVE",
"332 -254 OFFCURVE",
"332 -132 QCURVE SMOOTH",
"330 527 LINE",
"324 842 LINE",
"126 872 LINE",
"126 966 LINE",
"434 1000 LINE",
"481 1000 LINE",
"504 961 LINE",
"498 527 LINE",
"500 -114 LINE SMOOTH",
"501 -293 OFFCURVE",
"309 -482 OFFCURVE",
"69 -471 QCURVE"
);
}
);
width = 782;
}
);
userData = {
public.markColor = "0.3216,0.6784,0.4118,1";
};
},
{
glyphname = kgreenlandic;
layers = (
{
layerId = "BD4CBFBD-470E-43A2-AFCF-3289E9F05BB1";
paths = (
{
closed = 1;
nodes = (
"119 84 LINE",
"318 119 LINE",
"320 527 LINE",
"318 881 LINE",
"119 916 LINE",
"119 1000 LINE",
"632 1000 LINE",
"632 916 LINE",
"494 881 LINE",
"492 507 LINE",
"494 119 LINE",
"692 84 LINE",
"692 0 LINE",
"119 0 LINE"
);
},
{
closed = 1;
nodes = (
"461 470 LINE",
"1104 880 LINE",
"977 910 LINE",
"977 1000 LINE",
"1483 1000 LINE",
"1483 910 LINE",
"1315 875 LINE",
"461 350 LINE"
);
},
{
closed = 1;
nodes = (
"814 638 LINE",
"1405 115 LINE",
"1553 84 LINE",
"1553 0 LINE",
"1144 0 LINE",
"1132 79 LINE",
"1181 111 LINE",
"688 539 LINE"
);
}
);
width = 1561;
}
);
unicode = 0138;
userData = {
public.markColor = "0.3216,0.6784,0.4118,1";
};
},
{
glyphname = oe;
layers = (
{
layerId = "BD4CBFBD-470E-43A2-AFCF-3289E9F05BB1";
paths = (
{
closed = 1;
nodes = (
"90 717 OFFCURVE",
"490 1031 OFFCURVE",
"798 1031 QCURVE SMOOTH",
"1006 1031 OFFCURVE",
"1333 895 OFFCURVE",
"1420 777 QCURVE",
"1422 777 LINE",
"1508 891 OFFCURVE",
"1811 1030 OFFCURVE",
"1993 1030 QCURVE SMOOTH",
"2240 1030 OFFCURVE",
"2597 793 OFFCURVE",
"2625 588 QCURVE",
"2625 528 LINE",
"1457 528 LINE",
"1457 624 LINE",
"2440 624 LINE",
"2415 763 OFFCURVE",
"2139 916 OFFCURVE",
"1982 916 QCURVE SMOOTH",
"1789 916 OFFCURVE",
"1495 700 OFFCURVE",
"1496 520 QCURVE SMOOTH",
"1498 319 OFFCURVE",
"1779 91 OFFCURVE",
"2007 91 QCURVE SMOOTH",
"2187 91 OFFCURVE",
"2439 154 OFFCURVE",
"2525 208 QCURVE",
"2573 128 LINE",
"2507 65 OFFCURVE",
"2178 -30 OFFCURVE",
"1995 -30 QCURVE SMOOTH",
"1804 -30 OFFCURVE",
"1493 98 OFFCURVE",
"1408 221 QCURVE",
"1406 221 LINE",
"1317 108 OFFCURVE",
"1004 -31 OFFCURVE",
"806 -31 QCURVE SMOOTH",
"497 -31 OFFCURVE",
"90 267 OFFCURVE",
"90 500 QCURVE SMOOTH"
);
},
{
closed = 1;
nodes = (
"269 339 OFFCURVE",
"561 78 OFFCURVE",
"797 78 QCURVE SMOOTH",
"1050 78 OFFCURVE",
"1329 317 OFFCURVE",
"1329 506 QCURVE SMOOTH",
"1329 680 OFFCURVE",
"1037 916 OFFCURVE",
"800 916 QCURVE SMOOTH",
"544 916 OFFCURVE",
"266 700 OFFCURVE",
"267 520 QCURVE SMOOTH"
);
}
);
width = 2703;
}
);
unicode = 0153;
userData = {
public.markColor = "0.3216,0.6784,0.4118,1";
};
},
{
glyphname = micro;
layers = (
{
layerId = "BD4CBFBD-470E-43A2-AFCF-3289E9F05BB1";
paths = (
{
closed = 1;
nodes = (
"157 -295 LINE",
"196 -137 OFFCURVE",
"257 112 OFFCURVE",
"269 181 QCURVE SMOOTH",
"381 822 LINE",
"139 819 LINE",
"141 915 LINE",
"477 1002 LINE",
"522 1002 LINE",
"564 923 LINE",
"447 312 LINE SMOOTH",
"431 229 OFFCURVE",
"504 140 OFFCURVE",
"651 140 QCURVE SMOOTH",
"870 140 OFFCURVE",
"1264 285 OFFCURVE",
"1325 352 QCURVE",
"1426 911 LINE",
"1395 994 LINE",
"1566 1021 LINE",
"1608 942 LINE",
"1491 362 LINE",
"1465 134 LINE",
"1684 134 LINE",
"1686 47 LINE",
"1342 -15 LINE",
"1300 76 LINE",
"1308 215 LINE",
"1234 141 OFFCURVE",
"857 3 OFFCURVE",
"601 3 QCURVE SMOOTH",
"508 3 OFFCURVE",
"414 27 OFFCURVE",
"393 48 QCURVE",
"336 -268 LINE",
"542 -272 LINE",
"534 -361 LINE",
"144 -399 LINE",
"121 -317 LINE"
);
}
);
width = 1796;
}
);
unicode = 00B5;
userData = {
public.markColor = "0.3216,0.6784,0.4118,1";
};
},
{
glyphname = schwa;
layers = (
{
layerId = "BD4CBFBD-470E-43A2-AFCF-3289E9F05BB1";
paths = (
{
closed = 1;
nodes = (
"1380 283 OFFCURVE",
"994 -30 OFFCURVE",
"711 -30 QCURVE SMOOTH",
"464 -30 OFFCURVE",
"107 207 OFFCURVE",
"79 412 QCURVE",
"79 472 LINE",
"1247 472 LINE",
"1247 376 LINE",
"264 376 LINE",
"289 237 OFFCURVE",
"565 84 OFFCURVE",
"722 84 QCURVE SMOOTH",
"915 84 OFFCURVE",
"1209 300 OFFCURVE",
"1208 480 QCURVE SMOOTH",
"1206 681 OFFCURVE",
"925 909 OFFCURVE",
"697 909 QCURVE SMOOTH",
"517 909 OFFCURVE",
"265 846 OFFCURVE",
"179 792 QCURVE",
"131 872 LINE",
"197 935 OFFCURVE",
"526 1030 OFFCURVE",
"709 1030 QCURVE SMOOTH",
"995 1030 OFFCURVE",
"1380 751 OFFCURVE",
"1380 500 QCURVE SMOOTH"
);
}
);
width = 1470;
}
);
unicode = 0259;
userData = {
public.markColor = "0.3216,0.6784,0.4118,1";
};
},
{
glyphname = ordfeminine;
layers = (
{
layerId = "BD4CBFBD-470E-43A2-AFCF-3289E9F05BB1";
paths = (
{
closed = 1;
nodes = (
"120 1014 OFFCURVE",
"527 1169 OFFCURVE",
"961 1199 QCURVE",
"972 1122 LINE",
"713 1098 OFFCURVE",
"291 997 OFFCURVE",
"293 889 QCURVE SMOOTH",
"295 814 OFFCURVE",
"428 761 OFFCURVE",
"497 761 QCURVE SMOOTH",
"646 761 OFFCURVE",
"882 841 OFFCURVE",
"931 884 QCURVE",
"933 1196 LINE SMOOTH",
"934 1346 OFFCURVE",
"747 1445 OFFCURVE",
"634 1445 QCURVE SMOOTH",
"527 1445 OFFCURVE",
"382 1409 OFFCURVE",
"344 1382 QCURVE",
"367 1367 OFFCURVE",
"384 1332 OFFCURVE",
"384 1309 QCURVE SMOOTH",
"384 1275 OFFCURVE",
"334 1230 OFFCURVE",
"290 1230 QCURVE SMOOTH",
"247 1230 OFFCURVE",
"194 1279 OFFCURVE",
"194 1334 QCURVE SMOOTH",
"194 1416 OFFCURVE",
"435 1544 OFFCURVE",
"647 1544 QCURVE SMOOTH",
"854 1544 OFFCURVE",
"1091 1382 OFFCURVE",
"1086 1187 QCURVE SMOOTH",
"1086 777 LINE",
"1266 747 LINE",
"1266 671 LINE",
"1008 671 LINE",
"947 722 LINE",
"931 798 LINE",
"876 742 OFFCURVE",
"621 657 OFFCURVE",
"492 657 QCURVE SMOOTH",
"292 657 OFFCURVE",
"120 772 OFFCURVE",
"120 881 QCURVE SMOOTH"
);
}
);
width = 1342;
}
);
unicode = 00AA;
userData = {
public.markColor = "0.3216,0.6784,0.4118,1";
};
},
{
glyphname = ordmasculine;
layers = (
{
layerId = "BD4CBFBD-470E-43A2-AFCF-3289E9F05BB1";
paths = (
{
closed = 1;
nodes = (
"99 1281 OFFCURVE",
"439 1543 OFFCURVE",
"701 1543 QCURVE SMOOTH",
"964 1543 OFFCURVE",
"1308 1293 OFFCURVE",
"1308 1097 QCURVE SMOOTH",
"1308 913 OFFCURVE",
"970 640 OFFCURVE",
"708 640 QCURVE SMOOTH",
"445 640 OFFCURVE",
"99 894 OFFCURVE",
"99 1092 QCURVE SMOOTH"
);
},
{
closed = 1;
nodes = (
"261 955 OFFCURVE",
"499 743 OFFCURVE",
"700 743 QCURVE SMOOTH",
"915 743 OFFCURVE",
"1142 936 OFFCURVE",
"1142 1097 QCURVE SMOOTH",
"1142 1245 OFFCURVE",
"904 1435 OFFCURVE",
"702 1435 QCURVE SMOOTH",
"485 1435 OFFCURVE",
"259 1262 OFFCURVE",
"259 1109 QCURVE SMOOTH"
);
}
);
width = 1407;
}
);
unicode = 00BA;
userData = {
public.markColor = "0.3216,0.6784,0.4118,1";
};
},
{
glyphname = hookabovecomb;
layers = (
{
layerId = "BD4CBFBD-470E-43A2-AFCF-3289E9F05BB1";
paths = (
{
closed = 1;
nodes = (
"368 1144 LINE",
"450 1239 LINE",
"474 1233 OFFCURVE",
"540 1226 OFFCURVE",
"570 1226 QCURVE SMOOTH",
"628 1226 OFFCURVE",
"712 1275 OFFCURVE",
"712 1327 QCURVE SMOOTH",
"712 1371 OFFCURVE",
"611 1419 OFFCURVE",
"526 1419 QCURVE SMOOTH",
"460 1419 OFFCURVE",
"321 1387 OFFCURVE",
"267 1365 QCURVE",
"220 1465 LINE",
"282 1503 OFFCURVE",
"460 1547 OFFCURVE",
"532 1547 QCURVE SMOOTH",
"687 1547 OFFCURVE",
"874 1432 OFFCURVE",
"874 1319 QCURVE SMOOTH",
"874 1225 OFFCURVE",
"735 1108 OFFCURVE",
"629 1108 QCURVE SMOOTH",
"576 1108 OFFCURVE",
"519 1117 OFFCURVE",
"500 1121 QCURVE",
"500 1001 LINE",
"368 1001 LINE"
);
}
);
width = 1024;
}
);
unicode = 0309;
userData = {
public.markColor = "1,0.8,0.2,1";
};
},
{
glyphname = breveinvertedcomb;
layers = (
{
layerId = "BD4CBFBD-470E-43A2-AFCF-3289E9F05BB1";
paths = (
{
closed = 1;
nodes = (
"107 1185 LINE",
"133 1278 OFFCURVE",
"356 1452 OFFCURVE",
"511 1452 QCURVE SMOOTH",
"666 1452 OFFCURVE",
"880 1298 OFFCURVE",
"917 1188 QCURVE",
"838 1131 LINE",
"790 1198 OFFCURVE",
"626 1303 OFFCURVE",
"510 1303 QCURVE SMOOTH",
"390 1303 OFFCURVE",
"223 1196 OFFCURVE",
"181 1132 QCURVE"
);
}
);
width = 1024;
}
);
unicode = 030F;
userData = {
public.markColor = "1,0.8,0.2,1";
};
},
{
glyphname = dblgravecomb;
layers = (
{
layerId = "BD4CBFBD-470E-43A2-AFCF-3289E9F05BB1";
paths = (
{
closed = 1;
nodes = (
"415 1472 OFFCURVE",
"467 1523 OFFCURVE",
"511 1523 QCURVE SMOOTH",
"546 1523 OFFCURVE",
"626 1465 OFFCURVE",
"663 1432 QCURVE SMOOTH",
"916 1206 LINE",
"854 1132 LINE",
"517 1324 LINE SMOOTH",
"477 1347 OFFCURVE",
"415 1402 OFFCURVE",
"415 1438 QCURVE SMOOTH"
);
},
{
closed = 1;
nodes = (
"-31 1472 OFFCURVE",
"21 1523 OFFCURVE",
"64 1523 QCURVE SMOOTH",
"100 1523 OFFCURVE",
"180 1465 OFFCURVE",
"217 1432 QCURVE SMOOTH",
"470 1206 LINE",
"408 1132 LINE",
"71 1324 LINE SMOOTH",
"30 1347 OFFCURVE",
"-31 1402 OFFCURVE",
"-31 1438 QCURVE SMOOTH"
);
}
);
width = 1024;
}
);
unicode = 0311;
userData = {
public.markColor = "1,0.8,0.2,1";
};
},
{
glyphname = horncomb;
layers = (
{
layerId = "BD4CBFBD-470E-43A2-AFCF-3289E9F05BB1";
paths = (
{
closed = 1;
nodes = (
"51 991 OFFCURVE",
"157 981 OFFCURVE",
"196 981 QCURVE SMOOTH",
"285 981 OFFCURVE",
"374 1033 OFFCURVE",
"374 1085 QCURVE SMOOTH",
"374 1120 OFFCURVE",
"359 1208 OFFCURVE",
"347 1256 QCURVE",
"467 1256 LINE",
"496 1206 OFFCURVE",
"528 1106 OFFCURVE",
"528 1063 QCURVE SMOOTH",
"528 973 OFFCURVE",
"377 853 OFFCURVE",
"236 853 QCURVE SMOOTH",
"190 853 OFFCURVE",
"60 870 OFFCURVE",
"-1 889 QCURVE",
"-1 1000 LINE"
);
}
);
width = 1024;
}
);
unicode = 031B;
userData = {
public.markColor = "1,0.8,0.2,1";
};
},
{
glyphname = dotbelowcomb;
layers = (
{
layerId = "BD4CBFBD-470E-43A2-AFCF-3289E9F05BB1";
paths = (
{
closed = 1;
nodes = (
"394 -224 OFFCURVE",
"454 -164 OFFCURVE",
"512 -164 QCURVE SMOOTH",
"566 -164 OFFCURVE",
"630 -228 OFFCURVE",
"630 -279 QCURVE SMOOTH",
"630 -335 OFFCURVE",
"570 -395 OFFCURVE",
"512 -395 QCURVE SMOOTH",
"458 -395 OFFCURVE",
"394 -331 OFFCURVE",
"394 -279 QCURVE SMOOTH"
);
}
);
width = 1024;
}
);
unicode = 0323;
userData = {
public.markColor = "1,0.8,0.2,1";
};
},
{
glyphname = dieresisbelowcomb;
layers = (
{
layerId = "BD4CBFBD-470E-43A2-AFCF-3289E9F05BB1";
paths = (
{
closed = 1;
nodes = (
"166 -233 OFFCURVE",
"226 -174 OFFCURVE",
"282 -174 QCURVE SMOOTH",
"335 -174 OFFCURVE",
"398 -237 OFFCURVE",
"398 -288 QCURVE SMOOTH",
"398 -342 OFFCURVE",
"339 -401 OFFCURVE",
"282 -401 QCURVE SMOOTH",
"229 -401 OFFCURVE",
"166 -339 OFFCURVE",
"166 -288 QCURVE SMOOTH"
);
},
{
closed = 1;
nodes = (
"626 -233 OFFCURVE",
"686 -174 OFFCURVE",
"742 -174 QCURVE SMOOTH",
"795 -174 OFFCURVE",
"858 -237 OFFCURVE",
"858 -288 QCURVE SMOOTH",
"858 -342 OFFCURVE",
"799 -401 OFFCURVE",
"742 -401 QCURVE SMOOTH",
"689 -401 OFFCURVE",
"626 -339 OFFCURVE",
"626 -288 QCURVE SMOOTH"
);
}
);
width = 1024;
}
);
unicode = 0324;
userData = {
public.markColor = "1,0.8,0.2,1";
};
},
{
glyphname = commaaccentcomb;
layers = (
{
layerId = "BD4CBFBD-470E-43A2-AFCF-3289E9F05BB1";
paths = (
{
closed = 1;
nodes = (
"421 -547 OFFCURVE",
"499 -459 OFFCURVE",
"511 -405 QCURVE",
"458 -404 OFFCURVE",
"389 -340 OFFCURVE",
"389 -288 QCURVE SMOOTH",
"389 -238 OFFCURVE",
"459 -164 OFFCURVE",
"514 -164 QCURVE SMOOTH",
"565 -164 OFFCURVE",
"639 -230 OFFCURVE",
"639 -296 QCURVE SMOOTH",
"639 -402 OFFCURVE",
"501 -577 OFFCURVE",
"416 -630 QCURVE",
"373 -580 LINE"
);
}
);
width = 1024;
}
);
unicode = 0326;
userData = {
public.markColor = "1,0.8,0.2,1";
};
},
{
glyphname = brevebelowcomb;
layers = (
{
layerId = "BD4CBFBD-470E-43A2-AFCF-3289E9F05BB1";
paths = (
{
closed = 1;
nodes = (
"917 -195 LINE",
"891 -288 OFFCURVE",
"668 -462 OFFCURVE",
"513 -462 QCURVE SMOOTH",
"358 -462 OFFCURVE",
"144 -308 OFFCURVE",
"107 -198 QCURVE",
"186 -141 LINE",
"234 -208 OFFCURVE",
"398 -313 OFFCURVE",
"514 -313 QCURVE SMOOTH",
"634 -313 OFFCURVE",
"801 -206 OFFCURVE",
"843 -142 QCURVE"
);
}
);
width = 1024;
}
);
unicode = 032E;
userData = {
public.markColor = "1,0.8,0.2,1";
};
},
{
glyphname = macronbelowcomb;
layers = (
{
layerId = "BD4CBFBD-470E-43A2-AFCF-3289E9F05BB1";
paths = (
{
closed = 1;
nodes = (
"136 -219 LINE",
"888 -219 LINE",
"888 -363 LINE",
"136 -363 LINE"
);
}
);
width = 1024;
}
);
unicode = 0331;
userData = {
public.markColor = "1,0.8,0.2,1";
};
},
{
glyphname = zero;
layers = (
{
layerId = "BD4CBFBD-470E-43A2-AFCF-3289E9F05BB1";
paths = (
{
closed = 1;
nodes = (
"53 1091 OFFCURVE",
"459 1520 OFFCURVE",
"752 1520 QCURVE SMOOTH",
"1052 1520 OFFCURVE",
"1447 1097 OFFCURVE",
"1447 754 QCURVE SMOOTH",
"1447 418 OFFCURVE",
"1057 -22 OFFCURVE",
"757 -22 QCURVE SMOOTH",
"454 -22 OFFCURVE",
"53 399 OFFCURVE",
"53 746 QCURVE SMOOTH"
);
},
{
closed = 1;
nodes = (
"233 451 OFFCURVE",
"524 101 OFFCURVE",
"750 101 QCURVE SMOOTH",
"988 101 OFFCURVE",
"1267 437 OFFCURVE",
"1268 746 QCURVE SMOOTH",
"1269 1037 OFFCURVE",
"980 1390 OFFCURVE",
"754 1390 QCURVE SMOOTH",
"511 1390 OFFCURVE",
"231 1070 OFFCURVE",
"232 772 QCURVE SMOOTH"
);
}
);
width = 1500;
}
);
unicode = 0030;
userData = {
public.markColor = "0.3216,0.6784,0.4118,1";
};
},
{
glyphname = one;
layers = (
{
layerId = "BD4CBFBD-470E-43A2-AFCF-3289E9F05BB1";
paths = (
{
closed = 1;
nodes = (
"310 94 LINE",
"688 129 LINE",
"688 754 LINE",
"686 1352 LINE",
"308 1386 LINE",
"308 1490 LINE",
"836 1513 LINE",
"868 1478 LINE",
"862 754 LINE",
"862 129 LINE",
"1240 94 LINE",
"1240 0 LINE",
"310 0 LINE"
);
}
);
width = 1500;
}
);
unicode = 0031;
userData = {
public.markColor = "0.3216,0.6784,0.4118,1";
};
},
{
glyphname = two;
layers = (
{
layerId = "BD4CBFBD-470E-43A2-AFCF-3289E9F05BB1";
paths = (
{
closed = 1;
nodes = (
"124 117 LINE",
"157 241 OFFCURVE",
"396 487 OFFCURVE",
"661 636 QCURVE SMOOTH",
"912 777 OFFCURVE",
"1129 970 OFFCURVE",
"1129 1133 QCURVE SMOOTH",
"1129 1253 OFFCURVE",
"939 1385 OFFCURVE",
"741 1385 QCURVE SMOOTH",
"580 1385 OFFCURVE",
"318 1300 OFFCURVE",
"212 1206 QCURVE",
"134 1312 LINE",
"229 1399 OFFCURVE",
"528 1520 OFFCURVE",
"761 1520 QCURVE SMOOTH",
"1010 1520 OFFCURVE",
"1298 1321 OFFCURVE",
"1298 1134 QCURVE SMOOTH",
"1298 925 OFFCURVE",
"1000 668 OFFCURVE",
"762 548 QCURVE SMOOTH",
"581 457 OFFCURVE",
"336 257 OFFCURVE",
"298 172 QCURVE",
"306 161 LINE",
"1356 161 LINE",
"1356 0 LINE",
"124 0 LINE"
);
}
);
width = 1500;
}
);
unicode = 0032;
userData = {
public.markColor = "0.3216,0.6784,0.4118,1";
};
},
{
glyphname = three;
layers = (
{
layerId = "BD4CBFBD-470E-43A2-AFCF-3289E9F05BB1";
paths = (
{
closed = 1;
nodes = (
"153 250 LINE",
"272 171 OFFCURVE",
"525 105 OFFCURVE",
"659 105 QCURVE SMOOTH",
"877 105 OFFCURVE",
"1153 250 OFFCURVE",
"1153 403 QCURVE SMOOTH",
"1153 571 OFFCURVE",
"774 719 OFFCURVE",
"470 723 QCURVE SMOOTH",
"402 723 LINE",
"364 834 LINE",
"502 839 LINE SMOOTH",
"754 848 OFFCURVE",
"1108 1016 OFFCURVE",
"1108 1171 QCURVE SMOOTH",
"1108 1288 OFFCURVE",
"919 1387 OFFCURVE",
"744 1387 QCURVE SMOOTH",
"597 1387 OFFCURVE",
"344 1313 OFFCURVE",
"226 1233 QCURVE",
"167 1332 LINE",
"275 1412 OFFCURVE",
"566 1520 OFFCURVE",
"761 1520 QCURVE SMOOTH",
"1027 1520 OFFCURVE",
"1289 1332 OFFCURVE",
"1289 1184 QCURVE SMOOTH",
"1289 1027 OFFCURVE",
"1065 844 OFFCURVE",
"834 800 QCURVE",
"834 793 LINE",
"1083 771 OFFCURVE",
"1339 583 OFFCURVE",
"1339 410 QCURVE SMOOTH",
"1339 209 OFFCURVE",
"964 -22 OFFCURVE",
"662 -22 QCURVE SMOOTH",
"488 -22 OFFCURVE",
"188 64 OFFCURVE",
"83 140 QCURVE"
);
}
);
width = 1500;
}
);
unicode = 0033;
userData = {
public.markColor = "0.3216,0.6784,0.4118,1";
};
},
{
glyphname = four;
layers = (
{
layerId = "BD4CBFBD-470E-43A2-AFCF-3289E9F05BB1";
paths = (
{
closed = 1;
nodes = (
"1007 1529 LINE",
"1116 1502 LINE",
"1157 1456 LINE",
"1149 491 LINE",
"1150 129 LINE",
"1426 94 LINE",
"1426 0 LINE",
"626 0 LINE",
"626 94 LINE",
"976 129 LINE",
"981 489 LINE",
"981 1337 LINE",
"260 574 LINE",
"269 564 LINE",
"1421 544 LINE",
"1421 442 LINE",
"113 438 LINE",
"85 554 LINE"
);
}
);
width = 1500;
}
);
unicode = 0034;
userData = {
public.markColor = "0.3216,0.6784,0.4118,1";
};
},
{
glyphname = five;
layers = (
{
layerId = "BD4CBFBD-470E-43A2-AFCF-3289E9F05BB1";
paths = (
{
closed = 1;
nodes = (
"148 250 LINE",
"223 201 OFFCURVE",
"511 101 OFFCURVE",
"686 101 QCURVE SMOOTH",
"919 101 OFFCURVE",
"1159 292 OFFCURVE",
"1159 464 QCURVE SMOOTH",
"1159 633 OFFCURVE",
"842 796 OFFCURVE",
"488 796 QCURVE SMOOTH",
"281 796 LINE",
"225 850 LINE",
"313 1467 LINE",
"350 1500 LINE",
"1212 1500 LINE",
"1198 1339 LINE",
"430 1339 LINE",
"416 1328 LINE",
"353 905 LINE",
"561 927 LINE",
"929 927 OFFCURVE",
"1327 711 OFFCURVE",
"1327 482 QCURVE SMOOTH",
"1327 241 OFFCURVE",
"986 -22 OFFCURVE",
"684 -22 QCURVE SMOOTH",
"484 -22 OFFCURVE",
"168 73 OFFCURVE",
"78 143 QCURVE"
);
}
);
width = 1500;
}
);
unicode = 0035;
userData = {
public.markColor = "0.3216,0.6784,0.4118,1";
};
},
{
glyphname = six;
layers = (
{
layerId = "BD4CBFBD-470E-43A2-AFCF-3289E9F05BB1";
paths = (
{
closed = 1;
nodes = (
"94 947 OFFCURVE",
"626 1461 OFFCURVE",
"1098 1579 QCURVE",
"1128 1467 LINE",
"759 1366 OFFCURVE",
"272 966 OFFCURVE",
"272 626 QCURVE SMOOTH",
"272 368 OFFCURVE",
"546 100 OFFCURVE",
"771 100 QCURVE SMOOTH",
"979 100 OFFCURVE",
"1221 290 OFFCURVE",
"1221 457 QCURVE SMOOTH",
"1221 625 OFFCURVE",
"1006 800 OFFCURVE",
"808 800 QCURVE SMOOTH",
"710 800 OFFCURVE",
"581 773 OFFCURVE",
"539 759 QCURVE",
"501 833 LINE",
"549 869 OFFCURVE",
"725 926 OFFCURVE",
"829 926 QCURVE SMOOTH",
"1087 926 OFFCURVE",
"1396 686 OFFCURVE",
"1396 499 QCURVE SMOOTH",
"1396 248 OFFCURVE",
"1034 -22 OFFCURVE",
"775 -22 QCURVE SMOOTH",
"455 -22 OFFCURVE",
"94 337 OFFCURVE",
"94 619 QCURVE SMOOTH"
);
}
);
width = 1500;
}
);
unicode = 0036;
userData = {
public.markColor = "0.3216,0.6784,0.4118,1";
};
},
{
glyphname = seven;
layers = (
{
layerId = "BD4CBFBD-470E-43A2-AFCF-3289E9F05BB1";
paths = (
{
closed = 1;
nodes = (
"192 1500 LINE",
"1361 1500 LINE",
"1361 1409 LINE",
"946 685 LINE",
"527 -53 LINE",
"393 -53 LINE",
"393 20 LINE",
"820 730 LINE",
"1161 1313 LINE",
"1136 1339 LINE",
"328 1339 LINE",
"292 1115 LINE",
"170 1115 LINE"
);
}
);
width = 1500;
}
);
unicode = 0037;
userData = {
public.markColor = "0.3216,0.6784,0.4118,1";
};
},
{
glyphname = eight;
layers = (
{
layerId = "BD4CBFBD-470E-43A2-AFCF-3289E9F05BB1";
paths = (
{
closed = 1;
nodes = (
"95 584 OFFCURVE",
"424 807 OFFCURVE",
"586 851 QCURVE",
"694 796 LINE",
"524 744 OFFCURVE",
"264 557 OFFCURVE",
"264 408 QCURVE SMOOTH",
"264 270 OFFCURVE",
"518 101 OFFCURVE",
"757 101 QCURVE SMOOTH",
"975 101 OFFCURVE",
"1230 250 OFFCURVE",
"1230 390 QCURVE SMOOTH",
"1230 509 OFFCURVE",
"1001 654 OFFCURVE",
"724 743 QCURVE SMOOTH",
"441 834 OFFCURVE",
"221 1015 OFFCURVE",
"221 1166 QCURVE SMOOTH",
"221 1330 OFFCURVE",
"521 1520 OFFCURVE",
"762 1520 QCURVE SMOOTH",
"1008 1520 OFFCURVE",
"1281 1340 OFFCURVE",
"1281 1207 QCURVE SMOOTH",
"1281 1076 OFFCURVE",
"1082 884 OFFCURVE",
"889 807 QCURVE",
"777 866 LINE",
"961 938 OFFCURVE",
"1120 1078 OFFCURVE",
"1120 1188 QCURVE SMOOTH",
"1120 1292 OFFCURVE",
"924 1390 OFFCURVE",
"754 1390 QCURVE SMOOTH",
"573 1390 OFFCURVE",
"384 1282 OFFCURVE",
"384 1187 QCURVE SMOOTH",
"384 1094 OFFCURVE",
"584 960 OFFCURVE",
"858 870 QCURVE SMOOTH",
"1127 782 OFFCURVE",
"1405 586 OFFCURVE",
"1405 415 QCURVE SMOOTH",
"1405 233 OFFCURVE",
"1068 -22 OFFCURVE",
"757 -22 QCURVE SMOOTH",
"420 -22 OFFCURVE",
"95 228 OFFCURVE",
"95 392 QCURVE SMOOTH"
);
}
);
width = 1500;
}
);
unicode = 0038;
userData = {
public.markColor = "0.3216,0.6784,0.4118,1";
};
},
{
glyphname = nine;
layers = (
{
layerId = "BD4CBFBD-470E-43A2-AFCF-3289E9F05BB1";
paths = (
{
closed = 1;
nodes = (
"1396 551 OFFCURVE",
"864 37 OFFCURVE",
"392 -81 QCURVE",
"362 31 LINE",
"731 132 OFFCURVE",
"1218 532 OFFCURVE",
"1218 872 QCURVE SMOOTH",
"1218 1130 OFFCURVE",
"944 1398 OFFCURVE",
"719 1398 QCURVE SMOOTH",
"511 1398 OFFCURVE",
"269 1208 OFFCURVE",
"269 1041 QCURVE SMOOTH",
"269 873 OFFCURVE",
"484 698 OFFCURVE",
"682 698 QCURVE SMOOTH",
"780 698 OFFCURVE",
"909 725 OFFCURVE",
"951 739 QCURVE",
"989 665 LINE",
"941 629 OFFCURVE",
"765 572 OFFCURVE",
"661 572 QCURVE SMOOTH",
"403 572 OFFCURVE",
"94 812 OFFCURVE",
"94 999 QCURVE SMOOTH",
"94 1250 OFFCURVE",
"456 1520 OFFCURVE",
"715 1520 QCURVE SMOOTH",
"1035 1520 OFFCURVE",
"1396 1161 OFFCURVE",
"1396 879 QCURVE SMOOTH"
);
}
);
width = 1500;
}
);
unicode = 0039;
userData = {
public.markColor = "0.3216,0.6784,0.4118,1";
};
},
{
glyphname = onesuperior;
layers = (
{
layerId = "BD4CBFBD-470E-43A2-AFCF-3289E9F05BB1";
paths = (
{
closed = 1;
nodes = (
"113 754 LINE",
"333 784 LINE",
"336 1109 LINE",
"333 1377 LINE",
"131 1396 LINE",
"131 1480 LINE",
"446 1513 LINE",
"478 1478 LINE",
"472 1109 LINE",
"474 784 LINE",
"695 754 LINE",
"695 670 LINE",
"113 670 LINE"
);
}
);
width = 796;
}
);
unicode = 00B9;
userData = {
public.markColor = "0.3216,0.6784,0.4118,1";
};
},
{
glyphname = twosuperior;
layers = (
{
layerId = "BD4CBFBD-470E-43A2-AFCF-3289E9F05BB1";
paths = (
{
closed = 1;
nodes = (
"95 756 LINE",
"116 843 OFFCURVE",
"268 1011 OFFCURVE",
"420 1073 QCURVE SMOOTH",
"569 1134 OFFCURVE",
"679 1233 OFFCURVE",
"675 1298 QCURVE SMOOTH",
"672 1352 OFFCURVE",
"565 1409 OFFCURVE",
"477 1409 QCURVE SMOOTH",
"377 1409 OFFCURVE",
"233 1358 OFFCURVE",
"167 1308 QCURVE",
"106 1388 LINE",
"167 1442 OFFCURVE",
"363 1520 OFFCURVE",
"488 1520 QCURVE SMOOTH",
"655 1520 OFFCURVE",
"838 1413 OFFCURVE",
"838 1312 QCURVE SMOOTH",
"838 1196 OFFCURVE",
"662 1066 OFFCURVE",
"499 1002 QCURVE SMOOTH",
"366 950 OFFCURVE",
"250 846 OFFCURVE",
"239 809 QCURVE",
"245 800 LINE",
"862 800 LINE",
"862 671 LINE",
"95 671 LINE"
);
}
);
width = 952;
}
);
unicode = 00B2;
userData = {
public.markColor = "0.3216,0.6784,0.4118,1";
};
},
{
glyphname = threesuperior;
layers = (
{
layerId = "BD4CBFBD-470E-43A2-AFCF-3289E9F05BB1";
paths = (
{
closed = 1;
nodes = (
"127 832 LINE",
"198 789 OFFCURVE",
"329 755 OFFCURVE",
"426 755 QCURVE SMOOTH",
"532 755 OFFCURVE",
"668 827 OFFCURVE",
"668 903 QCURVE SMOOTH",
"668 984 OFFCURVE",
"480 1059 OFFCURVE",
"323 1059 QCURVE SMOOTH",
"286 1059 LINE",
"257 1154 LINE",
"332 1157 LINE SMOOTH",
"482 1163 OFFCURVE",
"644 1240 OFFCURVE",
"644 1310 QCURVE SMOOTH",
"644 1364 OFFCURVE",
"538 1416 OFFCURVE",
"456 1416 QCURVE SMOOTH",
"368 1416 OFFCURVE",
"228 1381 OFFCURVE",
"161 1346 QCURVE",
"119 1422 LINE",
"185 1468 OFFCURVE",
"352 1520 OFFCURVE",
"468 1520 QCURVE SMOOTH",
"622 1520 OFFCURVE",
"798 1418 OFFCURVE",
"798 1337 QCURVE SMOOTH",
"798 1252 OFFCURVE",
"679 1142 OFFCURVE",
"542 1118 QCURVE",
"542 1114 LINE",
"680 1111 OFFCURVE",
"828 1001 OFFCURVE",
"828 905 QCURVE SMOOTH",
"828 783 OFFCURVE",
"607 649 OFFCURVE",
"427 649 QCURVE SMOOTH",
"324 649 OFFCURVE",
"136 702 OFFCURVE",
"73 748 QCURVE"
);
}
);
width = 911;
}
);
unicode = 00B3;
userData = {
public.markColor = "0.3216,0.6784,0.4118,1";
};
},
{
glyphname = foursuperior;
layers = (
{
layerId = "BD4CBFBD-470E-43A2-AFCF-3289E9F05BB1";
paths = (
{
closed = 1;
nodes = (
"635 1547 LINE",
"730 1527 LINE",
"752 1499 LINE",
"755 948 LINE",
"755 773 LINE",
"901 754 LINE",
"901 669 LINE",
"439 669 LINE",
"439 754 LINE",
"619 773 LINE",
"625 947 LINE",
"630 1416 LINE",
"216 1036 LINE",
"217 1018 LINE",
"926 1007 LINE",
"926 921 LINE",
"85 919 LINE",
"61 1013 LINE"
);
}
);
width = 1028;
}
);
unicode = 2074;
userData = {
public.markColor = "0.3216,0.6784,0.4118,1";
};
},
{
glyphname = plus;
layers = (
{
layerId = "BD4CBFBD-470E-43A2-AFCF-3289E9F05BB1";
paths = (
{
closed = 1;
nodes = (
"97 704 LINE",
"1142 704 LINE",
"1142 560 LINE",
"97 560 LINE"
);
},
{
closed = 1;
nodes = (
"547 1094 LINE",
"692 1094 LINE",
"692 170 LINE",
"547 170 LINE"
);
}
);
width = 1238;
}
);
unicode = 002B;
userData = {
public.markColor = "0.3216,0.6784,0.4118,1";
};
},
{
glyphname = minus;
layers = (
{
layerId = "BD4CBFBD-470E-43A2-AFCF-3289E9F05BB1";
paths = (
{
closed = 1;
nodes = (
"97 704 LINE",
"1142 704 LINE",
"1142 560 LINE",
"97 560 LINE"
);
}
);
width = 1238;
}
);
unicode = 2212;
userData = {
public.markColor = "0.3216,0.6784,0.4118,1";
};
},
{
glyphname = plusminus;
layers = (
{
layerId = "BD4CBFBD-470E-43A2-AFCF-3289E9F05BB1";
paths = (
{
closed = 1;
nodes = (
"97 784 LINE",
"1142 784 LINE",
"1142 640 LINE",
"97 640 LINE"
);
},
{
closed = 1;
nodes = (
"547 1174 LINE",
"692 1174 LINE",
"692 250 LINE",
"547 250 LINE"
);
},
{
closed = 1;
nodes = (
"97 144 LINE",
"1142 144 LINE",
"1142 0 LINE",
"97 0 LINE"
);
}
);
width = 1238;
}
);
unicode = 00B1;
userData = {
public.markColor = "0.3216,0.6784,0.4118,1";
};
},
{
glyphname = divide;
layers = (
{
layerId = "BD4CBFBD-470E-43A2-AFCF-3289E9F05BB1";
paths = (
{
closed = 1;
nodes = (
"97 704 LINE",
"1142 704 LINE",
"1142 560 LINE",
"97 560 LINE"
);
},
{
closed = 1;
nodes = (
"489 359 OFFCURVE",
"562 437 OFFCURVE",
"619 437 QCURVE SMOOTH",
"676 437 OFFCURVE",
"749 359 OFFCURVE",
"749 307 QCURVE SMOOTH",
"749 256 OFFCURVE",
"676 178 OFFCURVE",
"619 178 QCURVE SMOOTH",
"562 178 OFFCURVE",
"489 256 OFFCURVE",
"489 307 QCURVE SMOOTH"
);
},
{
closed = 1;
nodes = (
"489 1010 OFFCURVE",
"562 1088 OFFCURVE",
"619 1088 QCURVE SMOOTH",
"676 1088 OFFCURVE",
"749 1010 OFFCURVE",
"749 958 QCURVE SMOOTH",
"749 907 OFFCURVE",
"676 829 OFFCURVE",
"619 829 QCURVE SMOOTH",
"562 829 OFFCURVE",
"489 907 OFFCURVE",
"489 958 QCURVE SMOOTH"
);
}
);
width = 1238;
}
);
unicode = 00F7;
userData = {
public.markColor = "0.3216,0.6784,0.4118,1";
};
},
{
glyphname = multiply;
layers = (
{
layerId = "BD4CBFBD-470E-43A2-AFCF-3289E9F05BB1";
paths = (
{
closed = 1;
nodes = (
"161 304 LINE",
"970 1074 LINE",
"1077 967 LINE",
"268 197 LINE"
);
},
{
closed = 1;
nodes = (
"161 967 LINE",
"268 1074 LINE",
"1077 304 LINE",
"970 197 LINE"
);
}
);
width = 1238;
}
);
unicode = 00D7;
userData = {
public.markColor = "0.3216,0.6784,0.4118,1";
};
},
{
glyphname = equal;
layers = (
{
layerId = "BD4CBFBD-470E-43A2-AFCF-3289E9F05BB1";
paths = (
{
closed = 1;
nodes = (
"136 506 LINE",
"616 502 LINE",
"1101 506 LINE",
"1101 339 LINE",
"616 343 LINE",
"136 339 LINE"
);
},
{
closed = 1;
nodes = (
"136 903 LINE",
"616 899 LINE",
"1101 903 LINE",
"1101 736 LINE",
"616 740 LINE",
"136 736 LINE"
);
}
);
width = 1238;
}
);
unicode = 003D;
userData = {
public.markColor = "0.3216,0.6784,0.4118,1";
};
},
{
glyphname = less;
layers = (
{
layerId = "BD4CBFBD-470E-43A2-AFCF-3289E9F05BB1";
paths = (
{
closed = 1;
nodes = (
"161 638 OFFCURVE",
"862 1029 OFFCURVE",
"947 1081 QCURVE SMOOTH",
"1024 1128 OFFCURVE",
"1086 1011 OFFCURVE",
"1014 964 QCURVE SMOOTH",
"853 858 OFFCURVE",
"558 686 OFFCURVE",
"460 637 QCURVE",
"548 597 OFFCURVE",
"857 425 OFFCURVE",
"1013 322 QCURVE SMOOTH",
"1085 274 OFFCURVE",
"1028 155 OFFCURVE",
"949 203 QCURVE SMOOTH",
"860 257 OFFCURVE",
"159 630 OFFCURVE",
"157 634 QCURVE"
);
}
);
width = 1238;
}
);
unicode = 003C;
userData = {
public.markColor = "0.3216,0.6784,0.4118,1";
};
},
{
glyphname = greater;
layers = (
{
layerId = "BD4CBFBD-470E-43A2-AFCF-3289E9F05BB1";
paths = (
{
closed = 1;
nodes = (
"381 425 OFFCURVE",
"690 597 OFFCURVE",
"778 637 QCURVE",
"680 686 OFFCURVE",
"385 858 OFFCURVE",
"224 964 QCURVE SMOOTH",
"152 1011 OFFCURVE",
"214 1128 OFFCURVE",
"291 1081 QCURVE SMOOTH",
"376 1029 OFFCURVE",
"1077 638 OFFCURVE",
"1081 634 QCURVE",
"1079 630 OFFCURVE",
"378 257 OFFCURVE",
"289 203 QCURVE SMOOTH",
"210 155 OFFCURVE",
"153 274 OFFCURVE",
"225 322 QCURVE SMOOTH"
);
}
);
width = 1238;
}
);
unicode = 003E;
userData = {
public.markColor = "0.3216,0.6784,0.4118,1";
};
},
{
glyphname = lessequal;
layers = (
{
layerId = "BD4CBFBD-470E-43A2-AFCF-3289E9F05BB1";
paths = (
{
closed = 1;
nodes = (
"97 144 LINE",
"1142 144 LINE",
"1142 0 LINE",
"97 0 LINE"
);
},
{
closed = 1;
nodes = (
"161 688 OFFCURVE",
"862 1079 OFFCURVE",
"947 1131 QCURVE SMOOTH",
"1024 1178 OFFCURVE",
"1086 1061 OFFCURVE",
"1014 1014 QCURVE SMOOTH",
"853 908 OFFCURVE",
"558 736 OFFCURVE",
"460 687 QCURVE",
"548 647 OFFCURVE",
"857 475 OFFCURVE",
"1013 372 QCURVE SMOOTH",
"1085 324 OFFCURVE",
"1028 205 OFFCURVE",
"949 253 QCURVE SMOOTH",
"860 307 OFFCURVE",
"159 680 OFFCURVE",
"157 684 QCURVE"
);
}
);
width = 1238;
}
);
unicode = 2264;
userData = {
public.markColor = "0.3216,0.6784,0.4118,1";
};
},
{
glyphname = greaterequal;
layers = (
{
layerId = "BD4CBFBD-470E-43A2-AFCF-3289E9F05BB1";
paths = (
{
closed = 1;
nodes = (
"97 144 LINE",
"1142 144 LINE",
"1142 0 LINE",
"97 0 LINE"
);
},
{
closed = 1;
nodes = (
"1079 680 OFFCURVE",
"378 307 OFFCURVE",
"289 253 QCURVE SMOOTH",
"210 205 OFFCURVE",
"153 324 OFFCURVE",
"225 372 QCURVE SMOOTH",
"381 475 OFFCURVE",
"690 647 OFFCURVE",
"778 687 QCURVE",
"680 736 OFFCURVE",
"385 908 OFFCURVE",
"224 1014 QCURVE SMOOTH",
"152 1061 OFFCURVE",
"214 1178 OFFCURVE",
"291 1131 QCURVE SMOOTH",
"376 1079 OFFCURVE",
"1077 688 OFFCURVE",
"1081 684 QCURVE"
);
}
);
width = 1238;
}
);
unicode = 2265;
userData = {
public.markColor = "0.3216,0.6784,0.4118,1";
};
},
{
glyphname = approxequal;
layers = (
{
layerId = "BD4CBFBD-470E-43A2-AFCF-3289E9F05BB1";
paths = (
{
closed = 1;
nodes = (
"167 844 OFFCURVE",
"347 956 OFFCURVE",
"435 956 QCURVE",
"858 821 LINE",
"918 821 OFFCURVE",
"1010 909 OFFCURVE",
"1043 963 QCURVE",
"1133 911 LINE",
"1083 807 OFFCURVE",
"939 666 OFFCURVE",
"807 666 QCURVE",
"407 793 LINE",
"346 793 OFFCURVE",
"230 739 OFFCURVE",
"173 687 QCURVE",
"105 751 LINE"
);
},
{
closed = 1;
nodes = (
"167 464 OFFCURVE",
"347 576 OFFCURVE",
"435 576 QCURVE",
"858 441 LINE",
"918 441 OFFCURVE",
"1010 529 OFFCURVE",
"1043 583 QCURVE",
"1133 531 LINE",
"1083 427 OFFCURVE",
"939 286 OFFCURVE",
"807 286 QCURVE",
"407 413 LINE",
"346 413 OFFCURVE",
"230 359 OFFCURVE",
"173 307 QCURVE",
"105 371 LINE"
);
}
);
width = 1238;
}
);
unicode = 2248;
userData = {
public.markColor = "0.3216,0.6784,0.4118,1";
};
},
{
glyphname = notequal;
layers = (
{
layerId = "BD4CBFBD-470E-43A2-AFCF-3289E9F05BB1";
paths = (
{
closed = 1;
nodes = (
"136 499 LINE",
"616 495 LINE",
"1101 499 LINE",
"1101 339 LINE",
"616 343 LINE",
"136 339 LINE"
);
},
{
closed = 1;
nodes = (
"136 903 LINE",
"616 899 LINE",
"1101 903 LINE",
"1101 743 LINE",
"616 747 LINE",
"136 743 LINE"
);
},
{
closed = 1;
nodes = (
"821 1208 LINE",
"947 1150 LINE",
"418 35 LINE",
"292 93 LINE"
);
}
);
width = 1238;
}
);
unicode = 2260;
userData = {
public.markColor = "0.3216,0.6784,0.4118,1";
};
},
{
glyphname = logicalnot;
layers = (
{
layerId = "BD4CBFBD-470E-43A2-AFCF-3289E9F05BB1";
paths = (
{
closed = 1;
nodes = (
"1101 754 LINE",
"1101 250 LINE",
"941 250 LINE",
"941 610 LINE",
"97 610 LINE",
"97 754 LINE"
);
}
);
width = 1238;
}
);
unicode = 00AC;
userData = {
public.markColor = "0.3216,0.6784,0.4118,1";
};
},
{
glyphname = divisionslash;
layers = (
{
layerId = "BD4CBFBD-470E-43A2-AFCF-3289E9F05BB1";
paths = (
{
closed = 1;
nodes = (
"760 1555 LINE",
"892 1493 LINE",
"51 -180 LINE",
"-81 -118 LINE"
);
}
);
width = 853;
}
);
unicode = 2215;
userData = {
public.markColor = "0.3216,0.6784,0.4118,1";
};
},
{
glyphname = bulletoperator;
layers = (
{
layerId = "BD4CBFBD-470E-43A2-AFCF-3289E9F05BB1";
paths = (
{
closed = 1;
nodes = (
"368 702 OFFCURVE",
"449 788 OFFCURVE",
"512 788 QCURVE SMOOTH",
"575 788 OFFCURVE",
"656 702 OFFCURVE",
"656 644 QCURVE SMOOTH",
"656 587 OFFCURVE",
"575 501 OFFCURVE",
"512 501 QCURVE SMOOTH",
"449 501 OFFCURVE",
"368 587 OFFCURVE",
"368 644 QCURVE SMOOTH"
);
}
);
width = 1024;
}
);
unicode = 2219;
userData = {
public.markColor = "0.3216,0.6784,0.4118,1";
};
},
{
glyphname = numbersign;
layers = (
{
layerId = "BD4CBFBD-470E-43A2-AFCF-3289E9F05BB1";
paths = (
{
closed = 1;
nodes = (
"84 608 LINE",
"1245 608 LINE",
"1245 453 LINE",
"84 453 LINE"
);
},
{
closed = 1;
nodes = (
"179 1028 LINE",
"1340 1028 LINE",
"1340 873 LINE",
"179 873 LINE"
);
},
{
closed = 1;
nodes = (
"676 1466 LINE",
"774 1439 LINE",
"243 -5 LINE",
"144 22 LINE"
);
},
{
closed = 1;
nodes = (
"1189 1466 LINE",
"1288 1439 LINE",
"756 -5 LINE",
"657 22 LINE"
);
}
);
width = 1424;
}
);
unicode = 0023;
userData = {
public.markColor = "0.3216,0.6784,0.4118,1";
};
},
{
glyphname = percent;
layers = (
{
layerId = "BD4CBFBD-470E-43A2-AFCF-3289E9F05BB1";
paths = (
{
closed = 1;
nodes = (
"129 1273 OFFCURVE",
"385 1522 OFFCURVE",
"577 1522 QCURVE SMOOTH",
"769 1522 OFFCURVE",
"1029 1291 OFFCURVE",
"1029 1087 QCURVE SMOOTH",
"1029 896 OFFCURVE",
"765 641 OFFCURVE",
"574 641 QCURVE SMOOTH",
"381 641 OFFCURVE",
"129 876 OFFCURVE",
"129 1081 QCURVE SMOOTH"
);
},
{
closed = 1;
nodes = (
"282 947 OFFCURVE",
"438 751 OFFCURVE",
"575 751 QCURVE SMOOTH",
"722 751 OFFCURVE",
"876 928 OFFCURVE",
"876 1087 QCURVE SMOOTH",
"876 1232 OFFCURVE",
"697 1412 OFFCURVE",
"577 1412 QCURVE SMOOTH",
"449 1412 OFFCURVE",
"280 1249 OFFCURVE",
"282 1098 QCURVE SMOOTH"
);
},
{
closed = 1;
nodes = (
"1839 1529 LINE",
"1941 1435 LINE",
"550 -69 LINE",
"448 25 LINE"
);
},
{
closed = 1;
nodes = (
"1406 610 OFFCURVE",
"1662 859 OFFCURVE",
"1854 859 QCURVE SMOOTH",
"2046 859 OFFCURVE",
"2306 628 OFFCURVE",
"2306 424 QCURVE SMOOTH",
"2306 233 OFFCURVE",
"2042 -22 OFFCURVE",
"1851 -22 QCURVE SMOOTH",
"1658 -22 OFFCURVE",
"1406 213 OFFCURVE",
"1406 418 QCURVE SMOOTH"
);
},
{
closed = 1;
nodes = (
"1559 284 OFFCURVE",
"1715 88 OFFCURVE",
"1852 88 QCURVE SMOOTH",
"1999 88 OFFCURVE",
"2153 265 OFFCURVE",
"2153 424 QCURVE SMOOTH",
"2153 569 OFFCURVE",
"1974 749 OFFCURVE",
"1854 749 QCURVE SMOOTH",
"1726 749 OFFCURVE",
"1557 586 OFFCURVE",
"1559 435 QCURVE SMOOTH"
);
}
);
width = 2435;
}
);
unicode = 0025;
userData = {
public.markColor = "0.3216,0.6784,0.4118,1";
};
},
{
glyphname = perthousand;
layers = (
{
layerId = "BD4CBFBD-470E-43A2-AFCF-3289E9F05BB1";
paths = (
{
closed = 1;
nodes = (
"129 1273 OFFCURVE",
"385 1522 OFFCURVE",
"577 1522 QCURVE SMOOTH",
"769 1522 OFFCURVE",
"1029 1291 OFFCURVE",
"1029 1087 QCURVE SMOOTH",
"1029 896 OFFCURVE",
"765 641 OFFCURVE",
"574 641 QCURVE SMOOTH",
"381 641 OFFCURVE",
"129 876 OFFCURVE",
"129 1081 QCURVE SMOOTH"
);
},
{
closed = 1;
nodes = (
"282 947 OFFCURVE",
"438 751 OFFCURVE",
"575 751 QCURVE SMOOTH",
"722 751 OFFCURVE",
"876 928 OFFCURVE",
"876 1087 QCURVE SMOOTH",
"876 1232 OFFCURVE",
"697 1412 OFFCURVE",
"577 1412 QCURVE SMOOTH",
"449 1412 OFFCURVE",
"280 1249 OFFCURVE",
"282 1098 QCURVE SMOOTH"
);
},
{
closed = 1;
nodes = (
"1839 1529 LINE",
"1941 1435 LINE",
"550 -69 LINE",
"448 25 LINE"
);
},
{
closed = 1;
nodes = (
"1406 610 OFFCURVE",
"1662 859 OFFCURVE",
"1854 859 QCURVE SMOOTH",
"2046 859 OFFCURVE",
"2306 628 OFFCURVE",
"2306 424 QCURVE SMOOTH",
"2306 233 OFFCURVE",
"2042 -22 OFFCURVE",
"1851 -22 QCURVE SMOOTH",
"1658 -22 OFFCURVE",
"1406 213 OFFCURVE",
"1406 418 QCURVE SMOOTH"
);
},
{
closed = 1;
nodes = (
"1559 284 OFFCURVE",
"1715 88 OFFCURVE",
"1852 88 QCURVE SMOOTH",
"1999 88 OFFCURVE",
"2153 265 OFFCURVE",
"2153 424 QCURVE SMOOTH",
"2153 569 OFFCURVE",
"1974 749 OFFCURVE",
"1854 749 QCURVE SMOOTH",
"1726 749 OFFCURVE",
"1557 586 OFFCURVE",
"1559 435 QCURVE SMOOTH"
);
},
{
closed = 1;
nodes = (
"2442 610 OFFCURVE",
"2698 859 OFFCURVE",
"2890 859 QCURVE SMOOTH",
"3082 859 OFFCURVE",
"3342 628 OFFCURVE",
"3342 424 QCURVE SMOOTH",
"3342 233 OFFCURVE",
"3078 -22 OFFCURVE",
"2887 -22 QCURVE SMOOTH",
"2694 -22 OFFCURVE",
"2442 213 OFFCURVE",
"2442 418 QCURVE SMOOTH"
);
},
{
closed = 1;
nodes = (
"2595 284 OFFCURVE",
"2751 88 OFFCURVE",
"2888 88 QCURVE SMOOTH",
"3035 88 OFFCURVE",
"3189 265 OFFCURVE",
"3189 424 QCURVE SMOOTH",
"3189 569 OFFCURVE",
"3010 749 OFFCURVE",
"2890 749 QCURVE SMOOTH",
"2762 749 OFFCURVE",
"2593 586 OFFCURVE",
"2595 435 QCURVE SMOOTH"
);
}
);
width = 3471;
}
);
unicode = 2030;
userData = {
public.markColor = "0.3216,0.6784,0.4118,1";
};
},
{
glyphname = fraction;
layers = (
{
layerId = "BD4CBFBD-470E-43A2-AFCF-3289E9F05BB1";
paths = (
{
closed = 1;
nodes = (
"738 1529 LINE",
"840 1464 LINE",
"-318 -40 LINE",
"-420 25 LINE"
);
}
);
width = 420;
}
);
unicode = 2044;
userData = {
public.markColor = "0.3216,0.6784,0.4118,1";
};
},
{
glyphname = dollar;
layers = (
{
layerId = "BD4CBFBD-470E-43A2-AFCF-3289E9F05BB1";
paths = (
{
closed = 1;
nodes = (
"105 353 LINE",
"169 263 OFFCURVE",
"426 122 OFFCURVE",
"609 122 QCURVE SMOOTH",
"785 122 OFFCURVE",
"1004 271 OFFCURVE",
"1004 393 QCURVE SMOOTH",
"1004 530 OFFCURVE",
"768 679 OFFCURVE",
"556 723 QCURVE SMOOTH",
"304 776 OFFCURVE",
"60 985 OFFCURVE",
"60 1136 QCURVE SMOOTH",
"60 1294 OFFCURVE",
"338 1501 OFFCURVE",
"580 1501 QCURVE SMOOTH",
"728 1501 OFFCURVE",
"990 1436 OFFCURVE",
"1085 1373 QCURVE",
"1019 1254 LINE",
"953 1296 OFFCURVE",
"723 1381 OFFCURVE",
"585 1381 QCURVE SMOOTH",
"402 1381 OFFCURVE",
"222 1258 OFFCURVE",
"222 1162 QCURVE SMOOTH",
"222 1064 OFFCURVE",
"377 933 OFFCURVE",
"634 873 QCURVE SMOOTH",
"891 813 OFFCURVE",
"1166 598 OFFCURVE",
"1166 420 QCURVE SMOOTH",
"1166 238 OFFCURVE",
"863 1 OFFCURVE",
"612 1 QCURVE SMOOTH",
"394 1 OFFCURVE",
"99 130 OFFCURVE",
"11 250 QCURVE"
);
},
{
closed = 1;
nodes = (
"514 52 LINE",
"533 52 LINE",
"533 820 LINE",
"652 778 LINE",
"652 52 LINE",
"674 52 LINE",
"674 -140 LINE",
"514 -190 LINE"
);
},
{
closed = 1;
nodes = (
"672 1649 LINE",
"672 1418 LINE",
"652 1418 LINE",
"652 778 LINE",
"533 820 LINE",
"533 1418 LINE",
"513 1418 LINE",
"513 1610 LINE"
);
}
);
width = 1237;
}
);
unicode = 0024;
userData = {
public.markColor = "0.3216,0.6784,0.4118,1";
};
},
{
glyphname = cent;
layers = (
{
layerId = "BD4CBFBD-470E-43A2-AFCF-3289E9F05BB1";
paths = (
{
closed = 1;
nodes = (
"91 708 OFFCURVE",
"471 1027 OFFCURVE",
"773 1027 QCURVE SMOOTH",
"918 1027 OFFCURVE",
"1137 981 OFFCURVE",
"1179 957 QCURVE",
"1227 1019 LINE",
"1320 990 LINE",
"1343 664 LINE",
"1236 647 LINE",
"1209 715 LINE SMOOTH",
"1172 808 OFFCURVE",
"954 916 OFFCURVE",
"774 916 QCURVE SMOOTH",
"555 916 OFFCURVE",
"268 705 OFFCURVE",
"268 511 QCURVE SMOOTH",
"268 329 OFFCURVE",
"542 90 OFFCURVE",
"793 90 QCURVE SMOOTH",
"968 90 OFFCURVE",
"1265 179 OFFCURVE",
"1342 240 QCURVE",
"1394 160 LINE",
"1321 86 OFFCURVE",
"985 -30 OFFCURVE",
"765 -30 QCURVE SMOOTH",
"473 -30 OFFCURVE",
"91 260 OFFCURVE",
"91 497 QCURVE SMOOTH"
);
},
{
closed = 1;
nodes = (
"709 52 LINE",
"721 52 LINE",
"721 520 LINE",
"845 478 LINE",
"845 52 LINE",
"859 52 LINE",
"859 -160 LINE",
"709 -210 LINE"
);
},
{
closed = 1;
nodes = (
"858 1209 LINE",
"858 988 LINE",
"845 988 LINE",
"845 478 LINE",
"721 520 LINE",
"721 988 LINE",
"708 988 LINE",
"708 1170 LINE"
);
}
);
width = 1455;
}
);
unicode = 00A2;
userData = {
public.markColor = "0.3216,0.6784,0.4118,1";
};
},
{
glyphname = sterling;
layers = (
{
layerId = "BD4CBFBD-470E-43A2-AFCF-3289E9F05BB1";
paths = (
{
closed = 1;
nodes = (
"708 394 OFFCURVE",
"584 194 OFFCURVE",
"482 141 QCURVE",
"492 115 LINE",
"1069 108 LINE",
"1223 372 LINE",
"1339 372 LINE",
"1210 0 LINE",
"91 0 LINE",
"23 90 LINE",
"89 153 LINE",
"336 142 OFFCURVE",
"559 356 OFFCURVE",
"559 480 QCURVE SMOOTH",
"559 544 OFFCURVE",
"463 676 OFFCURVE",
"398 747 QCURVE SMOOTH",
"311 842 OFFCURVE",
"193 1039 OFFCURVE",
"193 1146 QCURVE SMOOTH",
"193 1279 OFFCURVE",
"445 1501 OFFCURVE",
"688 1501 QCURVE SMOOTH",
"881 1501 OFFCURVE",
"1145 1407 OFFCURVE",
"1251 1328 QCURVE",
"1160 1211 LINE",
"1081 1277 OFFCURVE",
"837 1371 OFFCURVE",
"680 1371 QCURVE SMOOTH",
"508 1371 OFFCURVE",
"353 1246 OFFCURVE",
"353 1163 QCURVE SMOOTH",
"353 1087 OFFCURVE",
"461 923 OFFCURVE",
"545 836 QCURVE SMOOTH",
"620 759 OFFCURVE",
"708 609 OFFCURVE",
"708 530 QCURVE SMOOTH"
);
},
{
closed = 1;
nodes = (
"204 707 LINE",
"1158 707 LINE",
"1119 581 LINE",
"235 581 LINE"
);
}
);
width = 1394;
}
);
unicode = 00A3;
userData = {
public.markColor = "0.3216,0.6784,0.4118,1";
};
},
{
glyphname = currency;
layers = (
{
layerId = "BD4CBFBD-470E-43A2-AFCF-3289E9F05BB1";
paths = (
{
closed = 1;
nodes = (
"219 967 OFFCURVE",
"505 1272 OFFCURVE",
"737 1272 QCURVE SMOOTH",
"970 1272 OFFCURVE",
"1259 987 OFFCURVE",
"1259 756 QCURVE SMOOTH",
"1259 540 OFFCURVE",
"975 228 OFFCURVE",
"743 228 QCURVE SMOOTH",
"510 228 OFFCURVE",
"219 517 OFFCURVE",
"219 750 QCURVE SMOOTH"
);
},
{
closed = 1;
nodes = (
"354 592 OFFCURVE",
"563 345 OFFCURVE",
"735 345 QCURVE SMOOTH",
"920 345 OFFCURVE",
"1119 570 OFFCURVE",
"1119 755 QCURVE SMOOTH",
"1119 927 OFFCURVE",
"910 1149 OFFCURVE",
"737 1149 QCURVE SMOOTH",
"550 1149 OFFCURVE",
"352 946 OFFCURVE",
"353 770 QCURVE SMOOTH"
);
},
{
closed = 1;
nodes = (
"112 1269 LINE",
"228 1382 LINE",
"489 1121 LINE",
"373 1008 LINE"
);
},
{
closed = 1;
nodes = (
"1012 1121 LINE",
"1273 1382 LINE",
"1389 1269 LINE",
"1128 1008 LINE"
);
},
{
closed = 1;
nodes = (
"499 359 LINE",
"238 98 LINE",
"112 211 LINE",
"373 472 LINE"
);
},
{
closed = 1;
nodes = (
"1389 211 LINE",
"1273 98 LINE",
"1012 359 LINE",
"1128 472 LINE"
);
}
);
width = 1500;
}
);
unicode = 00A4;
userData = {
public.markColor = "0.3216,0.6784,0.4118,1";
};
},
{
glyphname = yen;
layers = (
{
layerId = "BD4CBFBD-470E-43A2-AFCF-3289E9F05BB1";
paths = (
{
closed = 1;
nodes = (
"315 753 LINE",
"1484 753 LINE",
"1454 627 LINE",
"345 627 LINE"
);
},
{
closed = 1;
nodes = (
"526 976 LINE",
"202 1360 LINE",
"0 1386 LINE",
"0 1500 LINE",
"647 1500 LINE",
"647 1386 LINE",
"436 1357 LINE",
"676 1057 LINE",
"930 756 LINE",
"1196 1078 LINE",
"1409 1358 LINE",
"1192 1386 LINE",
"1192 1500 LINE",
"1798 1500 LINE",
"1798 1386 LINE",
"1590 1359 LINE",
"1297 1011 LINE",
"988 632 LINE",
"990 129 LINE",
"1208 94 LINE",
"1208 0 LINE",
"594 0 LINE",
"594 94 LINE",
"815 129 LINE",
"817 627 LINE"
);
},
{
closed = 1;
nodes = (
"375 457 LINE",
"1424 457 LINE",
"1394 331 LINE",
"405 331 LINE"
);
}
);
width = 1798;
}
);
unicode = 00A5;
userData = {
public.markColor = "0.3216,0.6784,0.4118,1";
};
},
{
glyphname = franc;
layers = (
{
layerId = "BD4CBFBD-470E-43A2-AFCF-3289E9F05BB1";
paths = (
{
closed = 1;
nodes = (
"42 94 LINE",
"290 129 LINE",
"292 760 LINE",
"290 1352 LINE",
"42 1386 LINE",
"42 1500 LINE",
"1326 1500 LINE",
"1386 1150 LINE",
"1276 1150 LINE",
"1181 1382 LINE",
"500 1382 LINE",
"470 1362 LINE",
"468 772 LINE",
"470 129 LINE",
"748 94 LINE",
"748 0 LINE",
"42 0 LINE"
);
},
{
closed = 1;
nodes = (
"380 823 LINE",
"1125 830 LINE",
"1160 972 LINE",
"1270 972 LINE",
"1270 570 LINE",
"1160 570 LINE",
"1125 708 LINE",
"380 715 LINE"
);
},
{
closed = 1;
nodes = (
"46 467 LINE",
"860 467 LINE",
"830 341 LINE",
"76 341 LINE"
);
}
);
width = 1491;
}
);
unicode = 20A3;
userData = {
public.markColor = "0.3216,0.6784,0.4118,1";
};
},
{
glyphname = lira;
layers = (
{
layerId = "BD4CBFBD-470E-43A2-AFCF-3289E9F05BB1";
paths = (
{
closed = 1;
nodes = (
"708 394 OFFCURVE",
"584 194 OFFCURVE",
"482 141 QCURVE",
"492 115 LINE",
"1069 108 LINE",
"1223 372 LINE",
"1339 372 LINE",
"1210 0 LINE",
"91 0 LINE",
"23 90 LINE",
"89 153 LINE",
"336 142 OFFCURVE",
"559 356 OFFCURVE",
"559 480 QCURVE SMOOTH",
"559 544 OFFCURVE",
"463 676 OFFCURVE",
"398 747 QCURVE SMOOTH",
"311 842 OFFCURVE",
"193 1039 OFFCURVE",
"193 1146 QCURVE SMOOTH",
"193 1279 OFFCURVE",
"445 1501 OFFCURVE",
"688 1501 QCURVE SMOOTH",
"881 1501 OFFCURVE",
"1145 1407 OFFCURVE",
"1251 1328 QCURVE",
"1160 1211 LINE",
"1081 1277 OFFCURVE",
"837 1371 OFFCURVE",
"680 1371 QCURVE SMOOTH",
"508 1371 OFFCURVE",
"353 1246 OFFCURVE",
"353 1163 QCURVE SMOOTH",
"353 1087 OFFCURVE",
"461 923 OFFCURVE",
"545 836 QCURVE SMOOTH",
"620 759 OFFCURVE",
"708 609 OFFCURVE",
"708 530 QCURVE SMOOTH"
);
},
{
closed = 1;
nodes = (
"224 617 LINE",
"1038 617 LINE",
"999 491 LINE",
"255 491 LINE"
);
},
{
closed = 1;
nodes = (
"164 887 LINE",
"1098 887 LINE",
"1059 761 LINE",
"195 761 LINE"
);
}
);
width = 1394;
}
);
unicode = 20A4;
userData = {
public.markColor = "0.3216,0.6784,0.4118,1";
};
},
{
glyphname = naira;
layers = (
{
layerId = "BD4CBFBD-470E-43A2-AFCF-3289E9F05BB1";
paths = (
{
closed = 1;
nodes = (
"130 94 LINE",
"340 129 LINE",
"342 754 LINE",
"340 1358 LINE",
"130 1392 LINE",
"130 1500 LINE",
"525 1500 LINE",
"1043 838 LINE",
"1492 276 LINE",
"1493 754 LINE",
"1492 1358 LINE",
"1266 1392 LINE",
"1266 1500 LINE",
"1825 1500 LINE",
"1825 1392 LINE",
"1615 1358 LINE",
"1613 754 LINE",
"1610 0 LINE",
"1496 0 LINE",
"928 737 LINE",
"463 1310 LINE",
"462 754 LINE",
"463 129 LINE",
"648 94 LINE",
"648 0 LINE",
"130 0 LINE"
);
},
{
closed = 1;
nodes = (
"1542 545 LINE",
"1542 561 LINE",
"1133 561 LINE",
"1066 664 LINE",
"1542 664 LINE",
"1542 672 LINE",
"1784 672 LINE",
"1824 545 LINE"
);
},
{
closed = 1;
nodes = (
"105 672 LINE",
"406 672 LINE",
"406 664 LINE",
"1066 664 LINE",
"1139 552 LINE",
"406 552 LINE",
"406 546 LINE",
"134 546 LINE"
);
},
{
closed = 1;
nodes = (
"1542 896 LINE",
"1542 900 LINE",
"887 900 LINE",
"809 1018 LINE",
"1542 1018 LINE",
"1542 1024 LINE",
"1784 1024 LINE",
"1824 896 LINE"
);
},
{
closed = 1;
nodes = (
"105 1024 LINE",
"406 1024 LINE",
"406 1012 LINE",
"813 1012 LINE",
"887 901 LINE",
"406 901 LINE",
"406 896 LINE",
"134 896 LINE"
);
}
);
width = 1925;
}
);
unicode = 20A6;
userData = {
public.markColor = "0.3216,0.6784,0.4118,1";
};
},
{
glyphname = peseta;
layers = (
{
layerId = "BD4CBFBD-470E-43A2-AFCF-3289E9F05BB1";
paths = (
{
closed = 1;
nodes = (
"130 100 LINE",
"378 136 LINE",
"380 754 LINE",
"378 1352 LINE",
"130 1386 LINE",
"130 1500 LINE",
"940 1500 LINE SMOOTH",
"1209 1500 OFFCURVE",
"1494 1284 OFFCURVE",
"1494 1072 QCURVE SMOOTH",
"1494 855 OFFCURVE",
"1170 592 OFFCURVE",
"850 592 QCURVE SMOOTH",
"741 592 OFFCURVE",
"521 613 OFFCURVE",
"474 621 QCURVE",
"483 734 LINE",
"542 721 OFFCURVE",
"740 712 OFFCURVE",
"842 712 QCURVE SMOOTH",
"1086 712 OFFCURVE",
"1329 899 OFFCURVE",
"1329 1072 QCURVE SMOOTH",
"1329 1227 OFFCURVE",
"1109 1370 OFFCURVE",
"919 1370 QCURVE SMOOTH",
"586 1370 LINE",
"559 1351 LINE",
"554 764 LINE",
"556 135 LINE",
"814 100 LINE",
"814 0 LINE",
"130 0 LINE"
);
},
{
closed = 1;
nodes = (
"1489 948 LINE",
"1607 976 OFFCURVE",
"1752 1101 OFFCURVE",
"1787 1200 QCURVE",
"1834 1200 LINE",
"1867 1160 LINE",
"1862 985 LINE",
"2203 985 LINE",
"2203 874 LINE",
"1860 874 LINE",
"1850 527 LINE",
"1854 251 LINE SMOOTH",
"1855 166 OFFCURVE",
"1954 101 OFFCURVE",
"2067 109 QCURVE SMOOTH",
"2220 119 LINE",
"2220 34 LINE",
"1887 -8 LINE",
"1792 -8 OFFCURVE",
"1682 93 OFFCURVE",
"1682 183 QCURVE SMOOTH",
"1682 527 LINE",
"1682 862 LINE",
"1489 874 LINE"
);
},
{
closed = 1;
nodes = (
"2219 339 LINE",
"2327 339 LINE",
"2341 280 LINE SMOOTH",
"2361 194 OFFCURVE",
"2589 78 OFFCURVE",
"2733 78 QCURVE SMOOTH",
"2889 78 OFFCURVE",
"3072 167 OFFCURVE",
"3072 260 QCURVE SMOOTH",
"3072 344 OFFCURVE",
"2874 422 OFFCURVE",
"2666 467 QCURVE SMOOTH",
"2444 515 OFFCURVE",
"2266 650 OFFCURVE",
"2266 769 QCURVE SMOOTH",
"2266 889 OFFCURVE",
"2497 1031 OFFCURVE",
"2691 1031 QCURVE SMOOTH",
"2811 1031 OFFCURVE",
"2978 989 OFFCURVE",
"3027 960 QCURVE",
"3048 1000 LINE",
"3150 1000 LINE",
"3150 704 LINE",
"3042 704 LINE",
"3021 791 LINE SMOOTH",
"3006 849 OFFCURVE",
"2799 920 OFFCURVE",
"2696 920 QCURVE SMOOTH",
"2567 920 OFFCURVE",
"2422 849 OFFCURVE",
"2422 790 QCURVE SMOOTH",
"2422 718 OFFCURVE",
"2577 645 OFFCURVE",
"2775 601 QCURVE SMOOTH",
"3007 550 OFFCURVE",
"3231 422 OFFCURVE",
"3231 277 QCURVE SMOOTH",
"3231 140 OFFCURVE",
"2963 -30 OFFCURVE",
"2746 -30 QCURVE SMOOTH",
"2625 -30 OFFCURVE",
"2425 29 OFFCURVE",
"2356 73 QCURVE",
"2303 13 LINE",
"2219 28 LINE"
);
}
);
width = 3365;
}
);
unicode = 20A7;
userData = {
public.markColor = "0.3216,0.6784,0.4118,1";
};
},
{
glyphname = won;
layers = (
{
layerId = "BD4CBFBD-470E-43A2-AFCF-3289E9F05BB1";
paths = (
{
closed = 1;
nodes = (
"17 1500 LINE",
"602 1500 LINE",
"602 1386 LINE",
"387 1352 LINE",
"605 801 LINE",
"843 228 LINE",
"1007 673 LINE",
"1185 1169 LINE",
"1251 1004 LINE",
"1112 624 LINE",
"882 -8 LINE",
"773 -8 LINE",
"466 740 LINE",
"212 1352 LINE",
"17 1386 LINE"
);
},
{
closed = 1;
nodes = (
"843 1500 LINE",
"1403 1500 LINE",
"1403 1386 LINE",
"1207 1353 LINE",
"1418 794 LINE",
"1645 232 LINE",
"1851 803 LINE",
"2036 1352 LINE",
"1819 1386 LINE",
"1819 1500 LINE",
"2398 1500 LINE",
"2398 1386 LINE",
"2184 1352 LINE",
"1962 760 LINE",
"1682 -8 LINE",
"1568 -8 LINE",
"1281 735 LINE",
"1039 1352 LINE",
"843 1386 LINE"
);
},
{
closed = 1;
nodes = (
"1816 545 LINE",
"1816 561 LINE",
"1428 561 LINE",
"1393 663 LINE",
"1853 663 LINE",
"1853 672 LINE",
"2159 672 LINE",
"2122 545 LINE"
);
},
{
closed = 1;
nodes = (
"1929 896 LINE",
"1929 908 LINE",
"1318 908 LINE",
"1282 1015 LINE",
"1967 1015 LINE",
"1967 1024 LINE",
"2252 1024 LINE",
"2207 896 LINE"
);
},
{
closed = 1;
nodes = (
"255 672 LINE",
"580 672 LINE",
"580 663 LINE",
"1393 663 LINE",
"1428 561 LINE",
"636 561 LINE",
"636 545 LINE",
"292 545 LINE"
);
},
{
closed = 1;
nodes = (
"162 1024 LINE",
"466 1024 LINE",
"466 1015 LINE",
"1282 1015 LINE",
"1318 908 LINE",
"504 908 LINE",
"504 896 LINE",
"207 896 LINE"
);
}
);
width = 2415;
}
);
unicode = 20A9;
userData = {
public.markColor = "0.3216,0.6784,0.4118,1";
};
},
{
glyphname = dong;
layers = (
{
layerId = "BD4CBFBD-470E-43A2-AFCF-3289E9F05BB1";
paths = (
{
closed = 1;
nodes = (
"90 722 OFFCURVE",
"467 1010 OFFCURVE",
"803 1010 QCURVE SMOOTH",
"915 1010 OFFCURVE",
"1165 965 OFFCURVE",
"1234 929 QCURVE",
"1231 1381 LINE",
"997 1406 LINE",
"997 1500 LINE",
"1337 1534 LINE",
"1380 1534 LINE",
"1410 1500 LINE",
"1405 538 LINE",
"1408 119 LINE",
"1627 84 LINE",
"1627 0 LINE",
"1285 0 LINE",
"1246 50 LINE",
"1233 149 LINE",
"1166 86 OFFCURVE",
"882 -19 OFFCURVE",
"710 -19 QCURVE SMOOTH",
"434 -19 OFFCURVE",
"90 254 OFFCURVE",
"90 478 QCURVE SMOOTH"
);
},
{
closed = 1;
nodes = (
"268 310 OFFCURVE",
"518 102 OFFCURVE",
"732 102 QCURVE SMOOTH",
"919 102 OFFCURVE",
"1175 202 OFFCURVE",
"1231 262 QCURVE",
"1237 524 LINE",
"1237 785 LINE",
"1181 840 OFFCURVE",
"930 907 OFFCURVE",
"800 907 QCURVE SMOOTH",
"538 907 OFFCURVE",
"268 668 OFFCURVE",
"268 493 QCURVE SMOOTH"
);
},
{
closed = 1;
nodes = (
"185 -124 LINE",
"856 -128 LINE",
"1537 -124 LINE",
"1537 -266 LINE",
"857 -262 LINE",
"185 -266 LINE"
);
},
{
closed = 1;
nodes = (
"667 1250 LINE",
"1294 1247 LINE",
"1590 1250 LINE",
"1590 1121 LINE",
"1293 1125 LINE",
"666 1121 LINE"
);
}
);
width = 1709;
}
);
unicode = 20AB;
userData = {
public.markColor = "0.3216,0.6784,0.4118,1";
};
},
{
glyphname = euro;
layers = (
{
layerId = "BD4CBFBD-470E-43A2-AFCF-3289E9F05BB1";
paths = (
{
closed = 1;
nodes = (
"286 1125 OFFCURVE",
"707 1520 OFFCURVE",
"1019 1520 QCURVE SMOOTH",
"1142 1520 OFFCURVE",
"1359 1456 OFFCURVE",
"1446 1378 QCURVE",
"1368 1288 LINE",
"1282 1346 OFFCURVE",
"1114 1390 OFFCURVE",
"1016 1390 QCURVE SMOOTH",
"752 1390 OFFCURVE",
"460 1088 OFFCURVE",
"460 772 QCURVE SMOOTH",
"460 450 OFFCURVE",
"780 98 OFFCURVE",
"1074 98 QCURVE SMOOTH",
"1142 98 OFFCURVE",
"1323 146 OFFCURVE",
"1420 223 QCURVE",
"1487 141 LINE",
"1394 44 OFFCURVE",
"1169 -22 OFFCURVE",
"1074 -22 QCURVE SMOOTH",
"712 -22 OFFCURVE",
"286 374 OFFCURVE",
"286 746 QCURVE SMOOTH"
);
},
{
closed = 1;
nodes = (
"132 984 LINE",
"1252 984 LINE",
"1294 858 LINE",
"98 858 LINE"
);
},
{
closed = 1;
nodes = (
"79 667 LINE",
"1278 667 LINE",
"1236 541 LINE",
"84 541 LINE"
);
}
);
width = 1513;
}
);
unicode = 20AC;
userData = {
public.markColor = "0.3216,0.6784,0.4118,1";
};
},
{
glyphname = florin;
layers = (
{
layerId = "BD4CBFBD-470E-43A2-AFCF-3289E9F05BB1";
paths = (
{
closed = 1;
nodes = (
"513 -154 OFFCURVE",
"346 -309 OFFCURVE",
"226 -309 QCURVE SMOOTH",
"166 -309 OFFCURVE",
"86 -298 OFFCURVE",
"58 -289 QCURVE SMOOTH",
"27 -279 LINE",
"43 -172 LINE",
"62 -178 LINE SMOOTH",
"93 -188 OFFCURVE",
"149 -197 OFFCURVE",
"182 -197 QCURVE SMOOTH",
"258 -197 OFFCURVE",
"355 -112 OFFCURVE",
"353 -10 QCURVE SMOOTH",
"334 860 LINE",
"91 872 LINE",
"81 966 LINE",
"326 984 LINE",
"320 1264 LINE SMOOTH",
"317 1381 OFFCURVE",
"481 1518 OFFCURVE",
"617 1518 QCURVE SMOOTH",
"674 1518 OFFCURVE",
"756 1507 OFFCURVE",
"784 1497 QCURVE SMOOTH",
"806 1489 LINE",
"790 1382 LINE",
"769 1389 LINE SMOOTH",
"748 1396 OFFCURVE",
"689 1406 OFFCURVE",
"645 1406 QCURVE SMOOTH",
"576 1406 OFFCURVE",
"478 1322 OFFCURVE",
"482 1229 QCURVE SMOOTH",
"492 985 LINE",
"799 985 LINE",
"799 883 LINE",
"492 872 LINE",
"511 -45 LINE SMOOTH"
);
}
);
width = 871;
}
);
unicode = 0192;
userData = {
public.markColor = "0.3216,0.6784,0.4118,1";
};
},
{
glyphname = kip;
layers = (
{
layerId = "BD4CBFBD-470E-43A2-AFCF-3289E9F05BB1";
paths = (
{
closed = 1;
nodes = (
"135 94 LINE",
"383 129 LINE",
"385 754 LINE",
"383 1358 LINE",
"135 1392 LINE",
"135 1500 LINE",
"807 1500 LINE",
"807 1392 LINE",
"562 1358 LINE",
"560 754 LINE",
"562 129 LINE",
"807 94 LINE",
"807 0 LINE",
"135 0 LINE"
);
},
{
closed = 1;
nodes = (
"478 629 LINE",
"1421 1358 LINE",
"1217 1392 LINE",
"1217 1500 LINE",
"1872 1500 LINE",
"1872 1392 LINE",
"1644 1358 LINE",
"940 839 LINE",
"888 799 LINE",
"478 481 LINE"
);
},
{
closed = 1;
nodes = (
"953 934 LINE",
"1772 129 LINE",
"1986 94 LINE",
"1986 0 LINE",
"1293 0 LINE",
"1293 94 LINE",
"1517 129 LINE",
"825 815 LINE"
);
},
{
closed = 1;
nodes = (
"1033 765 LINE",
"1033 781 LINE",
"954 781 LINE",
"887 883 LINE",
"943 883 LINE",
"943 892 LINE",
"1650 892 LINE",
"1695 765 LINE"
);
},
{
closed = 1;
nodes = (
"176 891 LINE",
"507 891 LINE",
"507 883 LINE",
"887 883 LINE",
"954 781 LINE",
"507 781 LINE",
"507 765 LINE",
"210 765 LINE"
);
}
);
width = 1954;
}
);
unicode = 20AD;
userData = {
public.markColor = "0.3216,0.6784,0.4118,1";
};
},
{
glyphname = peso;
layers = (
{
layerId = "BD4CBFBD-470E-43A2-AFCF-3289E9F05BB1";
paths = (
{
closed = 1;
nodes = (
"112 94 LINE",
"305 129 LINE",
"307 761 LINE",
"305 1377 LINE",
"112 1391 LINE",
"112 1500 LINE",
"804 1521 LINE SMOOTH",
"1067 1529 OFFCURVE",
"1363 1235 OFFCURVE",
"1363 1002 QCURVE SMOOTH",
"1363 769 OFFCURVE",
"1040 459 OFFCURVE",
"768 459 QCURVE SMOOTH",
"640 459 OFFCURVE",
"474 481 OFFCURVE",
"403 498 QCURVE",
"412 604 LINE",
"487 583 OFFCURVE",
"670 572 OFFCURVE",
"768 572 QCURVE SMOOTH",
"971 572 OFFCURVE",
"1198 805 OFFCURVE",
"1198 1002 QCURVE SMOOTH",
"1198 1199 OFFCURVE",
"986 1407 OFFCURVE",
"788 1407 QCURVE SMOOTH",
"512 1407 LINE",
"478 1385 LINE",
"475 771 LINE",
"477 129 LINE",
"703 94 LINE",
"703 0 LINE",
"112 0 LINE"
);
},
{
closed = 1;
nodes = (
"1222 773 LINE",
"1222 778 LINE",
"869 778 LINE",
"796 890 LINE",
"1252 890 LINE",
"1252 895 LINE",
"1473 895 LINE",
"1483 773 LINE"
);
},
{
closed = 1;
nodes = (
"65 894 LINE",
"386 894 LINE",
"386 890 LINE",
"796 890 LINE",
"869 779 LINE",
"386 779 LINE",
"386 772 LINE",
"104 772 LINE"
);
},
{
closed = 1;
nodes = (
"1282 1079 LINE",
"1282 1080 LINE",
"797 1080 LINE",
"719 1198 LINE",
"1262 1198 LINE",
"1262 1201 LINE",
"1504 1201 LINE",
"1514 1079 LINE"
);
},
{
closed = 1;
nodes = (
"65 1201 LINE",
"386 1201 LINE",
"386 1198 LINE",
"719 1198 LINE",
"797 1081 LINE",
"386 1081 LINE",
"386 1079 LINE",
"104 1079 LINE"
);
}
);
width = 1570;
}
);
unicode = 20B1;
userData = {
public.markColor = "0.3216,0.6784,0.4118,1";
};
},
{
glyphname = guarani;
layers = (
{
layerId = "BD4CBFBD-470E-43A2-AFCF-3289E9F05BB1";
paths = (
{
closed = 1;
nodes = (
"68 1070 OFFCURVE",
"515 1520 OFFCURVE",
"858 1520 QCURVE SMOOTH",
"1138 1520 OFFCURVE",
"1488 1286 OFFCURVE",
"1507 1058 QCURVE",
"1357 1058 LINE",
"1329 1213 OFFCURVE",
"1104 1394 OFFCURVE",
"864 1394 QCURVE SMOOTH",
"573 1394 OFFCURVE",
"240 1041 OFFCURVE",
"242 768 QCURVE SMOOTH",
"245 475 OFFCURVE",
"597 105 OFFCURVE",
"877 105 QCURVE SMOOTH",
"1073 105 OFFCURVE",
"1389 227 OFFCURVE",
"1389 353 QCURVE SMOOTH",
"1389 418 LINE SMOOTH",
"1389 490 OFFCURVE",
"1284 549 OFFCURVE",
"1092 563 QCURVE",
"1120 668 LINE",
"1534 668 LINE",
"1568 229 LINE",
"1477 133 OFFCURVE",
"1114 -13 OFFCURVE",
"874 -13 QCURVE SMOOTH",
"532 -13 OFFCURVE",
"68 399 OFFCURVE",
"68 749 QCURVE SMOOTH"
);
},
{
closed = 1;
nodes = (
"536 86 LINE",
"547 81 LINE",
"795 871 LINE",
"904 803 LINE",
"673 54 LINE",
"687 50 LINE",
"635 -109 LINE",
"467 -122 LINE"
);
},
{
closed = 1;
nodes = (
"1175 1618 LINE",
"1111 1424 LINE",
"1096 1428 LINE",
"904 803 LINE",
"795 871 LINE",
"972 1455 LINE",
"958 1460 LINE",
"1010 1618 LINE"
);
}
);
width = 1691;
}
);
unicode = 20B2;
userData = {
public.markColor = "0.3216,0.6784,0.4118,1";
};
},
{
glyphname = cedi;
layers = (
{
layerId = "BD4CBFBD-470E-43A2-AFCF-3289E9F05BB1";
paths = (
{
closed = 1;
nodes = (
"71 1019 OFFCURVE",
"478 1448 OFFCURVE",
"867 1448 QCURVE SMOOTH",
"1118 1448 OFFCURVE",
"1464 1209 OFFCURVE",
"1473 993 QCURVE",
"1323 993 LINE",
"1303 1142 OFFCURVE",
"1085 1331 OFFCURVE",
"851 1331 QCURVE SMOOTH",
"564 1331 OFFCURVE",
"241 1009 OFFCURVE",
"244 728 QCURVE SMOOTH",
"246 457 OFFCURVE",
"605 155 OFFCURVE",
"873 155 QCURVE SMOOTH",
"1048 155 OFFCURVE",
"1320 278 OFFCURVE",
"1392 363 QCURVE",
"1471 280 LINE",
"1364 157 OFFCURVE",
"1063 18 OFFCURVE",
"873 18 QCURVE SMOOTH",
"474 18 OFFCURVE",
"71 426 OFFCURVE",
"71 691 QCURVE SMOOTH"
);
},
{
closed = 1;
nodes = (
"542 105 LINE",
"553 100 LINE",
"795 871 LINE",
"904 803 LINE",
"679 73 LINE",
"693 69 LINE",
"643 -89 LINE",
"475 -102 LINE"
);
},
{
closed = 1;
nodes = (
"1159 1569 LINE",
"1100 1385 LINE",
"1085 1389 LINE",
"904 803 LINE",
"795 871 LINE",
"961 1416 LINE",
"947 1421 LINE",
"994 1569 LINE"
);
}
);
width = 1573;
}
);
unicode = 20B5;
userData = {
public.markColor = "0.3216,0.6784,0.4118,1";
};
},
{
glyphname = colonsign;
layers = (
{
layerId = "BD4CBFBD-470E-43A2-AFCF-3289E9F05BB1";
paths = (
{
closed = 1;
nodes = (
"71 1019 OFFCURVE",
"478 1448 OFFCURVE",
"867 1448 QCURVE SMOOTH",
"1118 1448 OFFCURVE",
"1464 1209 OFFCURVE",
"1473 993 QCURVE",
"1323 993 LINE",
"1303 1142 OFFCURVE",
"1085 1331 OFFCURVE",
"851 1331 QCURVE SMOOTH",
"564 1331 OFFCURVE",
"241 1009 OFFCURVE",
"244 728 QCURVE SMOOTH",
"246 457 OFFCURVE",
"605 155 OFFCURVE",
"873 155 QCURVE SMOOTH",
"1048 155 OFFCURVE",
"1320 278 OFFCURVE",
"1392 363 QCURVE",
"1471 280 LINE",
"1364 157 OFFCURVE",
"1063 18 OFFCURVE",
"873 18 QCURVE SMOOTH",
"474 18 OFFCURVE",
"71 426 OFFCURVE",
"71 691 QCURVE SMOOTH"
);
},
{
closed = 1;
nodes = (
"692 105 LINE",
"703 100 LINE",
"945 871 LINE",
"1054 803 LINE",
"829 73 LINE",
"843 69 LINE",
"793 -89 LINE",
"625 -102 LINE"
);
},
{
closed = 1;
nodes = (
"1309 1569 LINE",
"1236 1336 LINE",
"1221 1340 LINE",
"1054 803 LINE",
"945 871 LINE",
"1097 1367 LINE",
"1083 1372 LINE",
"1144 1569 LINE"
);
},
{
closed = 1;
nodes = (
"404 142 LINE",
"415 137 LINE",
"645 871 LINE",
"754 803 LINE",
"541 110 LINE",
"555 106 LINE",
"505 -52 LINE",
"337 -65 LINE"
);
},
{
closed = 1;
nodes = (
"1009 1569 LINE",
"950 1385 LINE",
"935 1389 LINE",
"754 803 LINE",
"645 871 LINE",
"811 1416 LINE",
"797 1421 LINE",
"844 1569 LINE"
);
}
);
width = 1573;
}
);
unicode = 20A1;
userData = {
public.markColor = "0.3216,0.6784,0.4118,1";
};
},
{
glyphname = rupeeIndian;
layers = (
{
layerId = "BD4CBFBD-470E-43A2-AFCF-3289E9F05BB1";
paths = (
{
closed = 1;
nodes = (
"731 1495 LINE",
"1446 1512 LINE",
"1398 1365 LINE",
"971 1379 LINE",
"1016 1336 OFFCURVE",
"1059 1220 OFFCURVE",
"1059 1149 QCURVE SMOOTH",
"1059 994 OFFCURVE",
"839 779 OFFCURVE",
"680 748 QCURVE",
"810 666 OFFCURVE",
"990 433 OFFCURVE",
"1044 335 QCURVE SMOOTH",
"1127 184 OFFCURVE",
"1288 114 OFFCURVE",
"1411 120 QCURVE",
"1411 20 LINE",
"1198 -6 LINE",
"1069 1 OFFCURVE",
"956 117 OFFCURVE",
"878 274 QCURVE SMOOTH",
"800 432 OFFCURVE",
"564 678 OFFCURVE",
"433 725 QCURVE",
"178 712 LINE",
"146 845 LINE",
"515 845 LINE SMOOTH",
"702 845 OFFCURVE",
"880 1005 OFFCURVE",
"880 1137 QCURVE SMOOTH",
"880 1227 OFFCURVE",
"791 1360 OFFCURVE",
"696 1386 QCURVE",
"54 1372 LINE",
"8 1514 LINE"
);
},
{
closed = 1;
nodes = (
"988 1165 LINE",
"1337 1175 LINE",
"1289 1034 LINE",
"952 1024 LINE",
"952 1038 LINE",
"78 1035 LINE",
"32 1174 LINE",
"988 1150 LINE"
);
}
);
width = 1396;
}
);
unicode = 20B9;
userData = {
public.markColor = "0.3216,0.6784,0.4118,1";
};
},
{
glyphname = liraTurkish;
layers = (
{
layerId = "BD4CBFBD-470E-43A2-AFCF-3289E9F05BB1";
paths = (
{
closed = 1;
nodes = (
"299 47 LINE",
"348 132 LINE",
"362 624 LINE",
"348 1372 LINE",
"134 1386 LINE",
"134 1500 LINE",
"415 1503 LINE",
"835 1520 LINE",
"851 1421 LINE",
"533 1362 LINE",
"516 686 LINE",
"527 149 LINE",
"575 122 LINE",
"765 165 OFFCURVE",
"1171 376 OFFCURVE",
"1222 554 QCURVE SMOOTH",
"1280 758 LINE",
"1397 758 LINE",
"1336 400 LINE",
"1200 246 OFFCURVE",
"732 17 OFFCURVE",
"553 -8 QCURVE SMOOTH",
"403 -29 LINE"
);
},
{
closed = 1;
nodes = (
"104 606 LINE",
"470 720 LINE",
"470 716 LINE",
"942 865 LINE",
"935 724 LINE",
"468 584 LINE",
"468 580 LINE",
"146 479 LINE"
);
},
{
closed = 1;
nodes = (
"106 925 LINE",
"473 1039 LINE",
"473 1036 LINE",
"1003 1188 LINE",
"992 1046 LINE",
"472 902 LINE",
"472 900 LINE",
"149 799 LINE"
);
}
);
width = 1463;
}
);
unicode = 20BA;
userData = {
public.markColor = "0.3216,0.6784,0.4118,1";
};
},
{
glyphname = manat;
layers = (
{
layerId = "BD4CBFBD-470E-43A2-AFCF-3289E9F05BB1";
paths = (
{
closed = 1;
nodes = (
"1578 0 LINE",
"1052 0 LINE",
"1052 94 LINE",
"1229 129 LINE",
"1234 506 LINE",
"1230 926 LINE SMOOTH",
"1228 1118 OFFCURVE",
"987 1286 OFFCURVE",
"774 1286 QCURVE SMOOTH",
"589 1286 OFFCURVE",
"332 1103 OFFCURVE",
"330 906 QCURVE SMOOTH",
"328 506 LINE",
"330 129 LINE",
"518 94 LINE",
"518 0 LINE",
"12 0 LINE",
"12 94 LINE",
"190 129 LINE",
"192 506 LINE",
"189 907 LINE SMOOTH",
"187 1167 OFFCURVE",
"537 1421 OFFCURVE",
"789 1421 QCURVE SMOOTH",
"1095 1421 OFFCURVE",
"1406 1158 OFFCURVE",
"1405 919 QCURVE SMOOTH",
"1403 506 LINE",
"1405 129 LINE",
"1578 94 LINE"
);
},
{
closed = 1;
nodes = (
"715 662 LINE",
"717 1350 LINE",
"696 1530 LINE",
"866 1600 LINE",
"846 1350 LINE",
"850 762 LINE",
"866 330 LINE",
"706 260 LINE"
);
}
);
width = 1590;
}
);
unicode = 20BC;
userData = {
public.markColor = "0.3216,0.6784,0.4118,1";
};
},
{
glyphname = ruble;
layers = (
{
layerId = "BD4CBFBD-470E-43A2-AFCF-3289E9F05BB1";
paths = (
{
closed = 1;
nodes = (
"62 94 LINE",
"270 128 LINE",
"272 754 LINE",
"270 1352 LINE",
"82 1386 LINE",
"82 1500 LINE",
"819 1500 LINE SMOOTH",
"1058 1500 OFFCURVE",
"1318 1284 OFFCURVE",
"1318 1088 QCURVE SMOOTH",
"1318 873 OFFCURVE",
"982 603 OFFCURVE",
"715 603 QCURVE SMOOTH",
"520 603 OFFCURVE",
"215 643 OFFCURVE",
"97 673 QCURVE",
"106 789 LINE",
"216 756 OFFCURVE",
"511 720 OFFCURVE",
"710 720 QCURVE SMOOTH",
"921 720 OFFCURVE",
"1142 910 OFFCURVE",
"1142 1070 QCURVE SMOOTH",
"1142 1227 OFFCURVE",
"953 1382 OFFCURVE",
"793 1382 QCURVE SMOOTH",
"485 1382 LINE",
"451 1360 LINE",
"448 764 LINE",
"450 129 LINE",
"708 94 LINE",
"708 0 LINE",
"62 0 LINE"
);
},
{
closed = 1;
nodes = (
"66 445 LINE",
"890 445 LINE",
"859 309 LINE",
"86 349 LINE"
);
}
);
width = 1362;
}
);
unicode = 20BD;
userData = {
public.markColor = "0.3216,0.6784,0.4118,1";
};
},
{
glyphname = numero;
layers = (
{
layerId = "BD4CBFBD-470E-43A2-AFCF-3289E9F05BB1";
paths = (
{
closed = 1;
nodes = (
"49 93 LINE",
"299 130 LINE",
"313 754 LINE",
"324 1375 LINE",
"121 1398 LINE",
"121 1500 LINE",
"561 1500 LINE",
"977 838 LINE",
"1307 331 LINE",
"1307 754 LINE",
"1293 1364 LINE",
"1031 1398 LINE",
"1031 1500 LINE",
"1653 1500 LINE",
"1653 1398 LINE",
"1427 1364 LINE",
"1437 754 LINE",
"1455 0 LINE",
"1319 0 LINE",
"833 754 LINE",
"451 1325 LINE",
"444 754 LINE",
"434 130 LINE",
"660 93 LINE",
"660 0 LINE",
"49 0 LINE"
);
},
{
closed = 1;
nodes = (
"1646 1190 OFFCURVE",
"1942 1522 OFFCURVE",
"2199 1522 QCURVE SMOOTH",
"2453 1522 OFFCURVE",
"2757 1209 OFFCURVE",
"2757 992 QCURVE SMOOTH",
"2757 790 OFFCURVE",
"2453 451 OFFCURVE",
"2206 451 QCURVE SMOOTH",
"1950 451 OFFCURVE",
"1646 768 OFFCURVE",
"1646 986 QCURVE SMOOTH"
);
},
{
closed = 1;
nodes = (
"1820 813 OFFCURVE",
"2035 553 OFFCURVE",
"2197 553 QCURVE SMOOTH",
"2370 553 OFFCURVE",
"2575 789 OFFCURVE",
"2575 991 QCURVE SMOOTH",
"2575 1180 OFFCURVE",
"2359 1413 OFFCURVE",
"2198 1413 QCURVE SMOOTH",
"2024 1413 OFFCURVE",
"1818 1202 OFFCURVE",
"1819 1008 QCURVE SMOOTH"
);
},
{
closed = 1;
nodes = (
"1847 315 OFFCURVE",
"2047 354 OFFCURVE",
"2203 354 QCURVE SMOOTH",
"2359 354 OFFCURVE",
"2558 315 OFFCURVE",
"2558 281 QCURVE SMOOTH",
"2558 248 OFFCURVE",
"2359 208 OFFCURVE",
"2203 208 QCURVE SMOOTH",
"2047 208 OFFCURVE",
"1847 248 OFFCURVE",
"1847 281 QCURVE SMOOTH"
);
}
);
width = 2857;
}
);
unicode = 2116;
userData = {
public.markColor = "0.3216,0.6784,0.4118,1";
};
},
{
glyphname = hyphen;
layers = (
{
layerId = "BD4CBFBD-470E-43A2-AFCF-3289E9F05BB1";
paths = (
{
closed = 1;
nodes = (
"112 708 LINE",
"548 704 LINE",
"983 708 LINE",
"983 556 LINE",
"548 560 LINE",
"112 556 LINE"
);
}
);
width = 1095;
}
);
unicode = 002D;
userData = {
public.markColor = "0.3216,0.6784,0.4118,1";
};
},
{
glyphname = endash;
layers = (
{
layerId = "BD4CBFBD-470E-43A2-AFCF-3289E9F05BB1";
paths = (
{
closed = 1;
nodes = (
"0 700 LINE",
"503 702 LINE",
"1024 700 LINE",
"1024 562 LINE",
"503 556 LINE",
"0 562 LINE"
);
}
);
width = 1024;
}
);
unicode = 2013;
userData = {
public.markColor = "0.3216,0.6784,0.4118,1";
};
},
{
glyphname = emdash;
layers = (
{
layerId = "BD4CBFBD-470E-43A2-AFCF-3289E9F05BB1";
paths = (
{
closed = 1;
nodes = (
"186 700 LINE",
"1024 702 LINE",
"1862 700 LINE",
"1862 562 LINE",
"1024 556 LINE",
"186 562 LINE"
);
}
);
width = 2048;
}
);
unicode = 2014;
userData = {
public.markColor = "0.3216,0.6784,0.4118,1";
};
},
{
glyphname = underscore;
layers = (
{
layerId = "BD4CBFBD-470E-43A2-AFCF-3289E9F05BB1";
paths = (
{
closed = 1;
nodes = (
"-20 -342 LINE",
"1027 -338 LINE",
"2063 -342 LINE",
"2063 -480 LINE",
"1027 -490 LINE",
"-20 -480 LINE"
);
}
);
width = 2043;
}
);
unicode = 005F;
userData = {
public.markColor = "0.3216,0.6784,0.4118,1";
};
},
{
glyphname = parenleft;
layers = (
{
layerId = "BD4CBFBD-470E-43A2-AFCF-3289E9F05BB1";
paths = (
{
closed = 1;
nodes = (
"82 918 OFFCURVE",
"421 1416 OFFCURVE",
"611 1525 QCURVE",
"694 1466 LINE",
"520 1344 OFFCURVE",
"276 934 OFFCURVE",
"276 672 QCURVE SMOOTH",
"276 407 OFFCURVE",
"525 -4 OFFCURVE",
"694 -122 QCURVE",
"611 -181 LINE",
"421 -72 OFFCURVE",
"82 417 OFFCURVE",
"82 672 QCURVE SMOOTH"
);
}
);
width = 718;
}
);
unicode = 0028;
userData = {
public.markColor = "0.3216,0.6784,0.4118,1";
};
},
{
glyphname = parenright;
layers = (
{
layerId = "BD4CBFBD-470E-43A2-AFCF-3289E9F05BB1";
paths = (
{
closed = 1;
nodes = (
"636 417 OFFCURVE",
"297 -72 OFFCURVE",
"107 -181 QCURVE",
"24 -122 LINE",
"193 -4 OFFCURVE",
"442 407 OFFCURVE",
"442 672 QCURVE SMOOTH",
"442 934 OFFCURVE",
"198 1344 OFFCURVE",
"24 1466 QCURVE",
"107 1525 LINE",
"297 1416 OFFCURVE",
"636 918 OFFCURVE",
"636 672 QCURVE SMOOTH"
);
}
);
width = 718;
}
);
unicode = 0029;
userData = {
public.markColor = "0.3216,0.6784,0.4118,1";
};
},
{
glyphname = bracketleft;
layers = (
{
layerId = "BD4CBFBD-470E-43A2-AFCF-3289E9F05BB1";
paths = (
{
closed = 1;
nodes = (
"133 1362 LINE",
"114 1382 LINE",
"114 1500 LINE",
"612 1500 LINE",
"612 1381 LINE",
"313 1362 LINE",
"301 508 LINE",
"313 -342 LINE",
"612 -361 LINE",
"612 -480 LINE",
"114 -480 LINE",
"114 -362 LINE",
"133 -342 LINE",
"145 508 LINE"
);
}
);
width = 676;
}
);
unicode = 005B;
userData = {
public.markColor = "0.3216,0.6784,0.4118,1";
};
},
{
glyphname = bracketright;
layers = (
{
layerId = "BD4CBFBD-470E-43A2-AFCF-3289E9F05BB1";
paths = (
{
closed = 1;
nodes = (
"64 -361 LINE",
"363 -342 LINE",
"375 508 LINE",
"363 1362 LINE",
"64 1381 LINE",
"64 1500 LINE",
"562 1500 LINE",
"562 1382 LINE",
"543 1362 LINE",
"531 508 LINE",
"543 -342 LINE",
"562 -362 LINE",
"562 -480 LINE",
"64 -480 LINE"
);
}
);
width = 676;
}
);
unicode = 005D;
userData = {
public.markColor = "0.3216,0.6784,0.4118,1";
};
},
{
glyphname = braceleft;
layers = (
{
layerId = "BD4CBFBD-470E-43A2-AFCF-3289E9F05BB1";
paths = (
{
closed = 1;
nodes = (
"20 589 LINE",
"191 599 LINE SMOOTH",
"247 602 OFFCURVE",
"296 660 OFFCURVE",
"296 716 QCURVE SMOOTH",
"296 834 OFFCURVE",
"186 1066 OFFCURVE",
"186 1184 QCURVE SMOOTH",
"186 1343 OFFCURVE",
"357 1510 OFFCURVE",
"513 1510 QCURVE SMOOTH",
"584 1510 OFFCURVE",
"686 1502 OFFCURVE",
"723 1497 QCURVE",
"723 1383 LINE",
"671 1385 OFFCURVE",
"588 1388 OFFCURVE",
"539 1388 QCURVE SMOOTH",
"457 1388 OFFCURVE",
"366 1294 OFFCURVE",
"366 1196 QCURVE SMOOTH",
"366 1094 OFFCURVE",
"452 883 OFFCURVE",
"452 792 QCURVE SMOOTH",
"452 697 OFFCURVE",
"387 571 OFFCURVE",
"336 550 QCURVE",
"399 516 OFFCURVE",
"452 384 OFFCURVE",
"452 314 QCURVE SMOOTH",
"452 223 OFFCURVE",
"336 -78 OFFCURVE",
"336 -180 QCURVE SMOOTH",
"336 -278 OFFCURVE",
"432 -374 OFFCURVE",
"514 -374 QCURVE SMOOTH",
"585 -374 OFFCURVE",
"666 -370 OFFCURVE",
"718 -367 QCURVE",
"718 -479 LINE",
"681 -485 OFFCURVE",
"559 -495 OFFCURVE",
"488 -495 QCURVE SMOOTH",
"332 -495 OFFCURVE",
"156 -327 OFFCURVE",
"156 -168 QCURVE SMOOTH",
"156 -50 OFFCURVE",
"295 246 OFFCURVE",
"295 364 QCURVE",
"295 481 LINE",
"20 481 LINE"
);
}
);
width = 733;
}
);
unicode = 007B;
userData = {
public.markColor = "0.3216,0.6784,0.4118,1";
};
},
{
glyphname = braceright;
layers = (
{
layerId = "BD4CBFBD-470E-43A2-AFCF-3289E9F05BB1";
paths = (
{
closed = 1;
nodes = (
"15 -367 LINE",
"67 -370 OFFCURVE",
"148 -374 OFFCURVE",
"219 -374 QCURVE SMOOTH",
"301 -374 OFFCURVE",
"397 -278 OFFCURVE",
"397 -180 QCURVE SMOOTH",
"397 -78 OFFCURVE",
"281 223 OFFCURVE",
"281 314 QCURVE SMOOTH",
"281 384 OFFCURVE",
"334 516 OFFCURVE",
"397 550 QCURVE",
"346 571 OFFCURVE",
"281 697 OFFCURVE",
"281 792 QCURVE SMOOTH",
"281 883 OFFCURVE",
"367 1094 OFFCURVE",
"367 1196 QCURVE SMOOTH",
"367 1294 OFFCURVE",
"276 1388 OFFCURVE",
"194 1388 QCURVE SMOOTH",
"145 1388 OFFCURVE",
"62 1385 OFFCURVE",
"10 1383 QCURVE",
"10 1497 LINE",
"47 1502 OFFCURVE",
"149 1510 OFFCURVE",
"220 1510 QCURVE SMOOTH",
"376 1510 OFFCURVE",
"547 1343 OFFCURVE",
"547 1184 QCURVE SMOOTH",
"547 1066 OFFCURVE",
"437 834 OFFCURVE",
"437 716 QCURVE SMOOTH",
"437 660 OFFCURVE",
"486 602 OFFCURVE",
"542 599 QCURVE SMOOTH",
"713 589 LINE",
"713 481 LINE",
"438 481 LINE",
"438 364 LINE",
"438 246 OFFCURVE",
"577 -50 OFFCURVE",
"577 -168 QCURVE SMOOTH",
"577 -327 OFFCURVE",
"401 -495 OFFCURVE",
"245 -495 QCURVE SMOOTH",
"174 -495 OFFCURVE",
"52 -485 OFFCURVE",
"15 -479 QCURVE"
);
}
);
width = 733;
}
);
unicode = 007D;
userData = {
public.markColor = "0.3216,0.6784,0.4118,1";
};
},
{
glyphname = quotesingle;
layers = (
{
layerId = "BD4CBFBD-470E-43A2-AFCF-3289E9F05BB1";
paths = (
{
closed = 1;
nodes = (
"168 1423 LINE",
"168 1471 OFFCURVE",
"229 1558 OFFCURVE",
"292 1558 QCURVE SMOOTH",
"355 1558 OFFCURVE",
"416 1471 OFFCURVE",
"416 1423 QCURVE",
"328 964 LINE",
"254 964 LINE"
);
}
);
width = 584;
}
);
unicode = 0027;
userData = {
public.markColor = "0.3216,0.6784,0.4118,1";
};
},
{
glyphname = quotedbl;
layers = (
{
layerId = "BD4CBFBD-470E-43A2-AFCF-3289E9F05BB1";
paths = (
{
closed = 1;
nodes = (
"168 1423 LINE",
"168 1471 OFFCURVE",
"229 1558 OFFCURVE",
"292 1558 QCURVE SMOOTH",
"355 1558 OFFCURVE",
"416 1471 OFFCURVE",
"416 1423 QCURVE",
"338 964 LINE",
"244 964 LINE"
);
},
{
closed = 1;
nodes = (
"558 1423 LINE",
"558 1471 OFFCURVE",
"619 1558 OFFCURVE",
"682 1558 QCURVE SMOOTH",
"745 1558 OFFCURVE",
"806 1471 OFFCURVE",
"806 1423 QCURVE",
"728 964 LINE",
"634 964 LINE"
);
}
);
width = 974;
}
);
unicode = 0022;
userData = {
public.markColor = "0.3216,0.6784,0.4118,1";
};
},
{
glyphname = quoteleft;
layers = (
{
layerId = "BD4CBFBD-470E-43A2-AFCF-3289E9F05BB1";
paths = (
{
closed = 1;
nodes = (
"435 1476 OFFCURVE",
"331 1358 OFFCURVE",
"316 1291 QCURVE",
"387 1291 OFFCURVE",
"467 1216 OFFCURVE",
"467 1157 QCURVE SMOOTH",
"467 1099 OFFCURVE",
"386 1023 OFFCURVE",
"323 1023 QCURVE SMOOTH",
"264 1023 OFFCURVE",
"168 1118 OFFCURVE",
"168 1195 QCURVE SMOOTH",
"168 1317 OFFCURVE",
"327 1505 OFFCURVE",
"432 1555 QCURVE",
"475 1506 LINE"
);
}
);
width = 600;
}
);
unicode = 2018;
userData = {
public.markColor = "0.3216,0.6784,0.4118,1";
};
},
{
glyphname = quoteright;
layers = (
{
layerId = "BD4CBFBD-470E-43A2-AFCF-3289E9F05BB1";
paths = (
{
closed = 1;
nodes = (
"195 1092 OFFCURVE",
"299 1210 OFFCURVE",
"314 1277 QCURVE",
"243 1277 OFFCURVE",
"163 1352 OFFCURVE",
"163 1411 QCURVE SMOOTH",
"163 1469 OFFCURVE",
"244 1546 OFFCURVE",
"307 1546 QCURVE SMOOTH",
"366 1546 OFFCURVE",
"462 1450 OFFCURVE",
"462 1373 QCURVE SMOOTH",
"462 1251 OFFCURVE",
"303 1063 OFFCURVE",
"198 1013 QCURVE",
"155 1062 LINE"
);
}
);
width = 600;
}
);
unicode = 2019;
userData = {
public.markColor = "0.3216,0.6784,0.4118,1";
};
},
{
glyphname = quotedblleft;
layers = (
{
layerId = "BD4CBFBD-470E-43A2-AFCF-3289E9F05BB1";
paths = (
{
closed = 1;
nodes = (
"435 1476 OFFCURVE",
"331 1358 OFFCURVE",
"316 1291 QCURVE",
"387 1291 OFFCURVE",
"467 1216 OFFCURVE",
"467 1157 QCURVE SMOOTH",
"467 1099 OFFCURVE",
"386 1023 OFFCURVE",
"323 1023 QCURVE SMOOTH",
"264 1023 OFFCURVE",
"168 1118 OFFCURVE",
"168 1195 QCURVE SMOOTH",
"168 1317 OFFCURVE",
"327 1505 OFFCURVE",
"432 1555 QCURVE",
"475 1506 LINE"
);
},
{
closed = 1;
nodes = (
"865 1476 OFFCURVE",
"761 1358 OFFCURVE",
"746 1291 QCURVE",
"817 1291 OFFCURVE",
"897 1216 OFFCURVE",
"897 1157 QCURVE SMOOTH",
"897 1099 OFFCURVE",
"816 1023 OFFCURVE",
"753 1023 QCURVE SMOOTH",
"694 1023 OFFCURVE",
"598 1118 OFFCURVE",
"598 1195 QCURVE SMOOTH",
"598 1317 OFFCURVE",
"757 1505 OFFCURVE",
"862 1555 QCURVE",
"905 1506 LINE"
);
}
);
width = 1030;
}
);
unicode = 201C;
userData = {
public.markColor = "0.3216,0.6784,0.4118,1";
};
},
{
glyphname = quotedblright;
layers = (
{
layerId = "BD4CBFBD-470E-43A2-AFCF-3289E9F05BB1";
paths = (
{
closed = 1;
nodes = (
"195 1092 OFFCURVE",
"299 1210 OFFCURVE",
"314 1277 QCURVE",
"243 1277 OFFCURVE",
"163 1352 OFFCURVE",
"163 1411 QCURVE SMOOTH",
"163 1469 OFFCURVE",
"244 1546 OFFCURVE",
"307 1546 QCURVE SMOOTH",
"366 1546 OFFCURVE",
"462 1450 OFFCURVE",
"462 1373 QCURVE SMOOTH",
"462 1251 OFFCURVE",
"303 1063 OFFCURVE",
"198 1013 QCURVE",
"155 1062 LINE"
);
},
{
closed = 1;
nodes = (
"625 1092 OFFCURVE",
"729 1210 OFFCURVE",
"744 1277 QCURVE",
"673 1277 OFFCURVE",
"593 1352 OFFCURVE",
"593 1411 QCURVE SMOOTH",
"593 1469 OFFCURVE",
"674 1546 OFFCURVE",
"737 1546 QCURVE SMOOTH",
"796 1546 OFFCURVE",
"892 1450 OFFCURVE",
"892 1373 QCURVE SMOOTH",
"892 1251 OFFCURVE",
"733 1063 OFFCURVE",
"628 1013 QCURVE",
"585 1062 LINE"
);
}
);
width = 1030;
}
);
unicode = 201D;
userData = {
public.markColor = "0.3216,0.6784,0.4118,1";
};
},
{
glyphname = quotesinglbase;
layers = (
{
layerId = "BD4CBFBD-470E-43A2-AFCF-3289E9F05BB1";
paths = (
{
closed = 1;
nodes = (
"187 -199 OFFCURVE",
"291 -81 OFFCURVE",
"306 -14 QCURVE",
"235 -14 OFFCURVE",
"155 61 OFFCURVE",
"155 120 QCURVE SMOOTH",
"155 178 OFFCURVE",
"236 255 OFFCURVE",
"299 255 QCURVE SMOOTH",
"358 255 OFFCURVE",
"454 159 OFFCURVE",
"454 82 QCURVE SMOOTH",
"454 -40 OFFCURVE",
"295 -228 OFFCURVE",
"190 -278 QCURVE",
"147 -229 LINE"
);
}
);
width = 600;
}
);
unicode = 201A;
userData = {
public.markColor = "0.3216,0.6784,0.4118,1";
};
},
{
glyphname = quotedblbase;
layers = (
{
layerId = "BD4CBFBD-470E-43A2-AFCF-3289E9F05BB1";
paths = (
{
closed = 1;
nodes = (
"187 -199 OFFCURVE",
"291 -81 OFFCURVE",
"306 -14 QCURVE",
"235 -14 OFFCURVE",
"155 61 OFFCURVE",
"155 120 QCURVE SMOOTH",
"155 178 OFFCURVE",
"236 255 OFFCURVE",
"299 255 QCURVE SMOOTH",
"358 255 OFFCURVE",
"454 159 OFFCURVE",
"454 82 QCURVE SMOOTH",
"454 -40 OFFCURVE",
"295 -228 OFFCURVE",
"190 -278 QCURVE",
"147 -229 LINE"
);
},
{
closed = 1;
nodes = (
"617 -199 OFFCURVE",
"721 -81 OFFCURVE",
"736 -14 QCURVE",
"665 -14 OFFCURVE",
"585 61 OFFCURVE",
"585 120 QCURVE SMOOTH",
"585 178 OFFCURVE",
"666 255 OFFCURVE",
"729 255 QCURVE SMOOTH",
"788 255 OFFCURVE",
"884 159 OFFCURVE",
"884 82 QCURVE SMOOTH",
"884 -40 OFFCURVE",
"725 -228 OFFCURVE",
"620 -278 QCURVE",
"577 -229 LINE"
);
}
);
width = 1030;
}
);
unicode = 201E;
userData = {
public.markColor = "0.3216,0.6784,0.4118,1";
};
},
{
glyphname = guilsinglleft;
layers = (
{
layerId = "BD4CBFBD-470E-43A2-AFCF-3289E9F05BB1";
paths = (
{
closed = 1;
nodes = (
"25 620 OFFCURVE",
"705 978 OFFCURVE",
"788 1024 QCURVE SMOOTH",
"860 1064 OFFCURVE",
"926 955 OFFCURVE",
"857 914 QCURVE SMOOTH",
"693 817 OFFCURVE",
"283 599 OFFCURVE",
"283 599 QCURVE",
"283 599 OFFCURVE",
"765 347 OFFCURVE",
"868 283 QCURVE SMOOTH",
"935 242 OFFCURVE",
"870 136 OFFCURVE",
"797 174 QCURVE SMOOTH",
"731 208 OFFCURVE",
"100 532 OFFCURVE",
"25 580 QCURVE",
"25 620 LINE"
);
}
);
width = 1025;
}
);
unicode = 2039;
userData = {
public.markColor = "0.3216,0.6784,0.4118,1";
};
},
{
glyphname = guilsinglright;
layers = (
{
layerId = "BD4CBFBD-470E-43A2-AFCF-3289E9F05BB1";
paths = (
{
closed = 1;
nodes = (
"925 532 OFFCURVE",
"294 208 OFFCURVE",
"228 174 QCURVE SMOOTH",
"155 136 OFFCURVE",
"90 242 OFFCURVE",
"157 283 QCURVE SMOOTH",
"260 347 OFFCURVE",
"742 599 OFFCURVE",
"742 599 QCURVE",
"742 599 OFFCURVE",
"332 817 OFFCURVE",
"168 914 QCURVE SMOOTH",
"99 955 OFFCURVE",
"165 1064 OFFCURVE",
"237 1024 QCURVE SMOOTH",
"320 978 OFFCURVE",
"1000 620 OFFCURVE",
"1000 620 QCURVE",
"1000 580 LINE"
);
}
);
width = 1025;
}
);
unicode = 203A;
userData = {
public.markColor = "0.3216,0.6784,0.4118,1";
};
},
{
glyphname = guillemetleft;
layers = (
{
layerId = "BD4CBFBD-470E-43A2-AFCF-3289E9F05BB1";
paths = (
{
closed = 1;
nodes = (
"25 620 OFFCURVE",
"705 978 OFFCURVE",
"788 1024 QCURVE SMOOTH",
"860 1064 OFFCURVE",
"926 955 OFFCURVE",
"857 914 QCURVE SMOOTH",
"693 817 OFFCURVE",
"283 599 OFFCURVE",
"283 599 QCURVE",
"283 599 OFFCURVE",
"765 347 OFFCURVE",
"868 283 QCURVE SMOOTH",
"935 242 OFFCURVE",
"870 136 OFFCURVE",
"797 174 QCURVE SMOOTH",
"731 208 OFFCURVE",
"100 532 OFFCURVE",
"25 580 QCURVE",
"25 620 LINE"
);
},
{
closed = 1;
nodes = (
"667 620 OFFCURVE",
"1347 978 OFFCURVE",
"1430 1024 QCURVE SMOOTH",
"1502 1064 OFFCURVE",
"1568 955 OFFCURVE",
"1499 914 QCURVE SMOOTH",
"1335 817 OFFCURVE",
"925 599 OFFCURVE",
"925 599 QCURVE",
"925 599 OFFCURVE",
"1407 347 OFFCURVE",
"1510 283 QCURVE SMOOTH",
"1577 242 OFFCURVE",
"1512 136 OFFCURVE",
"1439 174 QCURVE SMOOTH",
"1373 208 OFFCURVE",
"742 532 OFFCURVE",
"667 580 QCURVE",
"667 620 LINE"
);
}
);
width = 1667;
}
);
unicode = 00AB;
userData = {
public.markColor = "0.3216,0.6784,0.4118,1";
};
},
{
glyphname = guillemetright;
layers = (
{
layerId = "BD4CBFBD-470E-43A2-AFCF-3289E9F05BB1";
paths = (
{
closed = 1;
nodes = (
"1567 532 OFFCURVE",
"936 208 OFFCURVE",
"870 174 QCURVE SMOOTH",
"797 136 OFFCURVE",
"732 242 OFFCURVE",
"799 283 QCURVE SMOOTH",
"902 347 OFFCURVE",
"1384 599 OFFCURVE",
"1384 599 QCURVE",
"1384 599 OFFCURVE",
"974 817 OFFCURVE",
"810 914 QCURVE SMOOTH",
"741 955 OFFCURVE",
"807 1064 OFFCURVE",
"879 1024 QCURVE SMOOTH",
"962 978 OFFCURVE",
"1642 620 OFFCURVE",
"1642 620 QCURVE",
"1642 580 LINE"
);
},
{
closed = 1;
nodes = (
"925 532 OFFCURVE",
"294 208 OFFCURVE",
"228 174 QCURVE SMOOTH",
"155 136 OFFCURVE",
"90 242 OFFCURVE",
"157 283 QCURVE SMOOTH",
"260 347 OFFCURVE",
"742 599 OFFCURVE",
"742 599 QCURVE",
"742 599 OFFCURVE",
"332 817 OFFCURVE",
"168 914 QCURVE SMOOTH",
"99 955 OFFCURVE",
"165 1064 OFFCURVE",
"237 1024 QCURVE SMOOTH",
"320 978 OFFCURVE",
"1000 620 OFFCURVE",
"1000 620 QCURVE",
"1000 580 LINE"
);
}
);
width = 1667;
}
);
unicode = 00BB;
userData = {
public.markColor = "0.3216,0.6784,0.4118,1";
};
},
{
glyphname = asterisk;
layers = (
{
layerId = "BD4CBFBD-470E-43A2-AFCF-3289E9F05BB1";
paths = (
{
closed = 1;
nodes = (
"381 664 OFFCURVE",
"331 746 OFFCURVE",
"346 796 QCURVE SMOOTH",
"423 1076 LINE",
"420 1079 LINE",
"215 872 LINE SMOOTH",
"185 841 OFFCURVE",
"84 833 OFFCURVE",
"53 888 QCURVE SMOOTH",
"21 942 OFFCURVE",
"79 1024 OFFCURVE",
"121 1034 QCURVE SMOOTH",
"401 1107 LINE",
"400 1113 LINE",
"121 1188 LINE SMOOTH",
"79 1198 OFFCURVE",
"21 1280 OFFCURVE",
"53 1335 QCURVE SMOOTH",
"84 1389 OFFCURVE",
"185 1381 OFFCURVE",
"215 1350 QCURVE SMOOTH",
"418 1143 LINE",
"422 1146 LINE",
"346 1426 LINE SMOOTH",
"331 1479 OFFCURVE",
"383 1558 OFFCURVE",
"440 1558 QCURVE SMOOTH",
"499 1558 OFFCURVE",
"549 1476 OFFCURVE",
"534 1426 QCURVE SMOOTH",
"457 1146 LINE",
"461 1143 LINE",
"666 1350 LINE SMOOTH",
"695 1381 OFFCURVE",
"796 1389 OFFCURVE",
"827 1334 QCURVE SMOOTH",
"859 1280 OFFCURVE",
"802 1198 OFFCURVE",
"759 1188 QCURVE SMOOTH",
"479 1115 LINE",
"480 1109 LINE",
"759 1034 LINE SMOOTH",
"802 1024 OFFCURVE",
"859 942 OFFCURVE",
"827 887 QCURVE SMOOTH",
"796 833 OFFCURVE",
"695 841 OFFCURVE",
"666 872 QCURVE SMOOTH",
"462 1079 LINE",
"459 1076 LINE",
"534 796 LINE SMOOTH",
"548 746 OFFCURVE",
"503 664 OFFCURVE",
"440 664 QCURVE SMOOTH"
);
}
);
width = 880;
}
);
unicode = 002A;
userData = {
public.markColor = "0.3216,0.6784,0.4118,1";
};
},
{
glyphname = dagger;
layers = (
{
layerId = "BD4CBFBD-470E-43A2-AFCF-3289E9F05BB1";
paths = (
{
closed = 1;
nodes = (
"461 -58 LINE",
"485 550 LINE",
"483 830 LINE",
"451 1438 LINE",
"501 1503 LINE",
"581 1506 LINE",
"627 1438 LINE",
"603 830 LINE",
"605 550 LINE",
"627 -58 LINE",
"564 -540 LINE",
"534 -540 LINE"
);
},
{
closed = 1;
nodes = (
"72 1000 LINE",
"545 992 LINE",
"1036 1000 LINE",
"1036 852 LINE",
"545 856 LINE",
"72 852 LINE"
);
}
);
width = 1108;
}
);
unicode = 2020;
userData = {
public.markColor = "0.3216,0.6784,0.4118,1";
};
},
{
glyphname = daggerdbl;
layers = (
{
layerId = "BD4CBFBD-470E-43A2-AFCF-3289E9F05BB1";
paths = (
{
closed = 1;
nodes = (
"461 -58 LINE",
"485 550 LINE",
"483 830 LINE",
"451 1438 LINE",
"501 1503 LINE",
"581 1506 LINE",
"627 1438 LINE",
"603 830 LINE",
"605 550 LINE",
"627 -58 LINE",
"564 -540 LINE",
"534 -540 LINE"
);
},
{
closed = 1;
nodes = (
"72 1000 LINE",
"545 992 LINE",
"1036 1000 LINE",
"1036 852 LINE",
"545 856 LINE",
"72 852 LINE"
);
},
{
closed = 1;
nodes = (
"76 571 LINE",
"549 563 LINE",
"1040 571 LINE",
"1040 423 LINE",
"549 427 LINE",
"76 423 LINE"
);
}
);
width = 1112;
}
);
unicode = 2021;
userData = {
public.markColor = "0.3216,0.6784,0.4118,1";
};
},
{
glyphname = period;
layers = (
{
layerId = "BD4CBFBD-470E-43A2-AFCF-3289E9F05BB1";
paths = (
{
closed = 1;
nodes = (
"148 179 OFFCURVE",
"229 265 OFFCURVE",
"292 265 QCURVE SMOOTH",
"355 265 OFFCURVE",
"436 179 OFFCURVE",
"436 121 QCURVE SMOOTH",
"436 64 OFFCURVE",
"355 -22 OFFCURVE",
"292 -22 QCURVE SMOOTH",
"229 -22 OFFCURVE",
"148 64 OFFCURVE",
"148 121 QCURVE SMOOTH"
);
}
);
width = 584;
}
);
unicode = 002E;
userData = {
public.markColor = "0.3216,0.6784,0.4118,1";
};
},
{
glyphname = comma;
layers = (
{
layerId = "BD4CBFBD-470E-43A2-AFCF-3289E9F05BB1";
paths = (
{
closed = 1;
nodes = (
"171 -191 OFFCURVE",
"276 -80 OFFCURVE",
"291 -13 QCURVE",
"221 -9 OFFCURVE",
"148 62 OFFCURVE",
"148 121 QCURVE SMOOTH",
"148 179 OFFCURVE",
"229 265 OFFCURVE",
"292 265 QCURVE SMOOTH",
"351 265 OFFCURVE",
"436 189 OFFCURVE",
"436 112 QCURVE SMOOTH",
"436 -10 OFFCURVE",
"281 -218 OFFCURVE",
"183 -277 QCURVE",
"133 -220 LINE"
);
}
);
width = 584;
}
);
unicode = 002C;
userData = {
public.markColor = "0.3216,0.6784,0.4118,1";
};
},
{
glyphname = colon;
layers = (
{
layerId = "BD4CBFBD-470E-43A2-AFCF-3289E9F05BB1";
paths = (
{
closed = 1;
nodes = (
"188 179 OFFCURVE",
"269 265 OFFCURVE",
"332 265 QCURVE SMOOTH",
"395 265 OFFCURVE",
"476 179 OFFCURVE",
"476 121 QCURVE SMOOTH",
"476 64 OFFCURVE",
"395 -22 OFFCURVE",
"332 -22 QCURVE SMOOTH",
"269 -22 OFFCURVE",
"188 64 OFFCURVE",
"188 121 QCURVE SMOOTH"
);
},
{
closed = 1;
nodes = (
"188 902 OFFCURVE",
"269 988 OFFCURVE",
"332 988 QCURVE SMOOTH",
"395 988 OFFCURVE",
"476 902 OFFCURVE",
"476 844 QCURVE SMOOTH",
"476 787 OFFCURVE",
"395 701 OFFCURVE",
"332 701 QCURVE SMOOTH",
"269 701 OFFCURVE",
"188 787 OFFCURVE",
"188 844 QCURVE SMOOTH"
);
}
);
width = 664;
}
);
unicode = 003A;
userData = {
public.markColor = "0.3216,0.6784,0.4118,1";
};
},
{
glyphname = semicolon;
layers = (
{
layerId = "BD4CBFBD-470E-43A2-AFCF-3289E9F05BB1";
paths = (
{
closed = 1;
nodes = (
"220 -198 OFFCURVE",
"324 -80 OFFCURVE",
"339 -13 QCURVE",
"268 -13 OFFCURVE",
"188 62 OFFCURVE",
"188 121 QCURVE SMOOTH",
"188 179 OFFCURVE",
"269 265 OFFCURVE",
"332 265 QCURVE SMOOTH",
"391 265 OFFCURVE",
"476 189 OFFCURVE",
"476 112 QCURVE SMOOTH",
"476 -10 OFFCURVE",
"321 -218 OFFCURVE",
"223 -277 QCURVE",
"180 -228 LINE"
);
},
{
closed = 1;
nodes = (
"188 902 OFFCURVE",
"269 988 OFFCURVE",
"332 988 QCURVE SMOOTH",
"395 988 OFFCURVE",
"476 902 OFFCURVE",
"476 844 QCURVE SMOOTH",
"476 787 OFFCURVE",
"395 701 OFFCURVE",
"332 701 QCURVE SMOOTH",
"269 701 OFFCURVE",
"188 787 OFFCURVE",
"188 844 QCURVE SMOOTH"
);
}
);
width = 664;
}
);
unicode = 003B;
userData = {
public.markColor = "0.3216,0.6784,0.4118,1";
};
},
{
glyphname = exclam;
layers = (
{
layerId = "BD4CBFBD-470E-43A2-AFCF-3289E9F05BB1";
paths = (
{
closed = 1;
nodes = (
"158 179 OFFCURVE",
"239 265 OFFCURVE",
"302 265 QCURVE SMOOTH",
"365 265 OFFCURVE",
"446 179 OFFCURVE",
"446 121 QCURVE SMOOTH",
"446 64 OFFCURVE",
"365 -22 OFFCURVE",
"302 -22 QCURVE SMOOTH",
"239 -22 OFFCURVE",
"158 64 OFFCURVE",
"158 121 QCURVE SMOOTH"
);
},
{
closed = 1;
nodes = (
"203 1449 OFFCURVE",
"245 1536 OFFCURVE",
"300 1537 QCURVE SMOOTH",
"355 1538 OFFCURVE",
"402 1451 OFFCURVE",
"399 1382 QCURVE SMOOTH",
"388 1068 LINE",
"364 760 LINE",
"348 435 LINE",
"254 435 LINE",
"238 760 LINE",
"216 1068 LINE",
"205 1381 LINE SMOOTH"
);
}
);
width = 604;
}
);
unicode = 0021;
userData = {
public.markColor = "0.3216,0.6784,0.4118,1";
};
},
{
glyphname = exclamdown;
layers = (
{
layerId = "BD4CBFBD-470E-43A2-AFCF-3289E9F05BB1";
paths = (
{
closed = 1;
nodes = (
"446 1147 OFFCURVE",
"365 1061 OFFCURVE",
"302 1061 QCURVE SMOOTH",
"239 1061 OFFCURVE",
"158 1147 OFFCURVE",
"158 1205 QCURVE SMOOTH",
"158 1262 OFFCURVE",
"239 1348 OFFCURVE",
"302 1348 QCURVE SMOOTH",
"365 1348 OFFCURVE",
"446 1262 OFFCURVE",
"446 1205 QCURVE SMOOTH"
);
},
{
closed = 1;
nodes = (
"401 -123 OFFCURVE",
"359 -210 OFFCURVE",
"304 -211 QCURVE SMOOTH",
"249 -212 OFFCURVE",
"202 -125 OFFCURVE",
"205 -56 QCURVE SMOOTH",
"216 258 LINE",
"240 566 LINE",
"256 891 LINE",
"350 891 LINE",
"366 566 LINE",
"388 258 LINE",
"399 -55 LINE SMOOTH"
);
}
);
width = 604;
}
);
unicode = 00A1;
userData = {
public.markColor = "0.3216,0.6784,0.4118,1";
};
},
{
glyphname = question;
layers = (
{
layerId = "BD4CBFBD-470E-43A2-AFCF-3289E9F05BB1";
paths = (
{
closed = 1;
nodes = (
"311 179 OFFCURVE",
"392 265 OFFCURVE",
"455 265 QCURVE SMOOTH",
"518 265 OFFCURVE",
"599 179 OFFCURVE",
"599 121 QCURVE SMOOTH",
"599 64 OFFCURVE",
"518 -22 OFFCURVE",
"455 -22 QCURVE SMOOTH",
"392 -22 OFFCURVE",
"311 64 OFFCURVE",
"311 121 QCURVE SMOOTH"
);
},
{
closed = 1;
nodes = (
"43 1377 OFFCURVE",
"346 1540 OFFCURVE",
"611 1540 QCURVE SMOOTH",
"867 1540 OFFCURVE",
"1188 1368 OFFCURVE",
"1188 1183 QCURVE SMOOTH",
"1188 990 OFFCURVE",
"926 790 OFFCURVE",
"772 737 QCURVE SMOOTH",
"676 704 OFFCURVE",
"516 604 OFFCURVE",
"516 522 QCURVE SMOOTH",
"516 435 LINE",
"406 435 LINE",
"392 519 LINE SMOOTH",
"376 613 OFFCURVE",
"518 769 OFFCURVE",
"664 831 QCURVE SMOOTH",
"787 883 OFFCURVE",
"1004 1020 OFFCURVE",
"1004 1161 QCURVE SMOOTH",
"1004 1296 OFFCURVE",
"777 1429 OFFCURVE",
"608 1429 QCURVE SMOOTH",
"410 1429 OFFCURVE",
"200 1342 OFFCURVE",
"200 1289 QCURVE SMOOTH",
"200 1260 OFFCURVE",
"337 1204 OFFCURVE",
"340 1155 QCURVE SMOOTH",
"344 1115 OFFCURVE",
"285 1051 OFFCURVE",
"217 1051 QCURVE SMOOTH",
"131 1051 OFFCURVE",
"43 1144 OFFCURVE",
"43 1234 QCURVE SMOOTH"
);
}
);
width = 1214;
}
);
unicode = 003F;
userData = {
public.markColor = "0.3216,0.6784,0.4118,1";
};
},
{
glyphname = questiondown;
layers = (
{
layerId = "BD4CBFBD-470E-43A2-AFCF-3289E9F05BB1";
paths = (
{
closed = 1;
nodes = (
"920 1148 OFFCURVE",
"839 1062 OFFCURVE",
"776 1062 QCURVE SMOOTH",
"713 1062 OFFCURVE",
"632 1148 OFFCURVE",
"632 1206 QCURVE SMOOTH",
"632 1263 OFFCURVE",
"713 1349 OFFCURVE",
"776 1349 QCURVE SMOOTH",
"839 1349 OFFCURVE",
"920 1263 OFFCURVE",
"920 1206 QCURVE SMOOTH"
);
},
{
closed = 1;
nodes = (
"1188 -50 OFFCURVE",
"885 -213 OFFCURVE",
"620 -213 QCURVE SMOOTH",
"364 -213 OFFCURVE",
"43 -41 OFFCURVE",
"43 144 QCURVE SMOOTH",
"43 337 OFFCURVE",
"305 537 OFFCURVE",
"459 590 QCURVE SMOOTH",
"555 623 OFFCURVE",
"715 723 OFFCURVE",
"715 805 QCURVE SMOOTH",
"715 892 LINE",
"825 892 LINE",
"839 808 LINE SMOOTH",
"855 714 OFFCURVE",
"713 558 OFFCURVE",
"567 496 QCURVE SMOOTH",
"444 444 OFFCURVE",
"227 307 OFFCURVE",
"227 166 QCURVE SMOOTH",
"227 31 OFFCURVE",
"454 -102 OFFCURVE",
"623 -102 QCURVE SMOOTH",
"821 -102 OFFCURVE",
"1031 -15 OFFCURVE",
"1031 38 QCURVE SMOOTH",
"1031 67 OFFCURVE",
"894 123 OFFCURVE",
"891 172 QCURVE SMOOTH",
"887 212 OFFCURVE",
"946 276 OFFCURVE",
"1014 276 QCURVE SMOOTH",
"1100 276 OFFCURVE",
"1188 183 OFFCURVE",
"1188 93 QCURVE SMOOTH"
);
}
);
width = 1214;
}
);
unicode = 00BF;
userData = {
public.markColor = "0.3216,0.6784,0.4118,1";
};
},
{
glyphname = slash;
layers = (
{
layerId = "BD4CBFBD-470E-43A2-AFCF-3289E9F05BB1";
paths = (
{
closed = 1;
nodes = (
"760 1555 LINE",
"892 1493 LINE",
"51 -180 LINE",
"-81 -118 LINE"
);
}
);
width = 853;
}
);
unicode = 002F;
userData = {
public.markColor = "0.3216,0.6784,0.4118,1";
};
},
{
glyphname = backslash;
layers = (
{
layerId = "BD4CBFBD-470E-43A2-AFCF-3289E9F05BB1";
paths = (
{
closed = 1;
nodes = (
"81 1555 LINE",
"922 -118 LINE",
"790 -180 LINE",
"-51 1493 LINE"
);
}
);
width = 853;
}
);
unicode = 005C;
userData = {
public.markColor = "0.3216,0.6784,0.4118,1";
};
},
{
glyphname = bar;
layers = (
{
layerId = "BD4CBFBD-470E-43A2-AFCF-3289E9F05BB1";
paths = (
{
closed = 1;
nodes = (
"227 -28 LINE",
"233 280 LINE",
"231 860 LINE",
"224 1168 LINE",
"222 1510 LINE",
"386 1580 LINE",
"381 1168 LINE",
"371 860 LINE",
"373 280 LINE",
"382 -28 LINE",
"384 -440 LINE",
"224 -510 LINE"
);
}
);
width = 604;
}
);
unicode = 007C;
userData = {
public.markColor = "0.3216,0.6784,0.4118,1";
};
},
{
glyphname = brokenbar;
layers = (
{
layerId = "BD4CBFBD-470E-43A2-AFCF-3289E9F05BB1";
paths = (
{
closed = 1;
nodes = (
"231 931 LINE",
"223 1239 LINE",
"221 1511 LINE",
"386 1581 LINE",
"383 1239 LINE",
"372 931 LINE",
"373 769 LINE",
"229 719 LINE"
);
},
{
closed = 1;
nodes = (
"229 -97 LINE",
"233 211 LINE",
"231 379 LINE",
"375 439 LINE",
"373 211 LINE",
"383 -97 LINE",
"384 -439 LINE",
"224 -509 LINE"
);
}
);
width = 604;
}
);
unicode = 00A6;
userData = {
public.markColor = "0.3216,0.6784,0.4118,1";
};
},
{
glyphname = at;
layers = (
{
layerId = "BD4CBFBD-470E-43A2-AFCF-3289E9F05BB1";
paths = (
{
closed = 1;
nodes = (
"104 1058 OFFCURVE",
"663 1520 OFFCURVE",
"1136 1520 QCURVE SMOOTH",
"1578 1520 OFFCURVE",
"2148 1172 OFFCURVE",
"2148 863 QCURVE SMOOTH",
"2148 630 OFFCURVE",
"1807 349 OFFCURVE",
"1609 349 QCURVE SMOOTH",
"1511 349 OFFCURVE",
"1392 400 OFFCURVE",
"1365 461 QCURVE",
"1305 400 OFFCURVE",
"1075 317 OFFCURVE",
"954 317 QCURVE SMOOTH",
"811 317 OFFCURVE",
"644 434 OFFCURVE",
"644 535 QCURVE SMOOTH",
"644 661 OFFCURVE",
"966 821 OFFCURVE",
"1372 866 QCURVE",
"1382 779 LINE",
"1138 756 OFFCURVE",
"846 659 OFFCURVE",
"846 561 QCURVE SMOOTH",
"846 494 OFFCURVE",
"943 437 OFFCURVE",
"1023 437 QCURVE SMOOTH",
"1109 437 OFFCURVE",
"1315 515 OFFCURVE",
"1353 557 QCURVE",
"1356 863 LINE SMOOTH",
"1357 1010 OFFCURVE",
"1218 1112 OFFCURVE",
"1114 1112 QCURVE SMOOTH",
"1029 1112 OFFCURVE",
"903 1077 OFFCURVE",
"871 1053 QCURVE",
"895 1034 OFFCURVE",
"923 993 OFFCURVE",
"923 970 QCURVE SMOOTH",
"923 930 OFFCURVE",
"866 882 OFFCURVE",
"815 882 QCURVE SMOOTH",
"763 882 OFFCURVE",
"706 954 OFFCURVE",
"712 1012 QCURVE SMOOTH",
"720 1094 OFFCURVE",
"972 1213 OFFCURVE",
"1132 1213 QCURVE SMOOTH",
"1325 1213 OFFCURVE",
"1516 1042 OFFCURVE",
"1520 854 QCURVE SMOOTH",
"1527 485 LINE SMOOTH",
"1527 469 OFFCURVE",
"1548 460 OFFCURVE",
"1565 460 QCURVE SMOOTH",
"1749 460 OFFCURVE",
"1986 667 OFFCURVE",
"1986 858 QCURVE SMOOTH",
"1986 1082 OFFCURVE",
"1535 1384 OFFCURVE",
"1136 1384 QCURVE SMOOTH",
"725 1384 OFFCURVE",
"274 1033 OFFCURVE",
"276 737 QCURVE SMOOTH",
"279 471 OFFCURVE",
"716 99 OFFCURVE",
"1136 99 QCURVE SMOOTH",
"1318 99 OFFCURVE",
"1550 163 OFFCURVE",
"1608 195 QCURVE",
"1664 98 LINE",
"1587 47 OFFCURVE",
"1331 -30 OFFCURVE",
"1130 -30 QCURVE SMOOTH",
"638 -30 OFFCURVE",
"104 399 OFFCURVE",
"104 725 QCURVE SMOOTH"
);
}
);
width = 2222;
}
);
unicode = 0040;
userData = {
public.markColor = "0.3216,0.6784,0.4118,1";
};
},
{
glyphname = ampersand;
layers = (
{
layerId = "BD4CBFBD-470E-43A2-AFCF-3289E9F05BB1";
paths = (
{
closed = 1;
nodes = (
"321 -28 OFFCURVE",
"70 209 OFFCURVE",
"74 374 QCURVE SMOOTH",
"77 503 OFFCURVE",
"291 741 OFFCURVE",
"736 922 QCURVE",
"848 948 OFFCURVE",
"1009 1121 OFFCURVE",
"1009 1211 QCURVE SMOOTH",
"1009 1296 OFFCURVE",
"867 1403 OFFCURVE",
"741 1403 QCURVE SMOOTH",
"609 1403 OFFCURVE",
"440 1288 OFFCURVE",
"440 1193 QCURVE SMOOTH",
"440 1101 OFFCURVE",
"588 946 OFFCURVE",
"752 916 QCURVE",
"1370 260 LINE SMOOTH",
"1439 186 OFFCURVE",
"1580 96 OFFCURVE",
"1670 96 QCURVE SMOOTH",
"1744 96 OFFCURVE",
"1823 133 OFFCURVE",
"1861 168 QCURVE",
"1934 100 LINE",
"1880 31 OFFCURVE",
"1738 -37 OFFCURVE",
"1626 -37 QCURVE SMOOTH",
"1513 -37 OFFCURVE",
"1343 32 OFFCURVE",
"1218 167 QCURVE SMOOTH",
"612 819 LINE",
"466 861 OFFCURVE",
"274 1046 OFFCURVE",
"282 1185 QCURVE SMOOTH",
"290 1327 OFFCURVE",
"526 1516 OFFCURVE",
"737 1516 QCURVE SMOOTH",
"940 1516 OFFCURVE",
"1172 1355 OFFCURVE",
"1172 1208 QCURVE SMOOTH",
"1172 1072 OFFCURVE",
"940 891 OFFCURVE",
"794 852 QCURVE",
"530 728 OFFCURVE",
"282 523 OFFCURVE",
"276 403 QCURVE SMOOTH",
"268 275 OFFCURVE",
"461 112 OFFCURVE",
"677 112 QCURVE SMOOTH",
"1056 112 OFFCURVE",
"1645 574 OFFCURVE",
"1818 873 QCURVE",
"1946 858 LINE",
"1789 534 OFFCURVE",
"1071 -28 OFFCURVE",
"649 -28 QCURVE SMOOTH"
);
},
{
closed = 1;
nodes = (
"1358 896 OFFCURVE",
"1473 971 OFFCURVE",
"1530 971 QCURVE SMOOTH",
"1585 971 OFFCURVE",
"1743 913 OFFCURVE",
"1789 913 QCURVE SMOOTH",
"1825 913 OFFCURVE",
"1870 918 OFFCURVE",
"1905 938 QCURVE",
"1975 869 LINE",
"1897 784 OFFCURVE",
"1818 762 OFFCURVE",
"1762 762 QCURVE SMOOTH",
"1745 762 OFFCURVE",
"1588 823 OFFCURVE",
"1540 823 QCURVE SMOOTH",
"1492 823 OFFCURVE",
"1410 802 OFFCURVE",
"1382 782 QCURVE",
"1328 841 LINE"
);
}
);
width = 1961;
}
);
unicode = 0026;
userData = {
public.markColor = "0.3216,0.6784,0.4118,1";
};
},
{
glyphname = section;
layers = (
{
layerId = "BD4CBFBD-470E-43A2-AFCF-3289E9F05BB1";
paths = (
{
closed = 1;
nodes = (
"1280 -35 OFFCURVE",
"1002 -253 OFFCURVE",
"770 -253 QCURVE SMOOTH",
"623 -253 OFFCURVE",
"387 -187 OFFCURVE",
"321 -135 QCURVE",
"267 -235 LINE",
"162 -235 LINE",
"162 196 LINE",
"280 196 LINE",
"304 103 LINE SMOOTH",
"338 -27 OFFCURVE",
"592 -134 OFFCURVE",
"753 -134 QCURVE SMOOTH",
"928 -134 OFFCURVE",
"1103 -9 OFFCURVE",
"1103 95 QCURVE SMOOTH",
"1103 220 OFFCURVE",
"882 344 OFFCURVE",
"660 411 QCURVE SMOOTH",
"453 474 OFFCURVE",
"217 634 OFFCURVE",
"217 776 QCURVE SMOOTH",
"217 860 OFFCURVE",
"313 991 OFFCURVE",
"411 1030 QCURVE",
"344 1070 OFFCURVE",
"285 1179 OFFCURVE",
"285 1239 QCURVE SMOOTH",
"285 1349 OFFCURVE",
"504 1512 OFFCURVE",
"703 1512 QCURVE SMOOTH",
"803 1512 OFFCURVE",
"964 1472 OFFCURVE",
"1013 1449 QCURVE",
"1031 1480 LINE",
"1130 1480 LINE",
"1130 1184 LINE",
"1012 1184 LINE",
"985 1297 LINE SMOOTH",
"974 1341 OFFCURVE",
"815 1401 OFFCURVE",
"708 1401 QCURVE SMOOTH",
"590 1401 OFFCURVE",
"462 1329 OFFCURVE",
"462 1270 QCURVE SMOOTH",
"462 1200 OFFCURVE",
"585 1126 OFFCURVE",
"790 1082 QCURVE SMOOTH",
"990 1039 OFFCURVE",
"1240 912 OFFCURVE",
"1240 767 QCURVE SMOOTH",
"1240 668 OFFCURVE",
"1086 516 OFFCURVE",
"950 485 QCURVE",
"1097 430 OFFCURVE",
"1280 268 OFFCURVE",
"1280 137 QCURVE SMOOTH"
);
},
{
closed = 1;
nodes = (
"379 732 OFFCURVE",
"542 615 OFFCURVE",
"750 551 QCURVE",
"880 551 OFFCURVE",
"1073 657 OFFCURVE",
"1073 740 QCURVE SMOOTH",
"1073 824 OFFCURVE",
"874 899 OFFCURVE",
"660 947 QCURVE SMOOTH",
"625 955 OFFCURVE",
"564 971 OFFCURVE",
"537 980 QCURVE",
"472 958 OFFCURVE",
"379 870 OFFCURVE",
"379 810 QCURVE SMOOTH"
);
}
);
width = 1414;
}
);
unicode = 00A7;
userData = {
public.markColor = "0.3216,0.6784,0.4118,1";
};
},
{
glyphname = paragraph;
layers = (
{
layerId = "BD4CBFBD-470E-43A2-AFCF-3289E9F05BB1";
paths = (
{
closed = 1;
nodes = (
"1291 0 LINE",
"308 0 LINE",
"308 100 LINE",
"936 132 LINE",
"938 757 LINE",
"879 751 OFFCURVE",
"639 743 OFFCURVE",
"500 743 QCURVE SMOOTH",
"307 743 OFFCURVE",
"73 942 OFFCURVE",
"73 1108 QCURVE SMOOTH",
"73 1289 OFFCURVE",
"305 1500 OFFCURVE",
"507 1500 QCURVE SMOOTH",
"1274 1500 LINE",
"1274 1386 LINE",
"1063 1352 LINE",
"1061 754 LINE",
"1063 129 LINE",
"1291 100 LINE"
);
},
{
closed = 1;
nodes = (
"546 46 LINE",
"548 757 LINE",
"681 764 LINE",
"683 51 LINE"
);
}
);
width = 1382;
}
);
unicode = 00B6;
userData = {
public.markColor = "0.3216,0.6784,0.4118,1";
};
},
{
glyphname = periodcentered;
layers = (
{
layerId = "BD4CBFBD-470E-43A2-AFCF-3289E9F05BB1";
paths = (
{
closed = 1;
nodes = (
"148 732 OFFCURVE",
"229 818 OFFCURVE",
"292 818 QCURVE SMOOTH",
"355 818 OFFCURVE",
"436 732 OFFCURVE",
"436 674 QCURVE SMOOTH",
"436 617 OFFCURVE",
"355 531 OFFCURVE",
"292 531 QCURVE SMOOTH",
"229 531 OFFCURVE",
"148 617 OFFCURVE",
"148 674 QCURVE SMOOTH"
);
}
);
width = 584;
}
);
unicode = 00B7;
userData = {
public.markColor = "0.3216,0.6784,0.4118,1";
};
},
{
glyphname = bullet;
layers = (
{
layerId = "BD4CBFBD-470E-43A2-AFCF-3289E9F05BB1";
paths = (
{
closed = 1;
nodes = (
"167 882 OFFCURVE",
"320 1044 OFFCURVE",
"438 1044 QCURVE SMOOTH",
"556 1044 OFFCURVE",
"709 882 OFFCURVE",
"709 773 QCURVE SMOOTH",
"709 666 OFFCURVE",
"556 504 OFFCURVE",
"438 504 QCURVE SMOOTH",
"320 504 OFFCURVE",
"167 666 OFFCURVE",
"167 773 QCURVE SMOOTH"
);
}
);
width = 876;
}
);
unicode = 2022;
userData = {
public.markColor = "0.3216,0.6784,0.4118,1";
};
},
{
glyphname = asciicircum;
layers = (
{
layerId = "BD4CBFBD-470E-43A2-AFCF-3289E9F05BB1";
paths = (
{
closed = 1;
nodes = (
"176 988 OFFCURVE",
"615 1501 OFFCURVE",
"638 1524 QCURVE",
"657 1501 OFFCURVE",
"1140 989 OFFCURVE",
"1194 927 QCURVE",
"1107 829 LINE",
"982 943 OFFCURVE",
"655 1255 OFFCURVE",
"640 1267 QCURVE",
"621 1248 OFFCURVE",
"344 952 OFFCURVE",
"211 831 QCURVE",
"122 926 LINE"
);
}
);
width = 1317;
}
);
unicode = 005E;
userData = {
public.markColor = "0.3216,0.6784,0.4118,1";
};
},
{
glyphname = asciitilde;
layers = (
{
layerId = "BD4CBFBD-470E-43A2-AFCF-3289E9F05BB1";
paths = (
{
closed = 1;
nodes = (
"80 694 OFFCURVE",
"260 806 OFFCURVE",
"348 806 QCURVE",
"731 671 LINE",
"791 671 OFFCURVE",
"883 759 OFFCURVE",
"916 813 QCURVE",
"1006 761 LINE",
"956 657 OFFCURVE",
"812 516 OFFCURVE",
"680 516 QCURVE",
"320 643 LINE",
"259 643 OFFCURVE",
"143 589 OFFCURVE",
"86 537 QCURVE",
"18 601 LINE"
);
}
);
width = 1024;
}
);
unicode = 007E;
userData = {
public.markColor = "0.3216,0.6784,0.4118,1";
};
},
{
glyphname = acute;
layers = (
{
layerId = "BD4CBFBD-470E-43A2-AFCF-3289E9F05BB1";
paths = (
{
closed = 1;
nodes = (
"835 1410 OFFCURVE",
"772 1354 OFFCURVE",
"730 1330 QCURVE SMOOTH",
"383 1132 LINE",
"319 1208 LINE",
"580 1441 LINE SMOOTH",
"618 1475 OFFCURVE",
"700 1535 OFFCURVE",
"737 1535 QCURVE SMOOTH",
"782 1535 OFFCURVE",
"835 1482 OFFCURVE",
"835 1447 QCURVE SMOOTH"
);
}
);
width = 1024;
}
);
unicode = 00B4;
userData = {
public.markColor = "1,0.8,0.2,1";
};
},
{
glyphname = grave;
layers = (
{
layerId = "BD4CBFBD-470E-43A2-AFCF-3289E9F05BB1";
paths = (
{
closed = 1;
nodes = (
"219 1482 OFFCURVE",
"272 1535 OFFCURVE",
"317 1535 QCURVE SMOOTH",
"354 1535 OFFCURVE",
"436 1475 OFFCURVE",
"474 1441 QCURVE SMOOTH",
"735 1208 LINE",
"671 1132 LINE",
"324 1330 LINE SMOOTH",
"282 1354 OFFCURVE",
"219 1410 OFFCURVE",
"219 1447 QCURVE SMOOTH"
);
}
);
width = 1024;
}
);
unicode = 0060;
userData = {
public.markColor = "1,0.8,0.2,1";
};
},
{
glyphname = hungarumlaut;
layers = (
{
layerId = "BD4CBFBD-470E-43A2-AFCF-3289E9F05BB1";
paths = (
{
closed = 1;
nodes = (
"660 1402 OFFCURVE",
"598 1347 OFFCURVE",
"558 1324 QCURVE SMOOTH",
"221 1132 LINE",
"159 1206 LINE",
"412 1432 LINE SMOOTH",
"449 1465 OFFCURVE",
"529 1523 OFFCURVE",
"564 1523 QCURVE SMOOTH",
"608 1523 OFFCURVE",
"660 1472 OFFCURVE",
"660 1438 QCURVE SMOOTH"
);
},
{
closed = 1;
nodes = (
"1106 1402 OFFCURVE",
"1045 1347 OFFCURVE",
"1004 1324 QCURVE SMOOTH",
"667 1132 LINE",
"605 1206 LINE",
"858 1432 LINE SMOOTH",
"895 1465 OFFCURVE",
"975 1523 OFFCURVE",
"1011 1523 QCURVE SMOOTH",
"1054 1523 OFFCURVE",
"1106 1472 OFFCURVE",
"1106 1438 QCURVE SMOOTH"
);
}
);
width = 1024;
}
);
unicode = 02DD;
userData = {
public.markColor = "1,0.8,0.2,1";
};
},
{
glyphname = circumflex;
layers = (
{
layerId = "BD4CBFBD-470E-43A2-AFCF-3289E9F05BB1";
paths = (
{
closed = 1;
nodes = (
"554 1520 OFFCURVE",
"611 1489 OFFCURVE",
"650 1447 QCURVE SMOOTH",
"903 1204 LINE",
"836 1131 LINE",
"512 1351 LINE",
"188 1131 LINE",
"121 1204 LINE",
"374 1447 LINE SMOOTH",
"426 1496 OFFCURVE",
"470 1520 OFFCURVE",
"512 1520 QCURVE SMOOTH"
);
}
);
width = 1024;
}
);
unicode = 02C6;
userData = {
public.markColor = "1,0.8,0.2,1";
};
},
{
glyphname = caron;
layers = (
{
layerId = "BD4CBFBD-470E-43A2-AFCF-3289E9F05BB1";
paths = (
{
closed = 1;
nodes = (
"470 1131 OFFCURVE",
"413 1162 OFFCURVE",
"374 1204 QCURVE SMOOTH",
"121 1447 LINE",
"188 1520 LINE",
"512 1300 LINE",
"836 1520 LINE",
"903 1447 LINE",
"650 1204 LINE SMOOTH",
"598 1155 OFFCURVE",
"554 1131 OFFCURVE",
"512 1131 QCURVE SMOOTH"
);
}
);
width = 1024;
}
);
unicode = 02C7;
userData = {
public.markColor = "1,0.8,0.2,1";
};
},
{
glyphname = breve;
layers = (
{
layerId = "BD4CBFBD-470E-43A2-AFCF-3289E9F05BB1";
paths = (
{
closed = 1;
nodes = (
"917 1408 LINE",
"891 1315 OFFCURVE",
"668 1141 OFFCURVE",
"513 1141 QCURVE SMOOTH",
"358 1141 OFFCURVE",
"144 1295 OFFCURVE",
"107 1405 QCURVE",
"186 1462 LINE",
"234 1395 OFFCURVE",
"398 1290 OFFCURVE",
"514 1290 QCURVE SMOOTH",
"634 1290 OFFCURVE",
"801 1397 OFFCURVE",
"843 1461 QCURVE"
);
}
);
width = 1024;
}
);
unicode = 02D8;
userData = {
public.markColor = "1,0.8,0.2,1";
};
},
{
glyphname = tilde;
layers = (
{
layerId = "BD4CBFBD-470E-43A2-AFCF-3289E9F05BB1";
paths = (
{
closed = 1;
nodes = (
"118 1313 OFFCURVE",
"268 1426 OFFCURVE",
"350 1426 QCURVE SMOOTH",
"399 1426 OFFCURVE",
"486 1398 OFFCURVE",
"530 1372 QCURVE SMOOTH",
"563 1355 OFFCURVE",
"667 1303 OFFCURVE",
"717 1303 QCURVE SMOOTH",
"765 1303 OFFCURVE",
"856 1356 OFFCURVE",
"883 1393 QCURVE",
"950 1327 LINE",
"905 1251 OFFCURVE",
"764 1164 OFFCURVE",
"697 1164 QCURVE SMOOTH",
"640 1164 OFFCURVE",
"526 1209 OFFCURVE",
"492 1229 QCURVE SMOOTH",
"453 1252 OFFCURVE",
"365 1287 OFFCURVE",
"330 1287 QCURVE SMOOTH",
"273 1287 OFFCURVE",
"169 1215 OFFCURVE",
"147 1187 QCURVE",
"78 1250 LINE"
);
}
);
width = 1024;
}
);
unicode = 02DC;
userData = {
public.markColor = "1,0.8,0.2,1";
};
},
{
glyphname = macron;
layers = (
{
layerId = "BD4CBFBD-470E-43A2-AFCF-3289E9F05BB1";
paths = (
{
closed = 1;
nodes = (
"136 1367 LINE",
"888 1367 LINE",
"888 1223 LINE",
"136 1223 LINE"
);
}
);
width = 1024;
}
);
unicode = 00AF;
userData = {
public.markColor = "1,0.8,0.2,1";
};
},
{
glyphname = dieresis;
layers = (
{
layerId = "BD4CBFBD-470E-43A2-AFCF-3289E9F05BB1";
paths = (
{
closed = 1;
nodes = (
"626 1342 OFFCURVE",
"686 1401 OFFCURVE",
"742 1401 QCURVE SMOOTH",
"795 1401 OFFCURVE",
"858 1338 OFFCURVE",
"858 1287 QCURVE SMOOTH",
"858 1233 OFFCURVE",
"799 1174 OFFCURVE",
"742 1174 QCURVE SMOOTH",
"689 1174 OFFCURVE",
"626 1236 OFFCURVE",
"626 1287 QCURVE SMOOTH"
);
},
{
closed = 1;
nodes = (
"166 1342 OFFCURVE",
"226 1401 OFFCURVE",
"282 1401 QCURVE SMOOTH",
"335 1401 OFFCURVE",
"398 1338 OFFCURVE",
"398 1287 QCURVE SMOOTH",
"398 1233 OFFCURVE",
"339 1174 OFFCURVE",
"282 1174 QCURVE SMOOTH",
"229 1174 OFFCURVE",
"166 1236 OFFCURVE",
"166 1287 QCURVE SMOOTH"
);
}
);
width = 1024;
}
);
unicode = 00A8;
userData = {
public.markColor = "1,0.8,0.2,1";
};
},
{
glyphname = dotaccent;
layers = (
{
layerId = "BD4CBFBD-470E-43A2-AFCF-3289E9F05BB1";
paths = (
{
closed = 1;
nodes = (
"391 1339 OFFCURVE",
"453 1400 OFFCURVE",
"512 1400 QCURVE SMOOTH",
"567 1400 OFFCURVE",
"633 1335 OFFCURVE",
"633 1282 QCURVE SMOOTH",
"633 1225 OFFCURVE",
"571 1164 OFFCURVE",
"512 1164 QCURVE SMOOTH",
"457 1164 OFFCURVE",
"391 1229 OFFCURVE",
"391 1282 QCURVE SMOOTH"
);
}
);
width = 1024;
}
);
unicode = 02D9;
userData = {
public.markColor = "1,0.8,0.2,1";
};
},
{
glyphname = ring;
layers = (
{
layerId = "BD4CBFBD-470E-43A2-AFCF-3289E9F05BB1";
paths = (
{
closed = 1;
nodes = (
"237 1438 OFFCURVE",
"398 1565 OFFCURVE",
"512 1565 QCURVE SMOOTH",
"626 1565 OFFCURVE",
"787 1438 OFFCURVE",
"787 1347 QCURVE SMOOTH",
"787 1256 OFFCURVE",
"626 1129 OFFCURVE",
"512 1129 QCURVE SMOOTH",
"398 1129 OFFCURVE",
"237 1256 OFFCURVE",
"237 1347 QCURVE SMOOTH"
);
},
{
closed = 1;
nodes = (
"369 1296 OFFCURVE",
"449 1234 OFFCURVE",
"512 1234 QCURVE SMOOTH",
"578 1234 OFFCURVE",
"655 1292 OFFCURVE",
"655 1347 QCURVE SMOOTH",
"655 1398 OFFCURVE",
"575 1460 OFFCURVE",
"512 1460 QCURVE SMOOTH",
"446 1460 OFFCURVE",
"369 1402 OFFCURVE",
"369 1347 QCURVE SMOOTH"
);
}
);
width = 1024;
}
);
unicode = 02DA;
userData = {
public.markColor = "1,0.8,0.2,1";
};
},
{
glyphname = cedilla;
layers = (
{
layerId = "BD4CBFBD-470E-43A2-AFCF-3289E9F05BB1";
paths = (
{
closed = 1;
nodes = (
"490 -131 LINE",
"525 -118 OFFCURVE",
"591 -108 OFFCURVE",
"627 -108 QCURVE SMOOTH",
"729 -108 OFFCURVE",
"861 -198 OFFCURVE",
"861 -287 QCURVE SMOOTH",
"861 -382 OFFCURVE",
"678 -496 OFFCURVE",
"544 -496 QCURVE SMOOTH",
"437 -496 OFFCURVE",
"276 -452 OFFCURVE",
"214 -410 QCURVE",
"268 -318 LINE",
"314 -350 OFFCURVE",
"453 -390 OFFCURVE",
"530 -390 QCURVE SMOOTH",
"609 -390 OFFCURVE",
"698 -339 OFFCURVE",
"698 -289 QCURVE SMOOTH",
"698 -246 OFFCURVE",
"615 -206 OFFCURVE",
"542 -206 QCURVE SMOOTH",
"505 -206 OFFCURVE",
"438 -214 OFFCURVE",
"418 -220 QCURVE",
"354 -154 LINE",
"482 51 LINE",
"574 -1 LINE"
);
}
);
width = 1024;
}
);
unicode = 00B8;
userData = {
public.markColor = "1,0.8,0.2,1";
};
},
{
glyphname = ogonek;
layers = (
{
layerId = "BD4CBFBD-470E-43A2-AFCF-3289E9F05BB1";
paths = (
{
closed = 1;
nodes = (
"438 -283 OFFCURVE",
"518 -338 OFFCURVE",
"587 -338 QCURVE SMOOTH",
"648 -338 OFFCURVE",
"796 -292 OFFCURVE",
"854 -252 QCURVE",
"914 -336 LINE",
"870 -380 OFFCURVE",
"688 -464 OFFCURVE",
"557 -464 QCURVE SMOOTH",
"426 -464 OFFCURVE",
"274 -360 OFFCURVE",
"274 -278 QCURVE SMOOTH",
"274 -193 OFFCURVE",
"420 -33 OFFCURVE",
"516 31 QCURVE SMOOTH",
"546 51 LINE",
"626 -1 LINE",
"603 -19 LINE SMOOTH",
"515 -88 OFFCURVE",
"438 -191 OFFCURVE",
"438 -241 QCURVE SMOOTH"
);
}
);
width = 1024;
}
);
unicode = 02DB;
userData = {
public.markColor = "1,0.8,0.2,1";
};
},
